<svg width="1573" height="179" viewBox="0 0 1573 179" fill="none" xmlns="http://www.w3.org/2000/svg">
<path d="M56.0369 69.7188C55.6392 65.9972 53.9631 63.0994 51.0085 61.0256C48.0824 58.9517 44.2756 57.9148 39.5881 57.9148C36.2926 57.9148 33.4659 58.4119 31.108 59.4062C28.75 60.4006 26.946 61.75 25.696 63.4545C24.446 65.1591 23.8068 67.1051 23.7784 69.2926C23.7784 71.1108 24.1903 72.6875 25.0142 74.0227C25.8665 75.358 27.017 76.4943 28.4659 77.4318C29.9148 78.3409 31.5199 79.108 33.2812 79.733C35.0426 80.358 36.8182 80.8835 38.608 81.3097L46.7898 83.3551C50.0852 84.1222 53.2528 85.1591 56.2926 86.4659C59.3608 87.7727 62.1023 89.4205 64.517 91.4091C66.9602 93.3977 68.892 95.7983 70.3125 98.6108C71.733 101.423 72.4432 104.719 72.4432 108.497C72.4432 113.611 71.1364 118.114 68.5227 122.006C65.9091 125.869 62.1307 128.895 57.1875 131.082C52.2727 133.241 46.321 134.321 39.3324 134.321C32.5426 134.321 26.6477 133.27 21.6477 131.168C16.6761 129.065 12.7841 125.997 9.97159 121.963C7.1875 117.929 5.68182 113.014 5.45455 107.219H21.0085C21.2358 110.259 22.1733 112.787 23.821 114.804C25.4688 116.821 27.6136 118.327 30.2557 119.321C32.9261 120.315 35.9091 120.812 39.2045 120.812C42.642 120.812 45.6534 120.301 48.2386 119.278C50.8523 118.227 52.8977 116.778 54.375 114.932C55.8523 113.057 56.6051 110.869 56.6335 108.369C56.6051 106.097 55.9375 104.222 54.6307 102.744C53.3239 101.239 51.4915 99.9886 49.1335 98.9943C46.804 97.9716 44.0767 97.0625 40.9517 96.267L31.0227 93.7102C23.8352 91.8636 18.1534 89.0653 13.9773 85.3153C9.82955 81.5369 7.75568 76.5227 7.75568 70.2727C7.75568 65.1307 9.14773 60.6278 11.9318 56.7642C14.7443 52.9006 18.5653 49.9034 23.3949 47.7727C28.2244 45.6136 33.6932 44.5341 39.8011 44.5341C45.9943 44.5341 51.4205 45.6136 56.0795 47.7727C60.767 49.9034 64.446 52.8722 67.1165 56.679C69.7869 60.4574 71.1648 64.804 71.25 69.7188H56.0369ZM108.94 67.5455V79.4773H71.3126V67.5455H108.94ZM80.6024 51.8636H96.0286V113.312C96.0286 115.386 96.3411 116.977 96.9661 118.085C97.6195 119.165 98.4717 119.903 99.5229 120.301C100.574 120.699 101.739 120.898 103.017 120.898C103.983 120.898 104.864 120.827 105.659 120.685C106.483 120.543 107.108 120.415 107.534 120.301L110.134 132.361C109.31 132.645 108.131 132.957 106.597 133.298C105.091 133.639 103.244 133.838 101.057 133.895C97.1933 134.009 93.7132 133.426 90.6166 132.148C87.52 130.841 85.0626 128.824 83.2445 126.097C81.4547 123.369 80.574 119.96 80.6024 115.869V51.8636ZM153.961 105.472V67.5455H169.387V133H154.429V121.366H153.747C152.27 125.031 149.841 128.028 146.461 130.358C143.108 132.687 138.975 133.852 134.06 133.852C129.77 133.852 125.978 132.901 122.682 130.997C119.415 129.065 116.858 126.267 115.012 122.602C113.165 118.909 112.242 114.449 112.242 109.222V67.5455H127.668V106.835C127.668 110.983 128.804 114.278 131.077 116.722C133.35 119.165 136.333 120.386 140.026 120.386C142.299 120.386 144.5 119.832 146.631 118.724C148.762 117.616 150.509 115.969 151.872 113.781C153.264 111.565 153.961 108.795 153.961 105.472ZM199.939 134.151C194.797 134.151 190.195 132.83 186.133 130.188C182.07 127.545 178.86 123.71 176.502 118.682C174.144 113.653 172.965 107.545 172.965 100.358C172.965 93.0852 174.158 86.9489 176.544 81.9489C178.959 76.9205 182.212 73.1278 186.303 70.571C190.394 67.9858 194.954 66.6932 199.982 66.6932C203.817 66.6932 206.971 67.3466 209.442 68.6534C211.914 69.9318 213.874 71.4801 215.323 73.2983C216.772 75.0881 217.894 76.7784 218.689 78.3693H219.329V45.7273H234.797V133H219.627V122.688H218.689C217.894 124.278 216.743 125.969 215.238 127.759C213.732 129.52 211.743 131.026 209.272 132.276C206.8 133.526 203.689 134.151 199.939 134.151ZM204.243 121.494C207.51 121.494 210.294 120.614 212.596 118.852C214.897 117.062 216.644 114.577 217.837 111.395C219.03 108.213 219.627 104.506 219.627 100.273C219.627 96.0398 219.03 92.3608 217.837 89.2358C216.672 86.1108 214.939 83.6818 212.638 81.9489C210.365 80.2159 207.567 79.3494 204.243 79.3494C200.806 79.3494 197.937 80.2443 195.635 82.0341C193.334 83.8239 191.601 86.2955 190.437 89.4489C189.272 92.6023 188.689 96.2102 188.689 100.273C188.689 104.364 189.272 108.014 190.437 111.224C191.63 114.406 193.377 116.92 195.678 118.767C198.008 120.585 200.863 121.494 204.243 121.494ZM270.613 134.278C264.05 134.278 258.383 132.915 253.61 130.188C248.866 127.432 245.215 123.54 242.658 118.511C240.101 113.455 238.823 107.503 238.823 100.656C238.823 93.9233 240.101 88.0142 242.658 82.929C245.243 77.8153 248.851 73.8381 253.482 70.9972C258.113 68.1278 263.553 66.6932 269.803 66.6932C273.837 66.6932 277.644 67.3466 281.224 68.6534C284.832 69.9318 288.013 71.9205 290.769 74.6193C293.553 77.3182 295.741 80.7557 297.332 84.9318C298.922 89.0795 299.718 94.0227 299.718 99.7614V104.491H246.067V94.0938H284.931C284.903 91.1392 284.263 88.5114 283.013 86.2102C281.763 83.8807 280.016 82.0483 277.772 80.7131C275.556 79.3778 272.971 78.7102 270.016 78.7102C266.863 78.7102 264.093 79.4773 261.707 81.0114C259.32 82.517 257.459 84.5057 256.124 86.9773C254.817 89.4205 254.15 92.1051 254.121 95.0312V104.108C254.121 107.915 254.817 111.182 256.209 113.909C257.601 116.608 259.547 118.682 262.047 120.131C264.547 121.551 267.474 122.261 270.826 122.261C273.07 122.261 275.101 121.949 276.92 121.324C278.738 120.67 280.314 119.719 281.65 118.469C282.985 117.219 283.993 115.67 284.675 113.824L299.079 115.443C298.17 119.25 296.437 122.574 293.88 125.415C291.351 128.227 288.113 130.415 284.164 131.977C280.215 133.511 275.698 134.278 270.613 134.278ZM318.594 94.6477V133H303.168V67.5455H317.913V78.6676H318.68C320.185 75.0028 322.586 72.0909 325.881 69.9318C329.205 67.7727 333.31 66.6932 338.197 66.6932C342.714 66.6932 346.648 67.6591 350.001 69.5909C353.381 71.5227 355.995 74.321 357.842 77.9858C359.717 81.6506 360.64 86.0966 360.612 91.3239V133H345.185V93.7102C345.185 89.3352 344.049 85.9119 341.776 83.4403C339.532 80.9687 336.421 79.733 332.444 79.733C329.745 79.733 327.344 80.3295 325.242 81.5227C323.168 82.6875 321.535 84.3778 320.342 86.5938C319.177 88.8097 318.594 91.4943 318.594 94.6477ZM399.378 67.5455V79.4773H361.75V67.5455H399.378ZM371.04 51.8636H386.466V113.312C386.466 115.386 386.779 116.977 387.404 118.085C388.057 119.165 388.909 119.903 389.96 120.301C391.012 120.699 392.176 120.898 393.455 120.898C394.421 120.898 395.301 120.827 396.097 120.685C396.921 120.543 397.546 120.415 397.972 120.301L400.571 132.361C399.747 132.645 398.568 132.957 397.034 133.298C395.529 133.639 393.682 133.838 391.494 133.895C387.631 134.009 384.151 133.426 381.054 132.148C377.958 130.841 375.5 128.824 373.682 126.097C371.892 123.369 371.012 119.96 371.04 115.869V51.8636Z" fill="#606060"/>
<path d="M470.956 69.7188C470.558 65.9972 468.882 63.0994 465.927 61.0256C463.001 58.9517 459.194 57.9148 454.507 57.9148C451.211 57.9148 448.385 58.4119 446.027 59.4062C443.669 60.4006 441.865 61.75 440.615 63.4545C439.365 65.1591 438.726 67.1051 438.697 69.2926C438.697 71.1108 439.109 72.6875 439.933 74.0227C440.785 75.358 441.936 76.4943 443.385 77.4318C444.834 78.3409 446.439 79.108 448.2 79.733C449.961 80.358 451.737 80.8835 453.527 81.3097L461.709 83.3551C465.004 84.1222 468.172 85.1591 471.211 86.4659C474.28 87.7727 477.021 89.4205 479.436 91.4091C481.879 93.3977 483.811 95.7983 485.231 98.6108C486.652 101.423 487.362 104.719 487.362 108.497C487.362 113.611 486.055 118.114 483.441 122.006C480.828 125.869 477.049 128.895 472.106 131.082C467.191 133.241 461.24 134.321 454.251 134.321C447.461 134.321 441.566 133.27 436.566 131.168C431.595 129.065 427.703 125.997 424.89 121.963C422.106 117.929 420.601 113.014 420.373 107.219H435.927C436.155 110.259 437.092 112.787 438.74 114.804C440.388 116.821 442.532 118.327 445.174 119.321C447.845 120.315 450.828 120.812 454.123 120.812C457.561 120.812 460.572 120.301 463.157 119.278C465.771 118.227 467.816 116.778 469.294 114.932C470.771 113.057 471.524 110.869 471.552 108.369C471.524 106.097 470.856 104.222 469.549 102.744C468.243 101.239 466.41 99.9886 464.052 98.9943C461.723 97.9716 458.995 97.0625 455.87 96.267L445.941 93.7102C438.754 91.8636 433.072 89.0653 428.896 85.3153C424.748 81.5369 422.674 76.5227 422.674 70.2727C422.674 65.1307 424.066 60.6278 426.851 56.7642C429.663 52.9006 433.484 49.9034 438.314 47.7727C443.143 45.6136 448.612 44.5341 454.72 44.5341C460.913 44.5341 466.339 45.6136 470.998 47.7727C475.686 49.9034 479.365 52.8722 482.035 56.679C484.706 60.4574 486.084 64.804 486.169 69.7188H470.956ZM532.893 105.472V67.5455H548.319V133H533.362V121.366H532.68C531.203 125.031 528.774 128.028 525.393 130.358C522.041 132.687 517.908 133.852 512.993 133.852C508.703 133.852 504.91 132.901 501.615 130.997C498.348 129.065 495.791 126.267 493.944 122.602C492.098 118.909 491.175 114.449 491.175 109.222V67.5455H506.601V106.835C506.601 110.983 507.737 114.278 510.01 116.722C512.283 119.165 515.265 120.386 518.959 120.386C521.231 120.386 523.433 119.832 525.564 118.724C527.694 117.616 529.442 115.969 530.805 113.781C532.197 111.565 532.893 108.795 532.893 105.472ZM554.582 157.545V67.5455H569.753V78.3693H570.648C571.443 76.7784 572.565 75.0881 574.014 73.2983C575.463 71.4801 577.423 69.9318 579.895 68.6534C582.366 67.3466 585.52 66.6932 589.355 66.6932C594.412 66.6932 598.972 67.9858 603.034 70.571C607.125 73.1278 610.364 76.9205 612.75 81.9489C615.165 86.9489 616.372 93.0852 616.372 100.358C616.372 107.545 615.193 113.653 612.835 118.682C610.477 123.71 607.267 127.545 603.205 130.188C599.142 132.83 594.54 134.151 589.398 134.151C585.648 134.151 582.537 133.526 580.065 132.276C577.594 131.026 575.605 129.52 574.099 127.759C572.622 125.969 571.472 124.278 570.648 122.688H570.009V157.545H554.582ZM569.71 100.273C569.71 104.506 570.307 108.213 571.5 111.395C572.722 114.577 574.469 117.062 576.741 118.852C579.043 120.614 581.827 121.494 585.094 121.494C588.503 121.494 591.358 120.585 593.659 118.767C595.96 116.92 597.693 114.406 598.858 111.224C600.051 108.014 600.648 104.364 600.648 100.273C600.648 96.2102 600.065 92.6023 598.901 89.4489C597.736 86.2955 596.003 83.8239 593.702 82.0341C591.401 80.2443 588.531 79.3494 585.094 79.3494C581.798 79.3494 579 80.2159 576.699 81.9489C574.398 83.6818 572.651 86.1108 571.457 89.2358C570.293 92.3608 569.71 96.0398 569.71 100.273ZM619.982 157.545V67.5455H635.153V78.3693H636.048C636.843 76.7784 637.965 75.0881 639.414 73.2983C640.863 71.4801 642.823 69.9318 645.295 68.6534C647.767 67.3466 650.92 66.6932 654.755 66.6932C659.812 66.6932 664.372 67.9858 668.434 70.571C672.525 73.1278 675.764 76.9205 678.15 81.9489C680.565 86.9489 681.772 93.0852 681.772 100.358C681.772 107.545 680.593 113.653 678.235 118.682C675.877 123.71 672.667 127.545 668.605 130.188C664.542 132.83 659.94 134.151 654.798 134.151C651.048 134.151 647.937 133.526 645.465 132.276C642.994 131.026 641.005 129.52 639.499 127.759C638.022 125.969 636.872 124.278 636.048 122.688H635.409V157.545H619.982ZM635.11 100.273C635.11 104.506 635.707 108.213 636.9 111.395C638.122 114.577 639.869 117.062 642.142 118.852C644.443 120.614 647.227 121.494 650.494 121.494C653.903 121.494 656.758 120.585 659.059 118.767C661.36 116.92 663.093 114.406 664.258 111.224C665.451 108.014 666.048 104.364 666.048 100.273C666.048 96.2102 665.465 92.6023 664.301 89.4489C663.136 86.2955 661.403 83.8239 659.102 82.0341C656.801 80.2443 653.931 79.3494 650.494 79.3494C647.198 79.3494 644.4 80.2159 642.099 81.9489C639.798 83.6818 638.051 86.1108 636.857 89.2358C635.693 92.3608 635.11 96.0398 635.11 100.273ZM713.934 134.278C707.541 134.278 702.002 132.872 697.314 130.06C692.627 127.247 688.99 123.312 686.405 118.256C683.848 113.199 682.57 107.29 682.57 100.528C682.57 93.767 683.848 87.8437 686.405 82.7585C688.99 77.6733 692.627 73.7244 697.314 70.9119C702.002 68.0994 707.541 66.6932 713.934 66.6932C720.326 66.6932 725.865 68.0994 730.553 70.9119C735.24 73.7244 738.862 77.6733 741.419 82.7585C744.005 87.8437 745.297 93.767 745.297 100.528C745.297 107.29 744.005 113.199 741.419 118.256C738.862 123.312 735.24 127.247 730.553 130.06C725.865 132.872 720.326 134.278 713.934 134.278ZM714.019 121.92C717.485 121.92 720.382 120.969 722.712 119.065C725.041 117.134 726.774 114.548 727.911 111.31C729.076 108.071 729.658 104.463 729.658 100.486C729.658 96.4801 729.076 92.858 727.911 89.6193C726.774 86.3523 725.041 83.7528 722.712 81.821C720.382 79.8892 717.485 78.9233 714.019 78.9233C710.468 78.9233 707.513 79.8892 705.155 81.821C702.826 83.7528 701.078 86.3523 699.914 89.6193C698.777 92.858 698.209 96.4801 698.209 100.486C698.209 104.463 698.777 108.071 699.914 111.31C701.078 114.548 702.826 117.134 705.155 119.065C707.513 120.969 710.468 121.92 714.019 121.92ZM748.79 133V67.5455H763.748V78.4545H764.429C765.623 74.6761 767.668 71.7642 770.566 69.7188C773.492 67.6449 776.83 66.608 780.58 66.608C781.432 66.608 782.384 66.6506 783.435 66.7358C784.515 66.7926 785.41 66.892 786.12 67.0341V81.2244C785.466 80.9972 784.429 80.7983 783.009 80.6278C781.617 80.429 780.267 80.3295 778.961 80.3295C776.148 80.3295 773.62 80.9403 771.375 82.1619C769.16 83.3551 767.412 85.017 766.134 87.1477C764.856 89.2784 764.216 91.7358 764.216 94.5199V133H748.79ZM822.969 67.5455V79.4773H785.341V67.5455H822.969ZM794.631 51.8636H810.057V113.312C810.057 115.386 810.369 116.977 810.994 118.085C811.648 119.165 812.5 119.903 813.551 120.301C814.602 120.699 815.767 120.898 817.045 120.898C818.011 120.898 818.892 120.827 819.687 120.685C820.511 120.543 821.136 120.415 821.562 120.301L824.162 132.361C823.338 132.645 822.159 132.957 820.625 133.298C819.119 133.639 817.273 133.838 815.085 133.895C811.221 134.009 807.741 133.426 804.645 132.148C801.548 130.841 799.091 128.824 797.273 126.097C795.483 123.369 794.602 119.96 794.631 115.869V51.8636Z" fill="#E59725"/>
<path d="M858.842 37.3255H854.849V141.322H858.842V37.3255Z" fill="#606060"/>
<g clip-path="url(#clip0_1030_227)">
<path d="M1412.16 53.0189C1408.38 53.0189 1404.6 53.0189 1400.82 53.0189C1398.73 53.0189 1397.98 53.7759 1397.98 55.8046C1397.98 60.7402 1397.98 65.706 1397.98 70.6415C1397.98 71.459 1398.04 72.2766 1398.19 73.0335C1398.91 76.5156 1401.21 78.3627 1404.6 78.9683C1405.05 79.0591 1405.48 79.1197 1405.93 79.2408C1407.5 79.6344 1407.93 80.1492 1407.77 81.4814C1407.65 82.5715 1407.05 82.9954 1405.39 82.9348C1403.63 82.8743 1401.88 82.7229 1400.12 82.5412C1395.1 82.0265 1390.09 82.2384 1385.07 82.7532C1384.13 82.844 1383.16 82.9348 1382.19 82.9348C1381.32 82.9651 1380.56 82.6321 1380.35 81.6934C1380.14 80.8153 1380.5 80.0886 1381.26 79.6344C1381.8 79.3013 1382.37 78.9683 1382.98 78.726C1385.94 77.424 1387.21 75.032 1387.45 71.9435C1387.48 71.3985 1387.48 70.8232 1387.48 70.2781C1387.48 58.772 1387.48 47.2659 1387.48 35.7598C1387.48 35.0936 1387.45 34.4578 1387.45 33.7916C1387.27 29.4617 1385.28 27.2513 1381.01 26.6154C1380.32 26.5246 1379.62 26.3429 1378.99 26.0704C1378.26 25.7676 1377.9 25.1923 1378.02 24.3748C1378.14 23.5572 1378.59 23.0122 1379.38 22.9819C1380.77 22.9517 1382.19 22.9517 1383.58 23.1333C1388.91 23.7389 1394.23 23.6784 1399.55 23.103C1400.61 22.9819 1401.64 22.8608 1402.69 22.7397C1403.54 22.6489 1404.33 22.8003 1404.66 23.7389C1404.99 24.6776 1404.63 25.4648 1403.63 25.9493C1403 26.2521 1402.33 26.4943 1401.7 26.7971C1399.37 27.8569 1398.07 29.6736 1398.01 32.2171C1397.92 36.8195 1397.92 41.3917 1397.92 45.9942C1397.92 47.3264 1398.61 47.9926 1399.94 48.144C1400.4 48.2045 1400.85 48.2045 1401.3 48.2045C1408.5 48.2045 1415.73 48.2045 1422.92 48.2045C1423.38 48.2045 1423.83 48.2045 1424.28 48.144C1425.58 47.9926 1426.43 47.2962 1426.4 46.0244C1426.37 41.3917 1426.37 36.759 1426.07 32.1263C1425.86 29.0681 1423.44 27.0999 1419.96 26.5852C1419.26 26.4943 1418.57 26.3126 1417.93 26.0704C1417.15 25.7979 1416.63 25.1923 1416.82 24.3142C1416.97 23.4967 1417.51 22.9214 1418.39 22.9214C1419.6 22.8911 1420.81 22.8911 1422.02 23.0425C1428.37 23.8297 1434.66 23.527 1440.98 22.8003C1441.28 22.77 1441.58 22.6791 1441.88 22.6791C1442.7 22.7094 1443.33 23.0728 1443.55 23.9509C1443.73 24.7381 1443.39 25.3437 1442.76 25.7373C1442.34 26.0099 1441.85 26.1915 1441.4 26.3732C1438.31 27.5541 1436.83 29.8553 1436.74 33.0952C1436.71 33.9127 1436.68 34.7 1436.68 35.5175C1436.68 46.9328 1436.65 58.3178 1436.71 69.7331C1436.71 71.3076 1436.95 72.973 1437.41 74.4869C1438.07 76.6973 1439.67 78.1204 1441.97 78.6958C1442.76 78.8774 1443.55 79.0591 1444.3 79.3619C1445.45 79.8161 1445.9 80.6336 1445.66 81.5723C1445.42 82.5412 1444.91 82.9348 1443.61 82.9046C1442.06 82.844 1440.49 82.6926 1438.95 82.5412C1433.87 81.9659 1428.79 82.2384 1423.74 82.7532C1422.89 82.844 1422.05 82.8743 1421.17 82.9046C1420.29 82.9348 1419.57 82.6623 1419.26 81.754C1418.99 80.9364 1419.42 80.028 1420.35 79.483C1420.87 79.1802 1421.41 78.8774 1421.96 78.6352C1425.01 77.3029 1426.34 74.7897 1426.43 71.671C1426.58 66.2813 1426.52 60.8613 1426.49 55.4716C1426.49 53.7154 1425.55 52.9584 1423.62 52.9584C1419.81 52.9887 1415.97 53.0189 1412.16 53.0189Z" fill="#E59725"/>
<path d="M1157.83 53.0189C1154.05 53.0189 1150.27 53.0189 1146.49 53.0189C1144.16 53.0189 1143.44 53.7456 1143.44 56.1074C1143.44 60.7401 1143.44 65.4031 1143.44 70.0359C1143.44 70.7323 1143.44 71.459 1143.56 72.1554C1144.19 76.2431 1146.19 78.2718 1150.27 79.0288C1150.81 79.1196 1151.36 79.2105 1151.9 79.3619C1153.02 79.6949 1153.57 80.4822 1153.42 81.4814C1153.26 82.4504 1152.66 82.9954 1151.45 82.9651C1149.45 82.9045 1147.43 82.6017 1145.43 82.5715C1141.5 82.5109 1137.6 82.5109 1133.67 82.5715C1131.83 82.6017 1129.95 82.8743 1128.11 82.9954C1127.23 83.0559 1126.35 82.9651 1125.99 81.9659C1125.63 80.997 1126.08 80.1189 1127.17 79.483C1127.74 79.1499 1128.29 78.8168 1128.89 78.5746C1131.25 77.5754 1132.4 75.6375 1132.85 73.2455C1133.07 72.1251 1133.16 70.9442 1133.16 69.7936C1133.19 58.7417 1133.19 47.6898 1133.16 36.6379C1133.16 35.245 1133.03 33.8219 1132.88 32.4291C1132.49 29.28 1130.37 27.2816 1126.93 26.7366C1126.32 26.6457 1125.72 26.5852 1125.14 26.4035C1123.87 26.0099 1123.36 25.3134 1123.54 24.3748C1123.72 23.527 1124.66 22.8608 1125.75 22.9214C1126.81 22.9517 1127.86 23.0728 1128.89 23.1939C1134.27 23.8297 1139.63 23.7692 1145.01 23.1939C1146.07 23.0728 1147.1 22.9517 1148.15 22.8608C1149.36 22.7397 1150.03 23.1333 1150.27 24.072C1150.48 24.9198 1150.12 25.6162 1149.12 26.1007C1148.67 26.3126 1148.21 26.4943 1147.73 26.676C1144.92 27.7661 1143.53 29.8856 1143.47 32.853C1143.38 37.1829 1143.41 41.5431 1143.41 45.873C1143.41 47.4476 1144.13 48.1743 1145.7 48.2651C1146.82 48.3257 1147.91 48.2954 1149.03 48.2954C1155.44 48.2954 1161.82 48.2954 1168.23 48.2954C1168.84 48.2954 1169.44 48.2954 1170.05 48.2045C1171.16 48.0531 1171.92 47.4476 1171.92 46.3575C1171.92 41.7551 1172.07 37.1526 1171.71 32.6107C1171.44 29.1589 1169.26 27.3724 1165.78 26.7366C1165.24 26.6457 1164.69 26.5549 1164.15 26.4338C1162.79 26.0704 1162.27 25.4043 1162.49 24.3445C1162.64 23.4967 1163.54 22.8608 1164.69 22.9214C1165.81 22.9819 1166.9 23.0728 1167.99 23.1939C1173.25 23.8297 1178.54 23.7389 1183.8 23.1939C1184.89 23.0728 1186.01 22.9517 1187.1 22.8305C1188.01 22.7397 1188.7 23.0122 1189.04 23.8903C1189.37 24.7684 1189 25.4951 1188.07 26.0099C1187.43 26.3429 1186.77 26.5549 1186.13 26.8577C1183.89 27.978 1182.53 29.7342 1182.41 32.3079C1182.32 34.0641 1182.2 35.8203 1182.2 37.5765C1182.17 48.3862 1182.17 59.1656 1182.2 69.9753C1182.2 71.3682 1182.41 72.7913 1182.78 74.1538C1183.41 76.5762 1185.01 78.1507 1187.46 78.8168C1188.34 79.0591 1189.22 79.271 1190.06 79.6041C1191.09 80.0583 1191.45 80.8153 1191.18 81.8145C1190.94 82.7531 1190.21 83.0862 1189.34 83.0257C1187.83 82.9348 1186.31 82.844 1184.83 82.6926C1179.51 82.087 1174.19 82.3292 1168.87 82.9348C1168.08 83.0257 1167.26 83.0559 1166.45 83.0257C1165.72 82.9954 1165.06 82.7531 1164.81 81.9356C1164.6 81.1181 1164.78 80.3914 1165.48 79.9069C1166.08 79.483 1166.75 79.0894 1167.45 78.7866C1170.38 77.4543 1171.83 75.0925 1171.89 71.9737C1172.01 66.4629 1171.98 60.9824 1171.95 55.4716C1171.95 53.8668 1171.04 53.0795 1169.29 53.0795C1165.48 52.9887 1161.67 53.0189 1157.83 53.0189Z" fill="#E59725"/>
<path d="M1296.71 52.2922C1299.37 55.1688 1300.7 58.7417 1302.55 62.0119C1304.33 65.1609 1305.99 68.4008 1307.72 71.5801C1308.26 72.6096 1308.93 73.5483 1309.56 74.5475C1310.86 76.6368 1312.74 77.5754 1315.19 77.1818C1315.91 77.0607 1316.76 76.7881 1317.15 77.7571C1317.51 78.6957 1317.06 79.4527 1316.4 80.028C1314.49 81.6328 1312.22 82.3898 1309.77 82.6623C1305.48 83.1771 1302.43 81.1484 1299.95 77.9388C1297.32 74.5172 1295.38 70.702 1293.51 66.8566C1292.08 63.9498 1290.57 61.1035 1289.15 58.227C1288 55.956 1286.28 54.6237 1283.68 54.654C1282.32 54.654 1280.99 54.654 1279.63 54.7751C1278.66 54.866 1278.12 55.5018 1278.02 56.5011C1277.99 56.8039 1277.93 57.1066 1277.93 57.4094C1277.96 62.1936 1277.96 67.008 1278.02 71.7921C1278.02 72.6399 1278.21 73.4877 1278.45 74.3053C1279.11 76.6065 1280.56 78.1507 1282.92 78.7866C1283.74 78.9985 1284.56 79.3013 1285.31 79.6647C1286.16 80.0583 1286.34 80.8758 1286.13 81.7237C1285.95 82.6018 1285.28 82.9954 1284.46 82.9348C1282.86 82.844 1281.26 82.6018 1279.66 82.5715C1275.7 82.5109 1271.73 82.5109 1267.74 82.5715C1265.99 82.6018 1264.24 82.844 1262.48 82.9651C1261.61 83.0257 1260.73 82.8743 1260.4 81.8448C1260.09 80.9667 1260.55 80.0886 1261.58 79.483C1262.15 79.1499 1262.72 78.8471 1263.33 78.5746C1266.08 77.3332 1267.2 75.0622 1267.47 72.216C1267.53 71.5196 1267.56 70.7929 1267.56 70.0964C1267.56 58.8023 1267.56 47.4778 1267.56 36.1837C1267.56 35.1845 1267.53 34.155 1267.47 33.1558C1267.26 29.492 1265.45 27.4027 1261.88 26.6457C1261.33 26.5246 1260.79 26.4338 1260.24 26.2824C1259.31 26.0099 1258.76 25.4043 1258.82 24.4051C1258.88 23.5572 1259.58 22.9819 1260.67 22.9819C1261.67 22.9516 1262.66 23.103 1263.69 23.1333C1267.17 23.2847 1270.62 23.5572 1274.09 23.4967C1278.02 23.4058 1281.93 22.9214 1285.83 22.77C1290.12 22.5883 1294.38 22.9819 1298.4 24.6776C1305.33 27.5844 1307.81 33.6402 1307.23 40.3017C1306.78 45.6611 1303.73 49.1432 1298.98 51.3233C1298.62 51.505 1298.25 51.6564 1297.86 51.8078C1297.5 51.9592 1297.13 52.1106 1296.71 52.2922ZM1278.24 39.4236C1278.18 39.4236 1278.08 39.4236 1278.02 39.4236C1278.02 41.1798 1277.99 42.9662 1278.02 44.7224C1278.05 45.9639 1278.15 47.2356 1278.27 48.4771C1278.39 49.6579 1279.17 50.2938 1280.26 50.4452C1284.04 50.9902 1287.79 50.96 1291.45 49.8093C1294.29 48.9312 1296.08 46.9328 1296.5 43.9654C1296.74 42.3001 1296.89 40.5439 1296.77 38.8483C1296.2 30.9757 1291.09 26.3126 1282.95 26.3429C1279.78 26.3732 1278.54 27.433 1278.27 30.6426C1278.05 33.5797 1278.24 36.5168 1278.24 39.4236Z" fill="#E59725"/>
<path d="M1200.65 44.8435C1200.65 40.8164 1200.71 36.759 1200.65 32.7319C1200.59 29.0983 1199.44 27.6752 1195.93 26.7063C1195.05 26.4641 1194.15 26.3429 1193.3 26.1007C1192.18 25.7979 1191.76 25.2529 1191.91 24.3142C1192.06 23.315 1192.78 22.9819 1193.66 23.0122C1195.57 23.1031 1197.47 23.2242 1199.38 23.4059C1203.46 23.7995 1207.51 23.5875 1211.56 23.1636C1212.77 23.0425 1213.95 22.8911 1215.16 22.7397C1215.4 22.7094 1215.67 22.6791 1215.92 22.7397C1216.76 22.8911 1217.7 22.9819 1217.82 24.1023C1217.91 25.1318 1217.19 25.6162 1216.34 25.9493C1216.1 26.0401 1215.86 26.1007 1215.61 26.1915C1212.62 27.1302 1211.44 28.5836 1211.23 31.7629C1211.08 34.2155 1210.93 36.6984 1210.93 39.1511C1210.9 46.2061 1210.87 53.2915 1210.99 60.3465C1211.02 62.5569 1211.29 64.7976 1211.8 66.9171C1213.71 74.5778 1220.66 79.3013 1229.16 78.3021C1232.85 77.8782 1236.18 76.6065 1238.96 74.063C1242.01 71.2773 1243.61 67.7044 1244.1 63.7378C1244.55 60.1043 1244.73 56.4102 1244.82 52.7464C1244.91 47.1448 1244.85 41.5431 1244.76 35.9415C1244.73 34.3064 1244.49 32.641 1244.16 31.0059C1243.73 28.9772 1242.4 27.6449 1240.38 27.0999C1239.32 26.8274 1238.23 26.5852 1237.17 26.3127C1236.6 26.1613 1235.93 26.0401 1235.51 25.6768C1235.09 25.3134 1234.66 24.6473 1234.63 24.1023C1234.6 23.3756 1235.27 22.9819 1235.99 22.9819C1237.26 22.9819 1238.5 23.0425 1239.77 23.1031C1242.37 23.2545 1244.97 23.527 1247.61 23.527C1249.39 23.527 1251.2 23.1031 1252.99 22.8911C1253.29 22.8608 1253.59 22.8305 1253.86 22.8608C1254.56 22.9214 1255.32 23.1333 1255.29 23.9206C1255.26 24.4959 1254.86 25.1015 1254.5 25.586C1254.29 25.8585 1253.8 26.0099 1253.44 26.1007C1250.81 26.7063 1249.75 28.523 1249.63 31.0362C1249.51 33.3374 1249.36 35.6689 1249.33 37.9702C1249.27 43.9655 1249.39 49.991 1249.24 55.9863C1249.09 61.3457 1248.21 66.6143 1245.82 71.4893C1242.46 78.3324 1236.81 82.0265 1229.46 83.1771C1225.17 83.8432 1220.84 83.8129 1216.55 82.9651C1209.08 81.4511 1204.52 76.879 1202.46 69.6422C1201.28 65.494 1200.86 61.2246 1200.77 56.9552C1200.68 52.9281 1200.74 48.8707 1200.74 44.8435C1200.71 44.8435 1200.68 44.8435 1200.65 44.8435Z" fill="#E59725"/>
<path d="M1065.21 54.6237C1065.45 46.3575 1067.78 38.9088 1072.98 32.4593C1078.12 26.1007 1084.78 22.558 1092.97 22.013C1099.32 21.5891 1105.22 23.1636 1110.9 25.8585C1111.23 26.0099 1111.54 26.1613 1111.84 26.3127C1114.02 27.3421 1114.11 27.3119 1115.5 25.374C1115.8 24.9501 1116.52 24.4353 1116.89 24.5565C1117.37 24.7079 1117.83 25.374 1118.04 25.919C1118.28 26.464 1118.22 27.0999 1118.28 27.7055C1118.67 32.2171 1119.03 36.7287 1119.43 41.2706C1119.43 41.422 1119.49 41.5734 1119.49 41.7248C1119.58 42.5121 1119.58 43.2993 1118.73 43.6627C1117.83 44.026 1117.28 43.3901 1116.89 42.7543C1116.16 41.6037 1115.56 40.3925 1114.89 39.2116C1111.81 33.7008 1107.57 29.492 1101.71 27.0696C1098.44 25.7071 1095.06 25.1318 1091.52 25.586C1086.89 26.1915 1083.41 28.6744 1080.69 32.3685C1078.09 35.9112 1076.73 39.9383 1076.13 44.238C1075.19 51.2022 1076.07 57.9242 1079.09 64.2828C1080.87 68.0072 1083.23 71.3379 1086.56 73.8511C1092.37 78.2718 1098.78 78.6352 1105.43 76.1826C1109.93 74.5172 1113.65 71.7618 1116.71 68.0677C1117.16 67.5227 1117.67 67.008 1118.25 66.6749C1118.61 66.4629 1119.34 66.3721 1119.61 66.584C1119.94 66.8566 1120.18 67.553 1120.12 68.0072C1120.03 68.6733 1119.73 69.3697 1119.34 69.945C1114.62 76.8487 1108.39 81.6026 1100.11 83.2679C1093.67 84.5699 1087.25 84.358 1081.18 81.5723C1072.83 77.7571 1067.99 71.0654 1066.12 62.1936C1065.6 59.6501 1065.51 57.1369 1065.21 54.6237Z" fill="#E59725"/>
<path d="M1330.24 48.4771C1330.31 57.0764 1332.42 64.1314 1337.35 70.1873C1343.19 77.3332 1351.38 79.4527 1360 76.0917C1364.23 74.4264 1367.92 71.9435 1370.82 68.3705C1371.37 67.7044 1371.97 67.0988 1372.7 66.6446C1373.06 66.4024 1373.85 66.3721 1374.18 66.5841C1374.51 66.8263 1374.69 67.5833 1374.57 68.0375C1374.39 68.7944 1374.06 69.5817 1373.61 70.2176C1368.37 77.5754 1361.51 82.3595 1352.41 83.5707C1346.24 84.3883 1340.22 83.9038 1334.63 81.0273C1327.34 77.2726 1322.75 71.3076 1320.9 63.3745C1318.33 52.3831 1320.21 42.1184 1327.04 33.0346C1332.12 26.2824 1338.98 22.5883 1347.48 22.013C1353.8 21.5891 1359.64 23.1939 1365.26 25.7979C1365.89 26.1007 1366.53 26.4338 1367.16 26.7063C1368.47 27.2513 1368.95 27.0999 1369.64 25.919C1369.67 25.8887 1369.67 25.8282 1369.7 25.7979C1370.1 25.162 1370.4 24.3445 1371.37 24.5262C1372.37 24.7079 1372.55 25.586 1372.64 26.3732C1373.09 31.3996 1373.48 36.3956 1373.88 41.422C1373.94 42.2093 1374.27 43.269 1373.18 43.6627C1372.06 44.026 1371.55 43.0874 1371.1 42.3304C1370.28 40.9981 1369.61 39.575 1368.8 38.2427C1365.26 32.3382 1360.39 28.0991 1353.71 26.1915C1347.15 24.3445 1341.22 25.4346 1336.47 30.6729C1333.09 34.3972 1331.33 38.9391 1330.64 43.8746C1330.4 45.6611 1330.34 47.4778 1330.24 48.4771Z" fill="#E59725"/>
<path d="M1508.83 82.9046C1504.75 82.6926 1500.39 82.3293 1496.01 82.3293C1491.59 82.3293 1487.15 82.6623 1482.73 82.844C1481.98 82.8743 1481.22 82.9651 1480.47 82.9348C1479.74 82.9046 1479.01 82.7229 1478.8 81.9053C1478.56 80.997 1478.74 80.1794 1479.59 79.6647C1480.01 79.3922 1480.47 79.1197 1480.92 78.9683C1484.58 77.636 1485.82 74.7594 1486.03 71.1865C1486.06 70.8231 1486.06 70.4901 1486.06 70.1267C1486.06 58.9234 1486.06 47.7201 1486.06 36.5168C1486.06 35.1239 1485.94 33.7008 1485.73 32.3079C1485.27 29.1892 1483.13 27.2513 1479.68 26.676C1478.95 26.5549 1478.2 26.3732 1477.5 26.131C1476.78 25.8887 1476.32 25.3437 1476.41 24.5262C1476.5 23.6784 1477.02 23.0728 1477.87 23.0425C1479.17 23.0122 1480.47 23.0425 1481.77 23.1636C1487.15 23.7692 1492.5 23.7389 1497.88 23.1636C1498.97 23.0425 1500.09 22.8911 1501.18 22.8003C1502.03 22.7397 1502.78 22.9214 1503.05 23.9206C1503.33 24.8895 1503.05 25.4951 1502.09 26.0099C1501.72 26.1915 1501.36 26.3429 1500.97 26.4943C1497.97 27.6752 1496.4 29.825 1496.34 33.0649C1496.31 34.4275 1496.25 35.7901 1496.25 37.1526C1496.25 47.9018 1496.22 58.6509 1496.25 69.4C1496.25 71.2168 1496.37 73.0335 1496.64 74.82C1496.95 76.8487 1497.73 77.5149 1499.82 77.8782C1503.9 78.6049 1507.83 77.9085 1511.7 76.6368C1515.75 75.3045 1519.05 72.973 1521.23 69.1578C1521.56 68.5825 1521.95 68.0677 1522.44 67.6135C1523.13 66.9474 1523.86 67.1291 1524.22 68.0072C1524.37 68.4008 1524.49 68.8853 1524.43 69.3395C1523.92 73.1546 1522.74 76.7276 1520.05 79.5738C1517.84 81.9053 1514.94 82.6926 1511.88 82.9651C1510.95 82.9651 1510.01 82.9046 1508.83 82.9046Z" fill="#E59725"/>
<path d="M1557.18 82.9046C1552.79 82.6926 1548.44 82.3292 1544.06 82.299C1539.73 82.2687 1535.41 82.632 1531.08 82.8137C1530.27 82.844 1529.48 82.9348 1528.66 82.9348C1527.85 82.9348 1527.15 82.6018 1526.91 81.7539C1526.7 80.9061 1526.97 80.1491 1527.73 79.6647C1528.27 79.3316 1528.85 78.9985 1529.45 78.7563C1532.6 77.4846 1533.87 74.9714 1534.11 71.7618C1534.14 71.247 1534.14 70.7626 1534.14 70.2478C1534.14 58.8023 1534.14 47.3264 1534.14 35.8809C1534.14 34.8211 1534.14 33.7613 1533.96 32.7016C1533.32 28.9772 1531.42 27.1605 1527.7 26.5852C1527.09 26.4943 1526.49 26.4035 1525.94 26.1915C1524.88 25.7979 1524.43 25.1318 1524.58 24.2839C1524.73 23.4058 1525.52 22.77 1526.58 22.77C1527.7 22.8003 1528.79 22.8911 1529.87 23.0425C1535.29 23.6784 1540.73 23.6178 1546.14 23.0425C1547.2 22.9214 1548.23 22.77 1549.29 22.6791C1550.16 22.6186 1550.89 22.8608 1551.22 23.7692C1551.52 24.617 1551.16 25.374 1550.22 25.8887C1549.95 26.0401 1549.68 26.1613 1549.41 26.2521C1546.11 27.4027 1544.51 29.7645 1544.42 33.2163C1544.42 33.8825 1544.39 34.5183 1544.39 35.1845C1544.39 47.0539 1544.39 58.8931 1544.39 70.7626C1544.39 72.004 1544.51 73.2758 1544.69 74.5172C1544.99 76.5762 1545.87 77.3937 1547.9 77.7571C1551.83 78.4232 1555.61 77.8479 1559.33 76.6368C1562.29 75.6981 1565.04 74.3053 1567.13 71.9435C1568.06 70.8837 1568.76 69.6423 1569.61 68.5219C1570.09 67.8558 1570.51 66.8566 1571.54 67.1594C1572.66 67.4924 1572.6 68.5522 1572.45 69.4606C1571.78 73.5785 1570.54 77.424 1567.22 80.2097C1564.92 82.1476 1562.11 82.6926 1559.17 82.844C1558.57 82.9651 1557.87 82.9348 1557.18 82.9046C1557.18 82.9348 1557.18 82.9348 1557.18 82.9046Z" fill="#E59725"/>
<path d="M1473.15 82.8743C1470.03 82.6926 1466.92 82.3293 1463.8 82.3293C1460.3 82.3293 1456.76 82.632 1453.25 82.7834C1452.28 82.844 1451.35 82.9348 1450.38 82.9046C1449.65 82.8743 1448.99 82.5715 1448.84 81.7237C1448.72 80.9364 1448.81 80.1794 1449.59 79.7555C1450.44 79.3013 1451.26 78.8169 1452.16 78.4535C1454.49 77.5754 1455.4 75.6678 1455.79 73.4574C1456 72.1857 1456.12 70.8534 1456.12 69.5514C1456.12 58.0453 1456.12 46.5392 1456.09 35.0331C1456.09 33.8825 1456 32.7016 1455.79 31.5812C1455.43 29.6131 1454.4 28.0991 1452.44 27.4633C1451.1 27.0394 1449.71 26.7366 1448.35 26.4338C1446.87 26.0704 1446.33 25.4951 1446.48 24.3748C1446.63 23.3453 1447.57 22.7094 1448.9 22.8911C1454.01 23.6178 1459.15 23.4361 1464.29 23.2847C1466.56 23.2242 1468.79 22.9214 1471.06 22.8003C1471.67 22.77 1472.39 22.9517 1472.88 23.2847C1473.63 23.8298 1473.48 25.0409 1472.63 25.6162C1472.18 25.919 1471.67 26.1915 1471.12 26.3127C1467.86 27.0394 1466.71 29.3709 1466.47 32.3988C1466.37 33.5494 1466.34 34.7303 1466.34 35.8809C1466.34 47.1448 1466.31 58.3784 1466.34 69.6423C1466.34 71.0351 1466.47 72.4582 1466.77 73.8511C1467.37 76.5762 1469.07 78.2718 1471.85 78.7563C1472.85 78.938 1473.81 79.1197 1474.78 79.3922C1475.99 79.7253 1476.47 80.4519 1476.32 81.4512C1476.17 82.3898 1475.54 82.9046 1474.36 82.9954C1473.96 83.0257 1473.54 82.9954 1473.15 82.9954C1473.15 82.9046 1473.15 82.9046 1473.15 82.8743Z" fill="#E59725"/>
<path d="M1148.76 129.474C1147.13 129.474 1145.52 129.535 1143.95 129.413C1143.56 129.383 1143.1 128.808 1142.83 128.354C1139.93 123.691 1137.06 119.028 1134.15 114.365C1133.91 114.001 1133.67 113.638 1133.16 113.335C1133.16 118.634 1133.16 123.933 1133.16 129.353C1131.4 129.353 1129.83 129.353 1128.17 129.353C1128.17 120.693 1128.17 112.063 1128.17 103.252C1129.71 103.252 1131.22 103.192 1132.7 103.283C1133.07 103.313 1133.52 103.767 1133.76 104.161C1136.75 109.005 1139.72 113.85 1142.71 118.725C1142.98 119.179 1143.29 119.633 1143.8 120.027C1143.8 114.516 1143.8 109.005 1143.8 103.373C1145.49 103.373 1147.1 103.373 1148.79 103.373C1148.76 111.973 1148.76 120.602 1148.76 129.474Z" fill="#606061"/>
<path d="M1189.52 120.875C1191.21 120.723 1192.81 120.572 1194.48 120.421C1194.69 121.026 1194.84 121.541 1195.05 122.056C1196.38 125.477 1201.67 126.628 1204.34 124.084C1205.91 122.57 1205.57 120.239 1203.52 119.421C1202.04 118.816 1200.43 118.513 1198.89 118.059C1197.5 117.635 1196.08 117.241 1194.75 116.696C1191.88 115.455 1190.21 112.911 1190.37 109.914C1190.52 106.825 1192.15 104.675 1195.02 103.646C1198.5 102.435 1202.07 102.435 1205.48 103.858C1208.39 105.069 1209.66 107.461 1209.96 110.701C1208.21 110.822 1206.48 110.943 1204.79 111.064C1204.67 110.822 1204.58 110.701 1204.55 110.58C1204.06 108.46 1202.7 107.34 1200.62 107.31C1199.41 107.279 1198.14 107.522 1196.96 107.855C1196.14 108.097 1195.48 108.733 1195.51 109.762C1195.51 110.761 1196.05 111.397 1196.9 111.7C1198.11 112.154 1199.35 112.548 1200.62 112.942C1202.16 113.426 1203.73 113.759 1205.24 114.304C1209.23 115.758 1210.84 118.21 1210.65 122.358C1210.53 125.719 1208.27 128.414 1204.61 129.383C1201.58 130.17 1198.53 130.17 1195.54 129.232C1191.97 128.142 1189.55 124.781 1189.52 120.875Z" fill="#606061"/>
<path d="M1536.89 129.262C1536.89 120.602 1536.89 112.033 1536.89 103.373C1543.24 103.373 1549.62 103.373 1556.09 103.373C1556.09 104.766 1556.09 106.189 1556.09 107.764C1551.46 107.764 1546.87 107.764 1542.18 107.764C1542.18 109.702 1542.18 111.488 1542.18 113.487C1546.53 113.487 1550.83 113.487 1555.18 113.487C1555.18 115.031 1555.18 116.363 1555.18 117.847C1550.86 117.847 1546.6 117.847 1542.21 117.847C1542.21 120.299 1542.21 122.57 1542.21 124.993C1547.02 124.993 1551.71 124.993 1556.51 124.993C1556.51 126.476 1556.51 127.809 1556.51 129.262C1549.98 129.262 1543.51 129.262 1536.89 129.262Z" fill="#606061"/>
<path d="M1415.18 103.313C1417.18 103.313 1418.87 103.313 1420.72 103.313C1420.72 103.918 1420.72 104.463 1420.72 105.008C1420.72 110.156 1420.75 115.303 1420.75 120.451C1420.75 122.358 1421.38 123.963 1423.23 124.781C1425.25 125.689 1427.37 125.719 1429.27 124.417C1430.45 123.63 1430.79 122.328 1430.79 120.966C1430.82 115.667 1430.85 110.368 1430.88 105.069C1430.88 104.524 1430.88 103.979 1430.88 103.343C1432.69 103.343 1434.35 103.343 1436.05 103.343C1436.05 109.641 1436.35 115.879 1435.96 122.086C1435.62 127.294 1432.33 129.837 1427.04 129.868C1425.43 129.868 1423.8 129.807 1422.23 129.565C1418.45 128.959 1415.82 126.204 1415.67 122.358C1415.36 116.06 1415.33 109.762 1415.18 103.313Z" fill="#606061"/>
<path d="M1476.29 103.313C1483.19 103.313 1489.99 103.313 1496.88 103.313C1496.88 104.766 1496.88 106.159 1496.88 107.703C1494.44 107.703 1491.99 107.703 1489.39 107.703C1489.39 114.97 1489.39 122.086 1489.39 129.353C1487.54 129.353 1485.85 129.353 1484 129.353C1484 122.237 1484 115.091 1484 107.824C1481.37 107.824 1478.86 107.824 1476.29 107.824C1476.29 106.25 1476.29 104.827 1476.29 103.313Z" fill="#606061"/>
<path d="M953.846 140.011C953.846 145.492 953.846 151.003 953.846 156.725C953.302 156.453 952.848 156.271 952.455 156.029C935.492 146.218 918.559 136.438 901.596 126.628C896.788 123.842 892.01 121.056 887.202 118.331C886.356 117.847 886.023 117.332 886.023 116.333C886.053 91.1103 886.053 65.8574 886.023 40.6347C886.023 39.6355 886.356 39.1208 887.202 38.6363C909.034 26.0401 930.866 13.4137 952.697 0.756966C953.423 0.333057 953.967 0.302778 954.723 0.756966C974.922 12.475 995.151 24.1628 1015.38 35.8506C1017.07 36.8196 1018.77 37.8188 1020.49 38.7877C1021.06 39.1208 1021.4 39.4538 1021.4 40.1806C1021.37 47.0539 1021.37 53.8971 1021.37 60.7704C1021.37 60.9218 1021.31 61.043 1021.25 61.2852C1016.5 61.2852 1011.75 61.2852 1006.82 61.2852C1006.82 60.3465 1006.82 59.4684 1006.82 58.5601C1006.82 55.4413 1006.79 52.2923 1006.85 49.1735C1006.88 48.144 1006.55 47.5687 1005.64 47.0539C994.244 40.5136 982.874 33.9127 971.505 27.3421C965.972 24.1325 960.438 20.9532 954.905 17.7133C954.058 17.1986 953.453 17.1986 952.576 17.7133C935.643 27.5541 918.68 37.3343 901.717 47.1145C900.93 47.5687 900.598 48.0834 900.598 48.9918C900.628 68.6128 900.628 88.264 900.598 107.885C900.598 108.914 900.991 109.369 901.807 109.853C919.043 119.785 936.248 129.747 953.453 139.678C953.574 139.799 953.695 139.92 953.846 140.011Z" fill="#E59725"/>
<path d="M1006.82 109.187C1006.82 102.556 1006.82 95.9246 1006.82 89.2027C1011.66 89.2027 1016.38 89.2027 1021.22 89.2027C1021.25 89.6568 1021.31 90.0807 1021.31 90.5047C1021.31 99.1342 1021.31 107.764 1021.34 116.393C1021.34 117.302 1021.09 117.847 1020.28 118.301C1002.83 128.354 985.414 138.437 967.997 148.489C967.483 148.792 966.969 149.034 966.334 149.398C966.274 148.974 966.244 148.732 966.244 148.489C966.244 143.554 966.274 138.588 966.213 133.653C966.213 132.653 966.758 132.351 967.423 131.957C975.496 127.294 983.54 122.631 991.613 117.998C996.632 115.091 1001.68 112.154 1006.82 109.187Z" fill="#606061"/>
<path d="M1021.28 71.4287C1021.28 76.2129 1021.28 80.8456 1021.28 85.5692C1016.5 85.5692 1011.75 85.5692 1006.91 85.5692C1006.91 80.9061 1006.91 76.1826 1006.91 71.4287C1011.69 71.4287 1016.41 71.4287 1021.28 71.4287Z" fill="#606061"/>
<path d="M1262.66 129.292C1260.82 129.292 1259.19 129.292 1257.4 129.292C1257.4 122.116 1257.4 115.031 1257.4 107.794C1254.74 107.794 1252.26 107.794 1249.69 107.794C1249.69 106.25 1249.69 104.857 1249.69 103.343C1256.53 103.343 1263.39 103.343 1270.31 103.343C1270.31 104.766 1270.31 106.159 1270.31 107.673C1267.8 107.673 1265.32 107.673 1262.63 107.673C1262.66 114.97 1262.66 122.086 1262.66 129.292Z" fill="#606061"/>
<path d="M1354.95 103.313C1361.87 103.313 1368.65 103.313 1375.54 103.313C1375.54 104.766 1375.54 106.129 1375.54 107.734C1373.06 107.734 1370.52 107.734 1367.86 107.734C1367.86 115.031 1367.86 122.116 1367.86 129.292C1366.08 129.292 1364.44 129.292 1362.66 129.292C1362.66 122.146 1362.66 115.091 1362.66 107.855C1360.03 107.855 1357.52 107.855 1354.98 107.855C1354.95 106.22 1354.95 104.736 1354.95 103.313Z" fill="#606061"/>
<path d="M1081.3 103.283C1083.11 103.283 1084.75 103.283 1086.5 103.283C1086.5 111.973 1086.5 120.602 1086.5 129.353C1084.81 129.353 1083.08 129.353 1081.3 129.353C1081.3 120.633 1081.3 112.033 1081.3 103.283Z" fill="#606061"/>
<path d="M1315.13 129.292C1313.46 129.292 1311.86 129.292 1310.17 129.292C1310.17 120.663 1310.17 112.063 1310.17 103.343C1311.74 103.343 1313.37 103.343 1315.13 103.343C1315.13 111.973 1315.13 120.602 1315.13 129.292Z" fill="#606061"/>
<path d="M1320.51 166.445C1319.51 166.445 1318.6 166.445 1317.61 166.445C1317.61 162.781 1317.61 159.148 1317.61 155.393C1316.64 155.332 1315.76 155.302 1314.85 155.272C1314.76 154.666 1314.7 154.152 1314.61 153.637C1314.55 153.637 1314.46 153.607 1314.4 153.607C1312.68 157.876 1310.98 162.176 1309.26 166.475C1308.23 166.475 1307.23 166.475 1306.05 166.475C1304.33 162.085 1302.55 157.603 1300.76 153.031C1301.88 153.031 1302.91 153.031 1304.06 153.031C1305.24 156.301 1306.45 159.572 1307.78 163.205C1309.11 159.602 1310.29 156.332 1311.5 153.031C1314.52 153.031 1317.48 153.031 1320.54 153.031C1320.51 157.452 1320.51 161.903 1320.51 166.445Z" fill="#606061"/>
<path d="M1116.77 166.324C1118.16 167.777 1119.4 166.93 1120.82 166.203C1121.15 166.778 1121.48 167.384 1121.79 167.959C1119.64 170.26 1116.28 170.139 1114.38 167.686C1113.92 167.111 1113.5 166.687 1112.71 166.596C1108.78 166.112 1105.76 162.781 1106.7 158.088C1107.45 154.242 1111.69 151.941 1115.8 152.971C1118.52 153.637 1120.64 155.847 1121.06 158.421C1121.54 161.419 1120.37 164.053 1117.79 165.658C1117.46 165.87 1117.13 166.082 1116.77 166.324ZM1118.04 159.662C1118.01 157.361 1116.04 155.393 1113.8 155.423C1111.54 155.454 1109.63 157.422 1109.63 159.723C1109.63 162.085 1111.69 164.114 1113.95 164.053C1116.22 163.962 1118.07 161.964 1118.04 159.662Z" fill="#606061"/>
<path d="M1255.2 166.415C1255.04 166.445 1254.98 166.475 1254.95 166.475C1253.26 166.808 1252.05 166.233 1251.05 164.749C1249.57 162.539 1247.88 160.48 1246.27 158.36C1246.15 158.391 1246.03 158.391 1245.91 158.421C1245.91 159.723 1245.91 161.025 1245.91 162.327C1245.91 163.629 1245.91 164.931 1245.91 166.384C1244.94 166.384 1244.04 166.384 1243.04 166.384C1243.04 161.964 1243.04 157.543 1243.04 153.122C1245.25 152.547 1245.55 152.668 1246.82 154.333C1248.57 156.665 1250.3 158.996 1252.29 161.237C1252.29 158.512 1252.29 155.787 1252.29 152.971C1253.32 152.971 1254.2 152.971 1255.2 152.971C1255.2 157.452 1255.2 161.903 1255.2 166.415Z" fill="#606061"/>
<path d="M1447.02 159.602C1447.05 155.666 1450.2 152.729 1454.31 152.729C1458.57 152.729 1461.66 155.787 1461.6 159.905C1461.54 163.78 1458.36 166.748 1454.25 166.718C1450.08 166.687 1446.99 163.629 1447.02 159.602ZM1458.51 159.723C1458.54 157.422 1456.61 155.423 1454.37 155.393C1452.1 155.363 1450.14 157.301 1450.11 159.602C1450.08 161.964 1452.04 164.023 1454.34 163.992C1456.61 164.023 1458.48 162.055 1458.51 159.723Z" fill="#606061"/>
<path d="M1417.45 162.751C1417.45 163.932 1417.45 165.113 1417.45 166.415C1416.42 166.415 1415.49 166.415 1414.49 166.415C1414.49 161.964 1414.49 157.513 1414.49 152.971C1416.88 152.971 1419.23 152.85 1421.56 153.001C1423.53 153.152 1425.1 154.121 1425.74 156.18C1426.34 158.239 1425.68 160.268 1423.92 161.691C1423.77 161.812 1423.62 161.964 1423.44 162.115C1424.34 163.538 1425.19 164.931 1426.19 166.506C1425.1 166.506 1424.22 166.536 1423.32 166.475C1423.01 166.445 1422.68 166.233 1422.5 165.991C1422.17 165.567 1421.93 165.052 1421.65 164.568C1420.41 162.297 1420.41 162.266 1417.45 162.751ZM1417.51 155.333C1417.51 157.028 1417.51 158.542 1417.51 160.177C1418.6 160.177 1419.6 160.238 1420.6 160.177C1422.23 160.056 1422.98 159.208 1422.95 157.634C1422.92 156.211 1422.14 155.423 1420.53 155.333C1419.57 155.272 1418.63 155.333 1417.51 155.333Z" fill="#606061"/>
<path d="M1297.32 162.085C1298.25 163.568 1299.13 164.961 1300.04 166.415C1299.8 166.475 1299.7 166.536 1299.61 166.536C1296.68 166.657 1296.68 166.657 1295.29 164.023C1295.05 163.568 1294.81 163.145 1294.53 162.66C1293.54 162.66 1292.54 162.66 1291.39 162.66C1291.39 163.902 1291.39 165.143 1291.39 166.445C1290.3 166.445 1289.39 166.445 1288.4 166.445C1288.4 161.964 1288.4 157.543 1288.4 153.122C1290.97 153.122 1293.57 152.971 1296.14 153.183C1297.98 153.334 1299.31 154.515 1299.67 156.392C1300.04 158.36 1299.8 160.238 1298.01 161.54C1297.83 161.691 1297.62 161.843 1297.32 162.085ZM1291.39 160.117C1292.66 160.117 1293.78 160.207 1294.87 160.086C1296.26 159.935 1296.86 159.087 1296.86 157.694C1296.86 156.362 1296.29 155.575 1294.96 155.393C1293.81 155.242 1292.6 155.363 1291.39 155.363C1291.39 157.028 1291.39 158.512 1291.39 160.117Z" fill="#606061"/>
<path d="M1346.66 159.632C1346.69 159.239 1346.69 158.815 1346.72 158.421C1347.12 154.273 1350.14 152.062 1354.19 152.91C1356.13 153.334 1357.43 154.485 1358.09 156.332C1358.88 158.542 1358.85 160.783 1358.06 162.993C1357.25 165.294 1355.4 166.506 1352.83 166.536C1350.11 166.566 1348.18 165.446 1347.33 163.175C1346.91 162.055 1346.79 160.843 1346.51 159.662C1346.57 159.632 1346.6 159.632 1346.66 159.632ZM1355.55 159.693C1355.4 158.815 1355.34 157.846 1355.07 156.937C1354.74 155.817 1353.62 155.09 1352.53 155.121C1351.47 155.151 1350.56 155.817 1350.17 156.937C1349.57 158.694 1349.6 160.51 1350.14 162.266C1350.5 163.478 1351.44 164.114 1352.62 164.114C1353.8 164.114 1354.74 163.478 1355.07 162.266C1355.34 161.449 1355.4 160.601 1355.55 159.693Z" fill="#606061"/>
<path d="M1480.07 159.632C1480.07 159.238 1480.04 158.815 1480.07 158.421C1480.44 154.273 1483.46 152.032 1487.51 152.91C1489.51 153.334 1490.84 154.515 1491.47 156.453C1492.17 158.572 1492.17 160.722 1491.47 162.842C1490.72 165.173 1488.87 166.475 1486.33 166.536C1483.46 166.627 1481.46 165.476 1480.62 163.054C1480.22 161.994 1480.1 160.813 1479.86 159.693C1479.92 159.662 1480.01 159.662 1480.07 159.632ZM1488.9 159.662C1488.75 158.754 1488.69 157.785 1488.42 156.877C1488.09 155.756 1487.15 155.211 1486 155.121C1485 155.03 1484 155.696 1483.64 156.665C1482.95 158.572 1482.91 160.51 1483.58 162.418C1483.97 163.538 1484.91 164.113 1486.03 164.083C1487.15 164.083 1488.06 163.478 1488.42 162.327C1488.66 161.509 1488.75 160.601 1488.9 159.662Z" fill="#606061"/>
<path d="M1505.71 159.602C1505.74 159.208 1505.74 158.784 1505.77 158.391C1506.17 154.242 1509.19 152.032 1513.24 152.91C1515.12 153.304 1516.42 154.394 1517.08 156.18C1517.93 158.421 1517.9 160.722 1517.11 162.993C1516.3 165.294 1514.45 166.506 1511.85 166.536C1509.13 166.566 1507.2 165.446 1506.35 163.145C1505.93 162.024 1505.8 160.813 1505.53 159.632C1505.62 159.632 1505.65 159.632 1505.71 159.602ZM1514.6 159.693C1514.45 158.815 1514.39 157.846 1514.12 156.937C1513.79 155.817 1512.67 155.09 1511.61 155.121C1510.55 155.151 1509.65 155.817 1509.25 156.937C1508.65 158.694 1508.68 160.51 1509.22 162.266C1509.58 163.478 1510.52 164.114 1511.7 164.114C1512.88 164.114 1513.82 163.478 1514.15 162.266C1514.39 161.479 1514.45 160.601 1514.6 159.693Z" fill="#606061"/>
<path d="M1212.44 152.093C1213.47 152.093 1214.34 152.093 1215.34 152.093C1215.34 156.877 1215.34 161.631 1215.34 166.445C1214.43 166.445 1213.56 166.445 1212.56 166.445C1212.5 166.112 1212.44 165.749 1212.38 165.385C1209.6 167.02 1207.18 166.869 1205.51 164.992C1203.88 163.145 1203.79 159.663 1205.33 157.664C1206.81 155.726 1209.2 155.514 1212.5 157.119C1212.5 156.211 1212.5 155.393 1212.5 154.545C1212.44 153.728 1212.44 152.941 1212.44 152.093ZM1212.44 161.176C1212.44 159.511 1211.29 158.3 1209.78 158.33C1208.24 158.36 1207.18 159.572 1207.21 161.267C1207.24 162.933 1208.33 164.144 1209.87 164.114C1211.38 164.083 1212.47 162.872 1212.44 161.176Z" fill="#606061"/>
<path d="M1133.64 154.303C1133.25 155.181 1132.91 155.968 1132.55 156.816C1131.7 156.483 1130.95 156.09 1130.16 155.878C1129.41 155.666 1128.59 155.514 1127.8 155.575C1127.35 155.605 1126.72 156.09 1126.62 156.453C1126.53 156.816 1126.99 157.452 1127.35 157.725C1127.8 158.058 1128.44 158.179 1129.01 158.391C1129.83 158.663 1130.65 158.906 1131.43 159.239C1133.1 159.965 1133.82 161.086 1133.76 162.751C1133.7 164.447 1132.73 165.567 1131.22 166.173C1129.01 167.051 1126.78 166.808 1124.63 165.93C1123.9 165.628 1123.24 165.204 1122.42 164.749C1122.84 163.871 1123.21 163.114 1123.54 162.388C1124.69 162.933 1125.72 163.538 1126.84 163.902C1127.56 164.144 1128.44 164.204 1129.19 164.083C1129.68 163.992 1130.34 163.447 1130.4 163.024C1130.46 162.6 1129.98 161.964 1129.56 161.631C1129.16 161.298 1128.56 161.207 1128.02 161.025C1127.17 160.722 1126.29 160.48 1125.45 160.147C1124.08 159.572 1123.27 158.572 1123.21 157.028C1123.15 155.454 1123.78 154.243 1125.17 153.546C1126.11 153.092 1127.17 152.789 1128.2 152.729C1130.07 152.638 1131.86 153.183 1133.64 154.303Z" fill="#606061"/>
<path d="M1462.53 164.749C1463.02 163.811 1463.35 163.084 1463.71 162.418C1464.83 162.963 1465.89 163.538 1466.98 163.932C1467.71 164.174 1468.58 164.235 1469.34 164.113C1469.82 164.023 1470.49 163.478 1470.55 163.054C1470.61 162.63 1470.12 161.994 1469.7 161.661C1469.31 161.328 1468.7 161.237 1468.16 161.055C1467.31 160.753 1466.44 160.51 1465.59 160.177C1464.23 159.602 1463.41 158.603 1463.35 157.058C1463.29 155.484 1463.93 154.273 1465.32 153.576C1466.25 153.122 1467.31 152.85 1468.34 152.759C1470.25 152.607 1472 153.213 1473.75 154.273C1473.39 155.121 1473.06 155.938 1472.69 156.816C1471.85 156.453 1471.09 156.089 1470.28 155.878C1469.52 155.666 1468.7 155.514 1467.92 155.575C1467.46 155.605 1466.83 156.09 1466.74 156.453C1466.65 156.816 1467.1 157.452 1467.46 157.725C1467.92 158.058 1468.55 158.179 1469.13 158.391C1469.94 158.663 1470.76 158.905 1471.55 159.239C1473.21 159.965 1473.93 161.086 1473.87 162.751C1473.81 164.447 1472.88 165.567 1471.33 166.172C1469.13 167.051 1466.89 166.808 1464.74 165.93C1464.08 165.627 1463.41 165.204 1462.53 164.749Z" fill="#606061"/>
<path d="M1094.6 152.971C1098.02 152.971 1101.32 152.971 1104.73 152.971C1104.73 153.697 1104.73 154.394 1104.73 155.272C1102.4 155.272 1100.05 155.272 1097.6 155.272C1097.6 156.362 1097.6 157.24 1097.6 158.33C1099.71 158.33 1101.86 158.33 1104.07 158.33C1104.07 159.178 1104.07 159.874 1104.07 160.753C1101.95 160.753 1099.8 160.753 1097.63 160.753C1097.63 161.933 1097.63 162.902 1097.63 164.083C1100.05 164.083 1102.46 164.083 1105 164.083C1105 164.961 1105 165.688 1105 166.475C1101.56 166.475 1098.14 166.475 1094.63 166.475C1094.6 161.994 1094.6 157.543 1094.6 152.971Z" fill="#606061"/>
<path d="M1546.87 155.302C1546.87 156.423 1546.87 157.27 1546.87 158.3C1549.01 158.3 1551.13 158.3 1553.37 158.3C1553.37 159.148 1553.37 159.844 1553.37 160.722C1551.28 160.722 1549.14 160.722 1546.93 160.722C1546.93 161.933 1546.93 162.963 1546.93 164.083C1549.38 164.083 1551.77 164.083 1554.28 164.083C1554.28 164.931 1554.28 165.627 1554.28 166.445C1550.86 166.445 1547.47 166.445 1543.93 166.445C1543.93 162.024 1543.93 157.573 1543.93 153.031C1547.23 153.031 1550.59 153.031 1554.03 153.031C1554.03 153.728 1554.03 154.454 1554.03 155.332C1551.68 155.302 1549.35 155.302 1546.87 155.302Z" fill="#606061"/>
<path d="M1521.5 159.087C1520.17 158.027 1519.38 156.877 1519.93 155.211C1520.41 153.697 1522.13 152.729 1524.34 152.729C1526.67 152.729 1528.45 153.697 1528.97 155.211C1529.42 156.635 1529.06 157.664 1527.58 159.087C1527.67 159.178 1527.76 159.299 1527.88 159.36C1529.27 160.238 1530.09 161.449 1529.81 163.145C1529.54 164.84 1528.36 165.718 1526.82 166.203C1525.19 166.687 1523.52 166.687 1521.92 166.142C1520.5 165.688 1519.41 164.78 1519.14 163.235C1518.87 161.631 1519.56 160.389 1520.89 159.511C1521.04 159.42 1521.2 159.299 1521.5 159.087ZM1524.4 164.235C1525.01 164.053 1525.61 163.962 1526.12 163.69C1527.24 163.084 1527.27 161.479 1526.15 160.874C1525.04 160.238 1523.83 160.238 1522.71 160.874C1521.68 161.479 1521.65 162.993 1522.68 163.629C1523.19 163.932 1523.8 164.023 1524.4 164.235ZM1524.49 158.058C1525.79 158.027 1526.61 157.361 1526.58 156.392C1526.55 155.454 1525.64 154.788 1524.4 154.818C1523.13 154.848 1522.31 155.514 1522.34 156.513C1522.34 157.452 1523.22 158.088 1524.49 158.058Z" fill="#606061"/>
<path d="M1139.93 152.971C1141.05 152.971 1142.05 152.971 1143.13 152.971C1145.04 157.452 1146.94 161.903 1148.91 166.475C1147.76 166.475 1146.76 166.475 1145.7 166.475C1145.34 165.627 1144.95 164.749 1144.56 163.871C1142.5 163.871 1140.44 163.871 1138.27 163.871C1137.9 164.719 1137.54 165.597 1137.18 166.475C1136.18 166.475 1135.21 166.475 1134.06 166.475C1136.06 161.933 1137.96 157.482 1139.93 152.971ZM1141.44 156.059C1140.65 158.027 1140.02 159.602 1139.35 161.267C1140.87 161.267 1142.14 161.267 1143.56 161.267C1142.86 159.541 1142.23 157.967 1141.44 156.059Z" fill="#606061"/>
<path d="M1278.02 162.6C1278.02 163.992 1278.02 165.173 1278.02 166.445C1277.03 166.445 1276.15 166.445 1275.12 166.445C1275.12 162.024 1275.12 157.573 1275.12 153.092C1277.63 153.092 1280.17 152.85 1282.68 153.152C1285.28 153.485 1286.46 155.605 1286.16 158.451C1285.92 160.843 1284.04 162.448 1281.35 162.569C1280.32 162.63 1279.29 162.6 1278.02 162.6ZM1278.12 155.363C1278.12 156.998 1278.12 158.512 1278.12 160.147C1279.23 160.147 1280.26 160.238 1281.29 160.117C1282.65 159.935 1283.44 158.905 1283.38 157.603C1283.32 156.392 1282.5 155.514 1281.14 155.393C1280.17 155.272 1279.17 155.363 1278.12 155.363Z" fill="#606061"/>
<path d="M1158.31 162.6C1158.31 163.962 1158.31 165.143 1158.31 166.445C1157.29 166.445 1156.35 166.445 1155.35 166.445C1155.35 161.994 1155.35 157.543 1155.35 153.001C1157.71 153.001 1160.01 152.85 1162.3 153.031C1165.18 153.274 1166.6 155.151 1166.45 158.118C1166.33 160.692 1164.48 162.448 1161.7 162.6C1160.64 162.63 1159.58 162.6 1158.31 162.6ZM1158.37 160.177C1159.22 160.177 1160.04 160.177 1160.82 160.177C1161.13 160.177 1161.43 160.147 1161.7 160.086C1162.97 159.784 1163.7 158.845 1163.64 157.573C1163.57 156.423 1162.82 155.514 1161.55 155.393C1160.52 155.302 1159.46 155.363 1158.37 155.363C1158.37 156.998 1158.37 158.512 1158.37 160.177Z" fill="#606061"/>
<path d="M1361.57 160.177C1361.57 157.846 1361.57 155.484 1361.57 153.031C1364.47 153.031 1367.41 153.031 1370.4 153.031C1370.4 153.728 1370.4 154.424 1370.4 155.272C1368.47 155.272 1366.53 155.272 1364.47 155.272C1364.47 156.15 1364.47 156.877 1364.47 157.694C1364.9 157.725 1365.35 157.755 1365.77 157.755C1366.08 157.755 1366.38 157.755 1366.68 157.755C1369.13 157.967 1370.91 159.541 1371.07 161.57C1371.22 163.871 1369.77 165.749 1367.29 166.324C1364.87 166.869 1362.63 166.233 1360.39 164.931C1360.75 164.174 1361.09 163.478 1361.42 162.811C1362.48 163.205 1363.39 163.599 1364.32 163.932C1364.69 164.053 1365.11 164.113 1365.5 164.083C1366.8 163.992 1367.77 163.145 1367.8 162.115C1367.8 161.116 1367.01 160.298 1365.65 160.207C1364.35 160.117 1362.99 160.177 1361.57 160.177Z" fill="#606061"/>
<path d="M1412.37 155.181C1411.86 155.817 1411.31 156.453 1410.74 157.18C1409.53 156.12 1408.26 155.242 1406.66 155.575C1405.78 155.756 1404.81 156.18 1404.15 156.816C1402.6 158.27 1402.57 160.813 1403.93 162.478C1405.48 164.386 1407.47 164.416 1410.8 162.569C1411.31 163.114 1411.86 163.69 1412.4 164.265C1409.41 167.626 1404.57 167.323 1401.94 164.81C1399.13 162.085 1399.1 157.482 1401.94 154.787C1404.99 151.82 1410.1 152.274 1412.37 155.181Z" fill="#606061"/>
<path d="M1446.27 155.121C1445.69 155.817 1445.15 156.453 1444.63 157.119C1441.79 155.09 1439.58 154.999 1437.95 156.786C1436.5 158.36 1436.44 160.813 1437.8 162.478C1439.37 164.386 1441.64 164.416 1444.6 162.478C1445.15 163.023 1445.72 163.599 1446.3 164.174C1443.18 167.596 1438.47 167.232 1435.9 164.81C1433.08 162.176 1432.93 157.634 1435.62 154.909C1438.34 152.093 1443.3 151.941 1446.27 155.121Z" fill="#606061"/>
<path d="M1532.35 156.968C1531.96 156.211 1531.6 155.484 1531.17 154.636C1533.38 153.213 1535.62 152.274 1538.28 152.91C1541.06 153.576 1542.18 156.09 1540.55 158.482C1539.55 159.965 1538.19 161.237 1536.98 162.569C1536.59 162.993 1536.1 163.357 1535.65 163.75C1535.71 163.871 1535.77 163.962 1535.8 164.083C1537.77 164.083 1539.73 164.083 1541.76 164.083C1541.76 164.931 1541.76 165.627 1541.76 166.415C1538.37 166.415 1535.04 166.415 1531.66 166.415C1531.36 165.294 1531.51 164.386 1532.41 163.538C1533.71 162.297 1534.92 160.904 1536.16 159.602C1536.47 159.269 1536.8 158.966 1537.07 158.603C1537.68 157.815 1538.43 156.998 1537.83 155.908C1537.4 155.121 1536.13 154.999 1534.77 155.514C1534.35 155.666 1533.96 155.908 1533.56 156.12C1533.23 156.362 1532.87 156.635 1532.35 156.968Z" fill="#606061"/>
<path d="M1335.23 155.302C1335.23 154.485 1335.23 153.788 1335.23 153.001C1338.26 153.001 1341.31 153.001 1344.37 153.001C1344.7 154.061 1344.43 154.848 1343.58 155.544C1342.61 156.332 1341.77 157.24 1340.68 158.239C1341.37 158.421 1341.83 158.512 1342.28 158.663C1344.03 159.208 1345 160.298 1345.12 161.812C1345.24 163.599 1344.43 165.082 1342.76 165.839C1339.89 167.111 1337.2 166.506 1334.45 164.961C1334.84 164.204 1335.2 163.568 1335.54 162.933C1336.62 163.296 1337.65 163.72 1338.68 163.962C1339.29 164.114 1339.98 164.023 1340.59 163.871C1341.52 163.69 1342.13 163.114 1342.1 162.085C1342.1 161.146 1341.46 160.541 1340.31 160.389C1339.62 160.298 1338.92 160.329 1338.2 160.298C1337.89 160.298 1337.62 160.238 1337.29 160.177C1336.72 157.543 1339.53 157.089 1340.37 155.242C1338.68 155.302 1336.99 155.302 1335.23 155.302Z" fill="#606061"/>
<path d="M1262.66 166.536C1258.88 166.506 1256.59 163.78 1257.22 160.086C1257.7 157.24 1260.73 155.423 1263.93 156.059C1267.02 156.665 1268.65 158.905 1268.32 162.055C1268.02 164.749 1265.75 166.536 1262.66 166.536ZM1265.35 161.388C1265.42 159.693 1264.39 158.451 1262.91 158.36C1261.36 158.27 1260.21 159.42 1260.15 161.086C1260.09 162.812 1261.06 164.023 1262.6 164.114C1264.12 164.204 1265.29 163.054 1265.35 161.388Z" fill="#606061"/>
<path d="M1181.02 166.536C1177.24 166.506 1174.97 163.78 1175.58 160.056C1176.06 157.21 1179.09 155.393 1182.29 156.029C1185.38 156.635 1187.01 158.875 1186.68 162.024C1186.37 164.749 1184.11 166.536 1181.02 166.536ZM1183.71 161.298C1183.74 159.602 1182.68 158.391 1181.14 158.36C1179.6 158.33 1178.51 159.481 1178.48 161.176C1178.45 162.902 1179.48 164.083 1181.02 164.114C1182.56 164.144 1183.68 162.963 1183.71 161.298Z" fill="#606061"/>
<path d="M1227.92 161.964C1225.47 161.964 1223.11 161.964 1220.75 161.964C1221.27 164.265 1222.96 164.628 1226.11 163.054C1226.5 163.478 1226.92 163.932 1227.35 164.386C1225.92 166.506 1222.69 167.141 1220.24 165.93C1217.94 164.78 1216.88 161.903 1217.82 159.299C1218.73 156.725 1221.6 155.363 1224.53 156.09C1226.98 156.695 1228.46 159.178 1227.92 161.964ZM1225.05 160.117C1224.96 158.724 1224.35 158.118 1223.05 158.027C1221.69 157.967 1220.91 158.603 1220.6 160.117C1222.11 160.117 1223.6 160.117 1225.05 160.117Z" fill="#606061"/>
<path d="M1502.24 161.025C1502.96 161.055 1503.45 161.086 1504.05 161.146C1504.05 161.873 1504.05 162.6 1504.05 163.447C1503.51 163.478 1502.99 163.538 1502.33 163.568C1502.33 164.507 1502.33 165.416 1502.33 166.415C1501.33 166.415 1500.45 166.415 1499.46 166.415C1499.46 165.537 1499.46 164.659 1499.46 163.599C1497.31 163.599 1495.28 163.599 1493.01 163.599C1493.11 162.63 1492.98 161.782 1493.29 161.116C1494.53 158.36 1495.92 155.696 1497.25 153.001C1498.19 153.001 1499.03 153.001 1500.09 153.001C1498.79 155.726 1497.58 158.36 1496.31 161.055C1497.4 161.055 1498.34 161.055 1499.39 161.055C1499.39 160.086 1499.39 159.208 1499.39 158.209C1500.39 158.209 1501.27 158.209 1502.24 158.209C1502.24 159.087 1502.24 159.965 1502.24 161.025Z" fill="#606061"/>
<path d="M1328.94 163.478C1326.68 163.478 1324.68 163.478 1322.63 163.478C1322.44 162.357 1322.5 161.419 1322.99 160.48C1324.05 158.482 1325.1 156.453 1325.98 154.364C1326.47 153.213 1327.16 152.729 1328.37 152.91C1328.67 152.971 1328.97 152.91 1329.58 152.91C1328.28 155.666 1327.07 158.27 1325.77 160.995C1326.83 160.995 1327.74 160.995 1328.82 160.995C1328.82 160.056 1328.82 159.148 1328.82 158.148C1329.82 158.148 1330.67 158.148 1331.7 158.148C1331.7 159.057 1331.7 159.996 1331.7 160.995C1332.39 161.055 1332.94 161.116 1333.54 161.176C1333.54 161.903 1333.54 162.569 1333.54 163.357C1333.03 163.417 1332.51 163.478 1331.82 163.568C1331.82 164.477 1331.82 165.385 1331.82 166.415C1330.79 166.415 1329.97 166.415 1328.94 166.415C1328.94 165.537 1328.94 164.628 1328.94 163.478Z" fill="#606061"/>
<path d="M1092.64 153.031C1092.64 153.819 1092.64 154.485 1092.64 155.302C1091.34 155.302 1090.1 155.302 1088.68 155.302C1088.68 159.087 1088.68 162.721 1088.68 166.445C1087.56 166.445 1086.62 166.445 1085.5 166.445C1085.5 162.781 1085.5 159.117 1085.5 155.332C1084.05 155.332 1082.75 155.332 1081.39 155.332C1081.39 154.515 1081.39 153.819 1081.39 153.031C1085.11 153.031 1088.8 153.031 1092.64 153.031Z" fill="#606061"/>
<path d="M1194.99 155.999C1196.05 155.999 1196.9 155.999 1197.96 155.999C1196.62 159.572 1195.32 163.023 1194.02 166.475C1193 166.475 1192.03 166.475 1190.91 166.475C1189.64 163.054 1188.34 159.572 1186.98 155.999C1188.07 155.999 1189 155.999 1190.03 155.999C1190.82 158.36 1191.57 160.753 1192.36 163.114C1192.45 163.114 1192.54 163.145 1192.63 163.145C1193.42 160.783 1194.21 158.421 1194.99 155.999Z" fill="#606061"/>
<path d="M1428.67 166.415C1428.67 161.933 1428.67 157.543 1428.67 153.031C1429.64 153.031 1430.54 153.031 1431.54 153.031C1431.54 157.482 1431.54 161.873 1431.54 166.415C1430.66 166.415 1429.76 166.415 1428.67 166.415Z" fill="#606061"/>
<path d="M1230.34 155.999C1231.31 155.999 1232.15 155.999 1233.09 155.999C1233.15 156.453 1233.24 156.877 1233.3 157.24C1234.27 156.756 1235.27 156.271 1236.51 155.666C1236.51 156.816 1236.51 157.634 1236.51 158.542C1236.15 158.603 1235.72 158.663 1235.3 158.784C1233.94 159.148 1233.27 159.965 1233.24 161.388C1233.21 163.054 1233.24 164.689 1233.24 166.445C1232.24 166.445 1231.37 166.445 1230.37 166.445C1230.34 162.993 1230.34 159.572 1230.34 155.999Z" fill="#606061"/>
<path d="M1171.23 166.445C1170.14 166.445 1169.26 166.445 1168.29 166.445C1168.29 162.963 1168.29 159.572 1168.29 156.029C1169.17 156.029 1170.05 156.029 1171.07 156.029C1171.13 156.362 1171.23 156.786 1171.29 157.21C1172.28 156.725 1173.31 156.241 1174.52 155.666C1174.52 156.816 1174.52 157.603 1174.52 158.512C1174.25 158.572 1173.92 158.603 1173.61 158.663C1171.95 159.027 1171.23 159.874 1171.23 161.631C1171.23 163.175 1171.23 164.749 1171.23 166.445Z" fill="#606061"/>
<path d="M1202.25 166.475C1201.28 166.475 1200.43 166.475 1199.38 166.475C1199.38 164.719 1199.38 162.963 1199.38 161.237C1199.38 159.541 1199.38 157.815 1199.38 156.029C1200.37 156.029 1201.25 156.029 1202.25 156.029C1202.25 159.45 1202.25 162.902 1202.25 166.475Z" fill="#606061"/>
<path d="M1202.43 153.062C1202.43 154.031 1201.8 154.697 1200.86 154.697C1199.95 154.697 1199.23 154 1199.19 153.092C1199.16 152.123 1199.95 151.366 1200.89 151.396C1201.83 151.427 1202.43 152.093 1202.43 153.062Z" fill="#606061"/>
<path d="M1476.84 157.876C1477.65 157.876 1478.38 158.603 1478.38 159.42C1478.38 160.238 1477.62 160.964 1476.81 160.934C1476.05 160.904 1475.39 160.238 1475.36 159.481C1475.33 158.633 1475.99 157.906 1476.84 157.876Z" fill="#606061"/>
<path d="M1476.81 166.687C1475.99 166.657 1475.3 165.9 1475.36 165.082C1475.39 164.295 1476.05 163.659 1476.84 163.629C1477.65 163.599 1478.38 164.326 1478.38 165.143C1478.35 165.991 1477.59 166.718 1476.81 166.687Z" fill="#606061"/>
<path d="M1388.79 152.729H1386.88V166.536H1388.79V152.729Z" fill="#B7B7B7"/>
</g>
<defs>
<clipPath id="clip0_1030_227">
<rect width="687" height="178.648" fill="white" transform="translate(885.842)"/>
</clipPath>
</defs>
</svg>
