<svg width="1146" height="252" viewBox="0 0 1146 252" fill="none" xmlns="http://www.w3.org/2000/svg">
<path d="M109.699 252C101.105 246.976 92.7639 242.204 84.6755 237.683C63.9489 225.877 42.9697 214.071 21.9904 202.266C15.4185 198.498 8.84675 194.479 2.27492 190.711C0.505587 189.706 0 188.451 0 186.441C0 150.773 0 115.356 0 79.688C0 74.9155 0 70.143 0 65.3705C0 63.3611 0.505525 62.1052 2.52763 60.8492C12.1326 55.3232 21.7376 49.7972 31.3426 44.5223C47.0139 35.4797 62.6851 26.6883 78.3564 17.6456C88.4669 11.8684 98.3247 6.0912 108.435 0.565163C109.699 -0.188388 112.227 -0.188388 113.49 0.565163C125.876 7.34712 138.008 14.3803 150.141 21.1622C166.065 30.2048 182.242 39.4986 198.166 48.7924C204.738 52.5602 211.31 56.0767 217.881 59.8445C220.662 61.3516 222.178 63.1099 222.178 66.8777C221.926 75.6691 221.926 84.4605 222.178 93.2519C222.178 96.2661 221.167 97.2709 218.134 97.2709C213.332 97.2709 208.276 97.2709 203.474 97.2709C200.188 97.2709 199.177 96.0149 199.43 93.0007C199.682 88.4794 199.683 84.2093 199.935 79.688C200.188 74.6643 196.144 73.4084 192.858 71.6501C175.67 61.854 158.482 52.0578 141.294 42.2616C131.942 36.9868 122.337 31.4608 112.985 25.9347C111.974 25.4323 110.457 25.4323 109.446 25.9347C92.2585 35.7309 75.0705 45.527 57.8827 55.3232C47.2667 61.3516 36.6506 67.6312 25.7818 73.6596C23.5069 74.9155 22.2432 76.6738 22.2432 79.4368C22.2432 110.332 22.2432 140.977 22.4959 171.872C22.4959 173.882 24.0125 176.645 25.7818 177.65C50.047 191.716 74.3122 205.531 98.5774 219.346C101.611 221.104 104.644 222.863 107.424 224.621C109.193 225.626 110.457 227.133 110.457 229.645C110.205 236.427 110.457 243.209 110.457 249.991C110.205 250.493 109.952 250.995 109.699 252Z" fill="#E59623"/>
<path d="M865.206 41.0057C863.942 41.7593 862.679 42.764 861.415 43.5175C856.36 45.7782 853.579 49.5459 853.579 55.3232C853.579 61.6028 853.326 68.1336 853.326 74.4131C853.326 78.6833 855.349 80.6927 859.898 80.6927C871.778 80.6927 883.911 80.6927 895.79 80.6927C900.593 80.6927 902.362 79.1856 902.362 74.4131C902.362 68.1336 902.362 61.854 902.362 55.5744C902.362 50.0483 897.812 44.7735 892.252 44.0199C891.241 43.7687 890.23 43.7687 889.471 43.0152C888.713 42.5128 887.955 41.5081 887.196 40.5034C888.207 39.7498 889.471 38.7451 890.482 38.7451C898.318 38.9962 906.407 39.4986 914.242 39.7498C917.781 39.7498 921.319 38.9962 924.858 38.9962C926.122 38.9962 927.386 39.7498 928.65 40.2522C927.891 41.2569 927.386 42.5128 926.375 43.2664C924.605 44.7735 922.583 45.7782 920.814 47.2853C917.781 50.2995 917.781 54.3185 917.781 58.0862C917.781 77.6785 917.528 97.2708 917.781 116.863C917.781 121.636 918.792 126.659 923.342 129.674C925.111 130.929 927.386 131.432 929.408 132.185C930.925 132.688 932.947 133.441 931.936 135.451C931.43 136.455 929.408 137.209 928.144 136.958C918.034 136.958 908.176 136.455 898.065 136.455C896.802 136.455 895.538 137.209 894.274 136.958C893.01 136.707 891.746 135.953 890.23 135.451C890.988 134.195 891.241 132.688 892.504 131.934C895.79 129.925 899.076 128.166 900.34 124.147C900.846 122.64 901.351 121.384 901.351 119.877C901.351 111.086 901.351 102.295 901.351 93.5031C901.351 88.4794 899.834 87.2235 895.032 87.2235C884.416 87.2235 873.547 87.2235 862.931 87.2235C861.162 87.2235 859.393 87.2235 857.623 87.2235C854.59 87.4747 852.568 88.7306 852.568 91.996C852.315 96.2661 852.568 100.536 852.568 104.555C852.568 108.574 852.568 112.593 852.568 116.612C852.568 124.901 856.612 129.674 864.7 131.683C866.217 132.185 868.998 134.195 868.745 134.697C867.987 136.958 865.712 136.707 863.69 136.707C852.315 136.707 841.194 136.707 829.819 136.707C829.061 136.707 828.303 136.958 827.545 136.707C826.533 136.455 825.27 135.702 825.017 135.2C825.017 134.195 825.522 132.939 826.281 132.437C827.797 131.181 829.567 130.427 831.083 129.422C835.633 126.157 836.391 121.133 836.391 116.361C836.644 97.522 836.644 78.4321 836.391 59.5933C836.391 53.5649 835.633 47.5365 828.808 44.7735C826.786 44.0199 824.764 43.7687 822.742 43.0152C821.984 42.764 821.478 41.7593 820.72 41.0057C821.478 40.5033 822.237 39.7498 822.995 39.2474C823.5 38.9963 824.259 38.9963 825.017 39.2474C836.644 40.5034 848.271 41.0057 859.898 38.9962C861.162 38.7451 862.426 39.7498 863.69 40.001C865.206 40.2522 865.206 40.7545 865.206 41.0057Z" fill="#E59623"/>
<path d="M445.367 135.953C443.598 136.204 441.829 136.958 440.06 136.958C428.685 136.958 417.311 136.958 405.937 136.958C404.42 136.958 402.145 136.456 401.64 135.451C400.629 133.441 402.651 132.688 404.167 131.934C410.233 128.92 412.761 124.148 412.761 117.366C412.508 96.2662 412.508 75.4179 412.508 54.3185C412.508 49.546 407.959 44.7735 403.409 44.02C401.892 43.7688 400.376 43.2664 399.112 42.764C398.606 42.5129 397.595 41.7593 397.848 41.5081C397.848 40.7546 398.354 39.7498 398.859 39.4987C399.87 38.9963 401.134 38.9963 402.398 39.2475C413.772 40.2522 424.894 40.7546 436.268 38.9963C437.532 38.7451 438.796 40.001 440.06 40.5034C439.301 41.5081 438.543 42.7641 437.532 43.2664C431.718 46.0294 428.685 50.5507 428.685 57.0815C428.685 62.8587 428.685 68.8872 428.685 74.6644C428.685 78.9345 430.96 80.944 435.257 81.1952C447.642 81.1952 460.028 81.1952 472.16 81.1952C476.205 81.1952 478.227 79.1857 478.227 75.4179C478.227 69.3895 478.227 63.3611 478.227 57.3327C478.227 50.5507 474.182 46.0294 467.358 44.5223C465.588 44.2712 462.555 44.5223 463.061 41.2569C463.566 38.4939 466.347 39.4987 468.116 39.7498C478.985 40.7546 490.106 41.257 500.975 39.4987C501.986 39.2475 503.25 40.2522 504.514 40.7546C503.756 41.7593 503.503 43.2664 502.492 43.5176C495.162 46.5318 493.14 52.5602 493.14 59.8445C493.14 78.6833 493.14 97.7733 493.14 116.612C493.14 121.887 494.403 126.911 499.206 130.176C500.975 131.432 503.25 131.683 505.02 132.688C506.283 133.441 507.041 134.697 508.053 135.702C506.789 136.204 505.272 137.46 504.008 137.46C493.898 137.46 484.04 136.958 473.93 136.958C472.413 136.958 470.644 137.711 469.127 137.711C468.116 137.711 466.852 136.707 466.094 135.953C465.841 135.702 466.852 133.944 467.611 133.441C468.622 132.688 469.886 132.185 470.897 131.432C475.194 128.92 477.721 125.152 477.721 120.129C477.721 111.588 477.721 103.048 477.721 94.5079C477.721 90.2378 476.204 88.4795 471.908 88.4795C459.269 88.4795 446.884 88.4795 434.246 88.4795C430.96 88.4795 428.432 90.2378 428.432 93.252C428.432 102.546 428.432 111.84 428.938 121.133C429.443 128.167 434.499 131.432 440.818 132.939C442.334 133.441 443.851 134.446 445.62 135.2C445.62 134.697 445.367 135.451 445.367 135.953Z" fill="#E59623"/>
<path d="M637.467 87.4747C637.467 76.925 637.467 66.3753 637.467 56.0768C637.467 50.2996 633.423 45.0247 627.862 44.02C626.346 43.7688 623.565 41.7593 623.565 41.2569C624.071 38.4939 626.851 39.4987 628.62 39.4987C639.742 39.4987 651.116 39.7498 662.238 38.9963C671.59 38.4939 680.942 38.7451 689.536 42.764C696.866 46.2806 701.163 52.5602 701.922 60.8493C702.427 67.1289 702.427 73.1573 697.877 78.181C695.603 80.4416 692.569 82.1999 690.042 84.2094C689.031 84.9629 687.514 85.2141 686.756 86.2188C686.25 86.9724 685.998 88.7307 686.503 89.4842C690.295 96.5174 694.339 103.299 698.383 110.081C701.669 115.607 704.955 120.882 708.494 126.157C710.01 128.669 712.79 128.92 715.824 128.669C716.582 128.669 718.351 129.422 718.351 129.674C718.351 130.678 718.099 132.437 717.34 132.939C709.252 138.465 697.372 138.465 691.558 128.92C686.25 120.129 681.448 111.086 676.393 102.043C674.876 99.5316 673.612 97.0197 672.096 94.5079C670.326 91.4937 667.293 90.4889 663.755 90.2378C654.402 89.7354 652.633 91.7449 652.886 100.787C653.139 106.062 652.633 111.337 652.886 116.612C653.139 119.626 653.897 122.64 654.908 125.403C656.424 129.171 659.71 130.93 663.502 132.185C665.271 132.688 667.293 133.441 666.282 135.451C665.777 136.456 663.502 136.958 661.985 136.958C655.666 136.958 649.347 136.456 643.028 136.456C638.478 136.456 633.676 137.209 629.126 137.209C628.115 137.209 626.851 136.204 625.84 135.702C626.346 134.697 626.851 133.441 627.357 132.437L627.61 132.185C636.203 128.669 637.72 121.887 637.467 113.849C637.214 105.058 637.467 96.2662 637.467 87.4747ZM652.633 66.3753C653.138 71.1478 653.391 76.1715 654.15 80.944C654.655 83.4558 656.424 84.9629 659.458 84.7117C663.755 84.7117 668.051 84.9629 672.096 84.7117C676.645 84.4605 680.942 82.4511 683.47 78.6833C688.525 70.6454 687.261 62.3564 682.964 54.3185C678.92 46.5318 671.337 44.02 663.249 43.2664C657.941 42.7641 654.655 45.5271 654.15 50.5508C653.644 55.5744 653.138 60.8493 652.633 66.3753Z" fill="#E59623"/>
<path d="M132.195 239.943C132.195 231.403 132.195 223.867 132.195 216.081C132.195 215.076 133.206 214.071 133.964 213.569C144.58 207.54 155.196 201.261 165.812 195.232C175.923 189.455 186.286 183.678 196.397 177.65C197.913 176.645 199.177 173.882 199.177 171.872C199.43 163.834 199.177 155.545 198.924 147.508C198.924 144.996 200.188 143.991 202.463 143.991C207.771 143.991 213.079 143.991 218.387 143.991C220.662 143.991 221.673 144.745 221.673 147.256C221.673 160.318 221.673 173.128 221.673 186.19C221.673 188.953 219.904 190.209 218.134 191.214C201.452 200.758 184.517 210.303 167.834 219.848C157.218 225.877 146.602 231.905 135.986 237.934C135.228 238.938 133.964 239.19 132.195 239.943Z" fill="#606060"/>
<path d="M582.618 39.4986C584.64 39.4986 586.662 39.2474 588.684 39.2474C596.267 38.9962 604.102 38.9962 611.685 38.745C612.696 38.745 613.96 39.4986 614.971 40.0009C614.466 40.7545 614.213 42.2616 613.707 42.2616C605.872 44.0199 605.872 50.5506 605.872 56.3279C605.366 69.6406 605.872 82.9533 605.113 96.2661C604.608 106.816 602.08 116.863 595.256 125.403C590.706 130.929 584.64 134.195 577.562 136.204C569.474 138.465 561.386 137.963 553.297 137.46C542.934 136.707 532.318 128.166 529.285 117.868C526.757 109.328 525.493 100.536 525.493 91.7448C525.493 78.9344 525.24 66.124 525.493 53.5648C525.493 49.7971 522.46 45.7782 518.416 44.2711C516.394 43.5175 514.119 43.0151 511.844 42.5128C511.086 39.4986 512.855 39.2474 515.13 39.2474C522.46 39.4986 529.79 39.7497 537.12 39.7497C540.659 39.7497 543.945 38.9962 547.484 38.745C548.242 38.745 549 38.2426 549.758 38.4938C550.769 38.745 551.528 39.4986 552.286 40.0009C551.528 40.7545 551.275 42.2616 550.264 42.5128C546.472 43.7687 543.439 45.7782 542.428 49.5459C541.417 53.3137 541.417 57.3326 541.165 61.3515C540.912 63.6122 541.165 66.124 541.165 68.3847C541.165 77.4273 540.912 86.4699 541.165 95.2613C541.417 102.294 541.417 109.579 544.956 116.11C549.758 124.901 557.089 129.925 567.199 130.427C574.276 130.929 580.848 129.171 586.915 125.152C593.739 120.631 597.025 113.849 598.289 106.062C601.069 89.2329 599.553 72.4036 599.553 55.5743C599.553 49.7971 596.772 45.0246 589.189 43.5175C586.915 43.0151 584.64 41.7592 582.365 41.0057C582.365 40.7545 582.365 40.2521 582.618 39.4986Z" fill="#E59623"/>
<path d="M740.594 78.9345C740.594 98.778 746.408 112.844 759.552 123.394C767.134 129.422 775.981 130.93 785.586 128.669C792.664 126.911 798.983 123.896 804.291 119.124C806.565 117.114 808.335 114.603 810.61 112.593C811.368 111.84 812.885 111.84 814.148 111.337C814.148 112.593 814.401 114.1 813.643 114.854C807.324 124.901 798.477 132.185 787.103 135.702C779.014 138.465 770.421 139.47 761.574 137.711C751.716 135.702 743.375 131.934 736.803 124.901C731.495 119.124 727.956 112.342 725.934 104.304C724.165 96.5173 723.659 88.7307 724.923 80.944C726.945 68.1336 732.506 56.8303 742.869 48.0389C753.485 38.9963 765.871 35.7309 779.267 37.4892C786.092 38.2427 792.916 41.2569 799.488 43.7688C802.521 45.0247 805.049 46.0294 807.576 43.0152C808.082 42.5129 809.346 42.0105 809.851 42.2617C810.357 42.764 810.863 43.7688 810.863 44.5223C811.368 50.8019 811.621 57.0815 812.126 63.3611C812.126 64.8682 812.885 66.3753 812.885 67.8824C812.885 68.8871 812.379 70.1431 812.126 71.399C811.115 70.8966 809.599 70.3942 809.093 69.6407C805.554 62.3564 800.752 55.8256 794.433 50.5507C789.63 46.783 784.575 43.7688 778.256 43.0152C775.476 42.764 772.948 41.7593 770.421 41.7593C760.816 41.7593 753.485 46.5318 748.177 54.0673C742.617 62.3564 740.089 71.6502 740.594 78.9345Z" fill="#E59623"/>
<path d="M389.507 111.086C389.507 112.342 389.76 113.849 389.254 114.603C383.694 124.147 375.605 130.678 365.495 134.697C358.417 137.46 351.087 139.219 343.252 138.465C327.328 137.209 312.162 130.176 304.326 112.342C300.282 103.299 299.777 93.7543 300.535 83.9581C301.546 71.1477 306.601 60.3468 315.195 51.053C321.261 44.5223 328.844 40.001 337.691 38.2427C341.735 37.4891 346.032 36.9868 350.329 36.9868C358.923 36.7356 367.011 39.7498 374.847 43.2664C378.133 44.7735 380.913 46.2805 383.694 42.764C384.199 42.2616 385.21 42.0104 385.969 42.2616C386.474 42.5128 386.727 43.5175 386.727 44.0199C387.232 50.8019 387.738 57.5838 387.991 64.3658C387.991 65.3705 388.749 66.3752 388.496 67.38C388.496 68.3847 387.991 69.6406 387.738 70.6454C386.727 70.143 385.463 69.6406 384.958 68.8871C382.935 65.8729 381.419 62.6075 379.397 59.5933C373.836 51.3042 366.253 45.527 356.901 42.5128C341.988 37.9915 329.097 43.0152 321.261 58.0862C314.437 71.1477 314.942 84.4605 318.481 98.2756C321.261 108.825 326.822 117.366 335.669 123.645C343.252 128.92 351.34 130.176 360.692 128.166C370.803 125.906 378.891 120.38 385.463 112.593C385.969 112.091 386.474 111.588 386.98 111.337C387.485 111.086 387.991 110.835 388.243 110.584C388.496 111.086 389.002 111.086 389.507 111.086Z" fill="#E59623"/>
<path d="M1121.25 136.204C1109.63 136.204 1097.75 136.204 1086.12 136.204C1082.33 136.204 1078.79 136.707 1075 136.707C1073.74 136.707 1072.22 135.702 1070.96 135.451C1071.71 134.195 1071.97 132.437 1072.98 131.934C1080.81 128.669 1082.58 122.389 1082.58 114.603C1082.33 96.015 1082.58 77.6786 1082.58 59.091C1082.58 52.8114 1081.07 47.5365 1075 44.5223C1073.23 43.7688 1071.21 43.5176 1069.44 42.764C1068.43 42.2617 1067.92 41.0058 1067.16 40.2522C1068.43 39.7498 1069.44 38.4939 1070.7 38.4939C1078.29 38.7451 1085.62 39.2475 1093.2 39.4987C1097.24 39.4987 1101.29 38.7451 1105.58 38.4939C1106.85 38.4939 1108.62 38.9963 1109.12 39.7498C1110.13 41.2569 1108.87 42.0105 1107.35 42.764C1100.78 45.5271 1098.25 50.8019 1098.25 57.8351C1098.25 77.9298 1098.25 98.0244 1098.25 118.119C1098.25 120.631 1098.76 123.645 1100.02 125.906C1101.79 129.674 1105.58 130.427 1109.12 130.176C1113.67 129.925 1118.22 128.669 1122.77 127.915C1128.84 126.659 1134.15 123.645 1138.19 119.124C1139.71 117.617 1140.72 115.607 1141.98 113.849C1142.49 113.095 1143.75 112.844 1144.76 112.844C1145.27 112.844 1146.03 114.603 1145.77 115.105C1143.5 122.138 1142.23 129.925 1134.9 133.441C1130.61 135.953 1125.8 135.953 1121.25 136.204C1121.25 136.707 1121 135.702 1121.25 136.204Z" fill="#E59623"/>
<path d="M1017.88 88.4794C1017.88 97.7732 1017.88 107.067 1017.88 116.361C1017.88 119.375 1018.13 122.64 1018.89 125.655C1019.39 127.162 1021.16 128.669 1022.93 129.422C1028.24 132.185 1033.8 130.678 1039.11 129.422C1045.93 127.915 1052.5 125.152 1057.31 119.626C1058.57 118.119 1059.58 116.361 1060.84 115.105C1061.6 114.351 1062.87 114.1 1063.88 113.347C1064.13 114.351 1064.64 115.607 1064.38 116.612C1063.37 121.636 1061.86 126.157 1058.57 130.176C1055.79 133.692 1052.25 135.953 1047.95 136.204C1036.58 136.456 1025.46 136.204 1014.08 136.204C1007.51 136.204 1000.94 136.958 994.115 136.958C992.851 136.958 991.588 135.953 990.071 135.451C990.829 134.446 991.335 133.19 992.093 132.185C992.851 131.432 994.368 131.181 995.126 130.427C998.665 127.915 1001.45 124.65 1001.45 120.129C1001.45 98.2756 1001.45 76.6738 1001.45 54.8208C1001.45 50.0483 996.643 44.7735 991.84 44.0199C990.577 43.7687 989.06 43.2664 987.796 42.764C987.291 42.5128 986.28 41.5081 986.532 41.0057C986.785 40.2522 987.291 39.4986 988.049 38.9962C988.554 38.7451 989.566 38.7451 990.324 38.7451C1001.95 40.001 1013.58 40.2522 1025.2 38.4939C1025.96 38.2427 1027.23 39.4986 1028.24 39.7498C1027.73 40.7545 1027.23 41.7593 1026.47 42.5128C1024.45 44.2711 1022.17 45.2758 1020.4 47.2853C1017.62 50.2995 1017.87 54.5696 1017.62 58.3374C1017.62 68.6359 1017.88 78.4321 1017.88 88.4794Z" fill="#E59623"/>
<path d="M936.738 42.7641C935.98 39.4987 937.749 38.7451 940.277 38.9963C951.904 40.2522 963.784 40.5034 975.411 38.7451C976.675 38.4939 978.191 39.4987 979.455 40.001C979.455 40.5034 979.455 40.7546 979.708 41.257C977.938 42.2617 976.422 43.2664 974.652 44.02C970.608 45.5271 968.586 48.7925 968.333 52.8114C968.081 65.1194 967.828 77.4274 967.575 89.7354C967.575 98.2757 967.322 106.816 967.575 115.356C967.575 118.119 968.081 121.133 968.839 123.896C970.356 129.171 975.158 130.678 979.961 132.185C981.73 132.688 983.247 133.441 985.016 134.195C983.247 136.958 981.224 136.958 978.697 136.958C967.322 136.958 956.201 136.958 944.827 136.958C943.31 136.958 941.793 135.953 940.277 135.451C941.288 134.195 941.793 132.688 943.057 132.185C946.09 130.427 949.376 128.92 950.64 125.403C951.651 122.64 952.157 119.626 952.157 116.612C952.157 97.7733 952.157 78.6833 952.157 59.8446C952.157 57.3327 951.904 54.5697 951.651 52.0579C951.145 48.5413 946.848 45.0247 943.057 44.2712C940.782 43.7688 938.76 43.2664 936.738 42.7641Z" fill="#E59623"/>
<path d="M438.29 192.972C438.29 198.247 438.29 203.522 438.29 208.796C438.29 210.555 439.301 213.067 436.521 213.569C433.741 214.322 430.707 214.825 428.938 211.811C426.158 207.792 423.63 203.773 421.103 199.503C419.333 196.488 417.564 193.474 415.542 190.711C414.783 189.706 413.52 189.455 412.509 188.702C412.003 189.958 410.992 190.962 410.992 192.218C410.992 197.995 411.245 203.773 411.498 209.801C411.498 212.564 410.234 214.071 407.706 213.82C404.926 213.569 404.167 212.313 404.42 209.55C404.673 198.749 404.673 187.697 404.673 176.896C404.673 174.887 404.167 172.877 406.442 171.872C408.717 170.868 412.256 171.872 413.772 174.133C417.817 180.664 421.861 187.446 426.158 194.228C426.663 194.981 426.916 195.735 427.422 195.986C428.433 196.74 429.696 196.991 430.707 197.493C431.213 196.488 431.719 195.484 431.971 194.479C431.971 188.199 431.971 182.171 431.971 175.891C431.971 173.631 432.224 171.621 435.004 171.621C437.532 171.37 439.049 173.128 439.049 175.891C438.29 181.669 438.29 187.195 438.29 192.972Z" fill="#606060"/>
<path d="M524.229 215.327C517.658 215.327 512.602 213.066 509.064 207.792C508.558 207.038 508.053 206.033 507.8 205.28C507.294 203.522 506.283 201.512 509.316 201.01C511.591 200.507 513.613 200.005 514.877 203.019C518.163 210.052 526.504 210.806 531.307 206.536C534.593 203.522 533.582 199 529.285 197.493C524.229 195.735 519.427 194.228 514.372 192.469C510.075 190.962 508.558 187.195 508.305 182.924C508.305 178.654 510.327 175.138 514.372 173.379C520.438 170.868 526.757 170.868 533.076 173.379C536.362 174.635 538.131 177.65 539.395 180.915C539.648 181.417 538.637 182.924 538.131 183.427C535.351 184.432 533.076 184.432 531.054 181.669C527.515 176.896 521.702 176.143 517.658 179.408C515.13 181.417 515.13 184.18 517.91 185.688C521.449 187.446 525.241 188.451 529.032 189.706C534.087 191.214 538.384 193.223 540.406 198.749C542.428 204.777 539.142 212.062 533.076 214.071C530.296 214.322 527.263 214.825 524.229 215.327Z" fill="#606060"/>
<path d="M891.746 188.199C891.746 192.218 891.746 195.986 891.746 200.005C891.746 205.029 895.791 208.796 901.099 208.796C906.154 208.796 909.945 205.28 909.945 200.256C909.945 192.218 909.945 184.18 909.945 176.142C909.945 173.379 910.704 171.621 913.737 171.872C916.77 171.872 917.275 173.631 917.275 176.142C917.023 185.436 916.77 194.73 916.77 204.024C916.77 207.54 915 210.052 912.473 212.062C906.912 216.332 895.032 216.332 889.472 212.062C886.944 210.052 884.922 207.54 884.922 203.773C884.922 194.73 884.416 185.687 884.164 176.645C884.164 173.379 885.175 172.124 888.208 172.124C890.483 172.124 891.746 173.128 891.746 175.64C891.746 179.659 891.746 183.929 891.746 188.199Z" fill="#606060"/>
<path d="M1087.13 192.972C1087.13 187.195 1087.13 181.417 1087.13 175.891C1087.13 172.877 1088.14 171.872 1091.18 171.872C1099.01 171.872 1106.85 171.872 1114.68 171.872C1116.96 171.872 1117.72 172.877 1117.72 175.138C1117.72 177.147 1116.96 178.152 1114.94 178.152C1109.63 178.152 1104.57 178.152 1099.26 177.901C1095.98 177.901 1094.21 179.659 1093.96 183.427C1093.96 187.446 1095.47 189.455 1099.01 189.455C1103.56 189.455 1107.86 189.455 1112.41 189.204C1114.68 189.204 1116.45 189.455 1116.45 192.218C1116.45 194.981 1114.68 194.981 1112.66 194.981C1107.86 194.981 1103.31 194.981 1098.51 194.981C1095.47 194.981 1094.21 196.74 1093.96 199.251C1093.7 200.758 1093.7 202.517 1093.96 204.024C1094.21 206.536 1095.47 208.294 1098.51 208.294C1104.07 208.043 1109.37 208.294 1114.94 208.294C1117.21 208.294 1118.73 209.048 1118.73 211.308C1118.73 213.569 1116.96 214.574 1114.68 214.322C1106.85 214.322 1099.01 214.322 1091.18 214.322C1088.4 214.322 1086.88 213.82 1086.88 210.555C1087.13 204.526 1087.13 198.749 1087.13 192.972Z" fill="#606060"/>
<path d="M199.177 125.655C199.177 123.394 199.43 121.133 199.177 118.873C198.924 116.11 200.188 114.854 202.715 114.854C208.023 114.603 213.584 114.854 219.145 114.854C221.167 114.854 222.178 115.859 222.178 118.119C222.178 123.394 222.178 128.669 222.178 133.944C222.178 136.204 221.167 137.209 218.892 137.209C213.332 137.209 208.024 137.209 202.463 137.209C200.188 137.209 198.924 136.204 198.924 133.693C199.177 130.93 199.177 128.167 199.177 125.655Z" fill="#606060"/>
<path d="M620.027 196.237C620.027 191.716 620.027 187.446 620.027 182.925C620.027 178.654 619.016 177.65 614.719 177.65C613.202 177.65 611.938 177.65 610.422 177.65C608.4 177.65 607.136 177.147 607.136 174.635C607.389 172.375 608.4 171.621 610.675 171.621C619.268 171.621 627.61 171.621 636.203 171.621C638.731 171.621 640.248 172.124 640.5 174.887C640.5 177.65 638.731 177.65 636.709 177.65C635.698 177.65 634.687 177.65 633.676 177.65C629.126 177.398 627.862 178.654 627.862 183.176C627.862 191.967 627.862 200.759 627.862 209.801C627.862 213.318 626.851 214.071 623.313 214.071C620.28 214.071 619.521 212.062 619.774 209.55C620.027 205.28 619.774 200.759 620.027 196.237Z" fill="#606060"/>
<path d="M795.949 196.237C795.949 191.716 795.949 187.195 795.949 182.673C795.949 178.403 794.938 177.65 790.641 177.65C789.125 177.65 787.861 177.65 786.344 177.65C784.07 177.901 783.059 177.147 783.059 174.635C783.059 172.375 784.069 171.621 786.597 171.621C795.191 171.872 803.532 171.621 812.126 171.621C813.137 171.621 814.654 171.621 815.159 172.375C815.918 173.128 816.423 174.635 816.423 175.64C816.423 176.394 815.159 177.399 814.148 177.399C812.379 177.65 810.357 177.399 808.587 177.399C804.796 177.399 803.28 178.654 803.28 182.422C803.28 191.465 803.279 200.507 803.532 209.55C803.532 212.564 802.268 213.82 799.488 213.82C796.96 213.82 795.444 212.815 795.697 210.052C795.949 205.531 795.697 201.01 795.949 196.237Z" fill="#606060"/>
<path d="M1006.25 196.488C1006.25 201.261 1006.25 206.033 1006.25 210.806C1006.25 213.318 1004.98 214.071 1002.71 214.322C1000.18 214.322 998.918 213.318 998.918 210.806C998.918 201.763 998.918 192.972 999.17 183.929C999.17 179.659 997.654 177.65 993.104 177.901C991.84 177.901 990.324 178.403 989.313 177.901C988.049 177.398 986.027 176.394 986.027 175.389C985.774 173.631 987.038 171.872 989.313 171.872C996.643 171.872 1003.97 172.124 1011.3 172.124C1012.82 172.124 1014.08 172.124 1015.6 171.872C1017.87 171.621 1018.89 172.626 1018.89 174.887C1019.14 177.147 1018.13 177.901 1015.85 177.901C1006.25 178.152 1006.25 178.152 1006.25 187.446C1006.25 190.46 1006.25 193.474 1006.25 196.488Z" fill="#606060"/>
<path d="M715.824 193.223C715.824 199 715.571 204.777 715.824 210.806C715.824 213.82 714.307 214.322 712.032 214.322C709.505 214.322 708.241 213.066 708.241 210.555C708.241 202.266 708.494 194.228 708.494 185.939C708.494 182.673 708.241 179.408 708.241 176.142C708.241 173.631 709.252 172.124 712.032 171.872C714.813 171.872 715.824 172.877 715.824 175.64C715.571 181.417 715.824 187.195 715.824 193.223Z" fill="#606060"/>
<path d="M333.647 192.972C333.647 199 333.394 204.778 333.647 210.806C333.647 213.569 332.383 214.322 330.108 214.071C327.833 214.071 326.317 213.067 326.317 210.304C326.569 200.256 326.317 190.209 326.569 180.162C326.569 178.654 326.569 177.398 326.569 175.891C326.569 172.877 327.58 171.621 330.361 171.621C333.141 171.621 333.647 173.38 333.647 175.64C333.647 181.417 333.647 187.195 333.647 192.972Z" fill="#606060"/>
</svg>
