<svg width="540" height="105" viewBox="0 0 540 105" fill="none" xmlns="http://www.w3.org/2000/svg">
<path d="M330.3 74.9033C328.77 74.0089 327.285 73.1593 325.845 72.3543C322.155 70.2525 318.42 68.1507 314.685 66.049C313.515 65.3782 312.345 64.6627 311.175 63.9919C310.86 63.813 310.77 63.5894 310.77 63.2317C310.77 56.8816 310.77 50.5762 310.77 44.2261C310.77 43.3765 310.77 42.5268 310.77 41.6772C310.77 41.3194 310.86 41.0958 311.22 40.8722C312.93 39.8884 314.64 38.9046 316.35 37.9655C319.14 36.3556 321.93 34.7904 324.72 33.1806C326.52 32.152 328.275 31.1235 330.075 30.1397C330.3 30.0055 330.75 30.0055 330.975 30.1397C333.18 31.3471 335.34 32.5992 337.5 33.8066C340.335 35.4165 343.215 37.0711 346.05 38.7257C347.22 39.3965 348.39 40.0226 349.56 40.6933C350.055 40.9617 350.325 41.2747 350.325 41.9455C350.28 43.5106 350.28 45.0758 350.325 46.641C350.325 47.1776 350.145 47.3565 349.605 47.3565C348.75 47.3565 347.85 47.3565 346.995 47.3565C346.41 47.3565 346.23 47.1329 346.275 46.5962C346.32 45.7913 346.32 45.0311 346.365 44.2261C346.41 43.3318 345.69 43.1082 345.105 42.7951C342.045 41.0511 338.985 39.3071 335.925 37.563C334.26 36.6239 332.55 35.6401 330.885 34.6563C330.705 34.5669 330.435 34.5669 330.255 34.6563C327.195 36.4003 324.135 38.1444 321.075 39.8884C319.185 40.9617 317.295 42.0796 315.36 43.1529C314.955 43.3765 314.73 43.6895 314.73 44.1814C314.73 49.6818 314.73 55.1375 314.775 60.638C314.775 60.9957 315.045 61.4876 315.36 61.6665C319.68 64.1708 324 66.6303 328.32 69.0898C328.86 69.4029 329.4 69.7159 329.895 70.0289C330.21 70.2078 330.435 70.4761 330.435 70.9233C330.39 72.1307 330.435 73.3381 330.435 74.5456C330.39 74.635 330.345 74.7244 330.3 74.9033Z" fill="#E59623"/>
<path d="M464.805 37.34C464.58 37.4741 464.355 37.653 464.13 37.7872C463.23 38.1896 462.735 38.8604 462.735 39.8889C462.735 41.0069 462.69 42.1696 462.69 43.2876C462.69 44.0478 463.05 44.4056 463.86 44.4056C465.975 44.4056 468.135 44.4056 470.25 44.4056C471.105 44.4056 471.42 44.1372 471.42 43.2876C471.42 42.1696 471.42 41.0516 471.42 39.9337C471.42 38.9499 470.61 38.0108 469.62 37.8766C469.44 37.8319 469.26 37.8319 469.125 37.6977C468.99 37.6083 468.855 37.4294 468.72 37.2505C468.9 37.1164 469.125 36.9375 469.305 36.9375C470.7 36.9822 472.14 37.0717 473.535 37.1164C474.165 37.1164 474.795 36.9822 475.425 36.9822C475.65 36.9822 475.875 37.1164 476.1 37.2058C475.965 37.3847 475.875 37.6083 475.695 37.7424C475.38 38.0108 475.02 38.1896 474.705 38.4579C474.165 38.9946 474.165 39.7101 474.165 40.3809C474.165 43.8689 474.12 47.357 474.165 50.8451C474.165 51.6947 474.345 52.5891 475.155 53.1257C475.47 53.3493 475.875 53.4388 476.235 53.5729C476.505 53.6624 476.865 53.7965 476.685 54.1543C476.595 54.3332 476.235 54.4673 476.01 54.4226C474.21 54.4226 472.455 54.3332 470.655 54.3332C470.43 54.3332 470.205 54.4673 469.98 54.4226C469.755 54.3779 469.53 54.2437 469.26 54.1543C469.395 53.9307 469.44 53.6624 469.665 53.5282C470.25 53.1705 470.835 52.8574 471.06 52.1419C471.15 51.8736 471.24 51.65 471.24 51.3817C471.24 49.8165 471.24 48.2514 471.24 46.6862C471.24 45.7918 470.97 45.5683 470.115 45.5683C468.225 45.5683 466.29 45.5683 464.4 45.5683C464.085 45.5683 463.77 45.5683 463.455 45.5683C462.915 45.613 462.555 45.8366 462.555 46.4179C462.51 47.1781 462.555 47.9384 462.555 48.6539C462.555 49.3694 462.555 50.0849 462.555 50.8004C462.555 52.2761 463.275 53.1257 464.715 53.4835C464.985 53.5729 465.48 53.9307 465.435 54.0201C465.3 54.4226 464.895 54.3779 464.535 54.3779C462.51 54.3779 460.53 54.3779 458.505 54.3779C458.37 54.3779 458.235 54.4226 458.1 54.3779C457.92 54.3332 457.695 54.199 457.65 54.1096C457.65 53.9307 457.74 53.7071 457.875 53.6177C458.145 53.3941 458.46 53.2599 458.73 53.081C459.54 52.4997 459.675 51.6053 459.675 50.7556C459.72 47.4017 459.72 44.0031 459.675 40.6492C459.675 39.5759 459.54 38.5027 458.325 38.0108C457.965 37.8766 457.605 37.8319 457.245 37.6977C457.11 37.653 457.02 37.4741 456.885 37.34C457.02 37.2505 457.155 37.1164 457.29 37.0269C457.38 36.9822 457.515 36.9822 457.65 37.0269C459.72 37.2505 461.79 37.34 463.86 36.9822C464.085 36.9375 464.31 37.1164 464.535 37.1611C464.805 37.2058 464.805 37.2953 464.805 37.34Z" fill="#E59623"/>
<path d="M390.06 54.2439C389.745 54.2886 389.43 54.4228 389.115 54.4228C387.09 54.4228 385.065 54.4228 383.04 54.4228C382.77 54.4228 382.365 54.3333 382.275 54.1545C382.095 53.7967 382.455 53.6626 382.725 53.5284C383.805 52.9918 384.255 52.1421 384.255 50.9347C384.21 47.1783 384.21 43.4667 384.21 39.7103C384.21 38.8606 383.4 38.0109 382.59 37.8768C382.32 37.8321 382.05 37.7426 381.825 37.6532C381.735 37.6085 381.555 37.4743 381.6 37.4296C381.6 37.2954 381.69 37.1166 381.78 37.0719C381.96 36.9824 382.185 36.9824 382.41 37.0271C384.435 37.206 386.415 37.2954 388.44 36.9824C388.665 36.9377 388.89 37.1613 389.115 37.2507C388.98 37.4296 388.845 37.6532 388.665 37.7426C387.63 38.2345 387.09 39.0395 387.09 40.2022C387.09 41.2307 387.09 42.304 387.09 43.3325C387.09 44.0927 387.495 44.4505 388.26 44.4952C390.465 44.4952 392.67 44.4952 394.83 44.4952C395.55 44.4952 395.91 44.1374 395.91 43.4667C395.91 42.3934 395.91 41.3201 395.91 40.2469C395.91 39.0395 395.19 38.2345 393.975 37.9662C393.66 37.9215 393.12 37.9662 393.21 37.3849C393.3 36.893 393.795 37.0718 394.11 37.1166C396.045 37.2954 398.025 37.3849 399.96 37.0719C400.14 37.0271 400.365 37.206 400.59 37.2954C400.455 37.4743 400.41 37.7426 400.23 37.7874C398.925 38.324 398.565 39.3972 398.565 40.6941C398.565 44.048 398.565 47.4466 398.565 50.8006C398.565 51.7397 398.79 52.634 399.645 53.2154C399.96 53.439 400.365 53.4837 400.68 53.6626C400.905 53.7967 401.04 54.0203 401.22 54.1992C400.995 54.2886 400.725 54.5122 400.5 54.5122C398.7 54.5122 396.945 54.4228 395.145 54.4228C394.875 54.4228 394.56 54.5569 394.29 54.5569C394.11 54.5569 393.885 54.3781 393.75 54.2439C393.705 54.1992 393.885 53.8862 394.02 53.7967C394.2 53.6626 394.425 53.5731 394.605 53.439C395.37 52.9918 395.82 52.321 395.82 51.4266C395.82 49.9062 395.82 48.3857 395.82 46.8653C395.82 46.1051 395.55 45.792 394.785 45.792C392.535 45.792 390.33 45.792 388.08 45.792C387.495 45.792 387.045 46.1051 387.045 46.6417C387.045 48.2963 387.045 49.9509 387.135 51.6055C387.225 52.8576 388.125 53.439 389.25 53.7073C389.52 53.7967 389.79 53.9756 390.105 54.1098C390.105 54.0203 390.06 54.1545 390.06 54.2439Z" fill="#E59623"/>
<path d="M424.26 45.6119C424.26 43.7337 424.26 41.8555 424.26 40.022C424.26 38.9935 423.54 38.0544 422.55 37.8755C422.28 37.8308 421.785 37.4731 421.785 37.3836C421.875 36.8917 422.37 37.0706 422.685 37.0706C424.665 37.0706 426.69 37.1153 428.67 36.9812C430.335 36.8917 432 36.9364 433.53 37.6519C434.835 38.278 435.6 39.396 435.735 40.8717C435.825 41.9897 435.825 43.0629 435.015 43.9573C434.61 44.3598 434.07 44.6728 433.62 45.0306C433.44 45.1647 433.17 45.2094 433.035 45.3883C432.945 45.5225 432.9 45.8355 432.99 45.9697C433.665 47.2218 434.385 48.4292 435.105 49.6366C435.69 50.6204 436.275 51.5595 436.905 52.4986C437.175 52.9458 437.67 52.9905 438.21 52.9458C438.345 52.9458 438.66 53.08 438.66 53.1247C438.66 53.3036 438.615 53.6166 438.48 53.706C437.04 54.6898 434.925 54.6899 433.89 52.9905C432.945 51.4254 432.09 49.8155 431.19 48.2056C430.92 47.7584 430.695 47.3112 430.425 46.864C430.11 46.3274 429.57 46.1485 428.94 46.1038C427.275 46.0144 426.96 46.3721 427.005 47.982C427.05 48.9211 426.96 49.8602 427.005 50.7993C427.05 51.3359 427.185 51.8726 427.365 52.3645C427.635 53.0353 428.22 53.3483 428.895 53.5719C429.21 53.6613 429.57 53.7955 429.39 54.1532C429.3 54.3321 428.895 54.4215 428.625 54.4215C427.5 54.4215 426.375 54.3321 425.25 54.3321C424.44 54.3321 423.585 54.4663 422.775 54.4663C422.595 54.4663 422.37 54.2874 422.19 54.1979C422.28 54.0191 422.37 53.7955 422.46 53.6166L422.505 53.5719C424.035 52.9458 424.305 51.7384 424.26 50.3074C424.215 48.7422 424.26 47.1771 424.26 45.6119ZM426.96 41.8555C427.05 42.7052 427.095 43.5996 427.23 44.4492C427.32 44.8964 427.635 45.1647 428.175 45.12C428.94 45.12 429.705 45.1647 430.425 45.12C431.235 45.0753 432 44.7175 432.45 44.0467C433.35 42.6157 433.125 41.14 432.36 39.709C431.64 38.3227 430.29 37.8755 428.85 37.7414C427.905 37.6519 427.32 38.1439 427.23 39.0382C427.14 39.9326 427.05 40.8717 426.96 41.8555Z" fill="#E59623"/>
<path d="M334.305 72.7565C334.305 71.236 334.305 69.8944 334.305 68.5082C334.305 68.3293 334.485 68.1504 334.62 68.061C336.51 66.9877 338.4 65.8697 340.29 64.7965C342.09 63.7679 343.935 62.7394 345.735 61.6662C346.005 61.4873 346.23 60.9954 346.23 60.6376C346.275 59.2066 346.23 57.7309 346.185 56.2999C346.185 55.8527 346.41 55.6738 346.815 55.6738C347.76 55.6738 348.705 55.6738 349.65 55.6738C350.055 55.6738 350.235 55.808 350.235 56.2552C350.235 58.5806 350.235 60.8612 350.235 63.1866C350.235 63.6785 349.92 63.9021 349.605 64.081C346.635 65.7803 343.62 67.4796 340.65 69.1789C338.76 70.2522 336.87 71.3254 334.98 72.3987C334.845 72.5776 334.62 72.6223 334.305 72.7565Z" fill="#606060"/>
<path d="M414.495 37.0703C414.855 37.0703 415.215 37.0256 415.575 37.0256C416.925 36.9809 418.32 36.9809 419.67 36.9361C419.85 36.9361 420.075 37.0703 420.255 37.1597C420.165 37.2939 420.12 37.5622 420.03 37.5622C418.635 37.8752 418.635 39.0379 418.635 40.0665C418.545 42.4366 418.635 44.8067 418.5 47.1768C418.41 49.055 417.96 50.8437 416.745 52.3642C415.935 53.348 414.855 53.9293 413.595 54.2871C412.155 54.6896 410.715 54.6001 409.275 54.5107C407.43 54.3765 405.54 52.8561 405 51.0226C404.55 49.5022 404.325 47.937 404.325 46.3718C404.325 44.0912 404.28 41.8105 404.325 39.5746C404.325 38.9038 403.785 38.1883 403.065 37.92C402.705 37.7858 402.3 37.6964 401.895 37.6069C401.76 37.0703 402.075 37.0256 402.48 37.0256C403.785 37.0703 405.09 37.115 406.395 37.115C407.025 37.115 407.61 36.9809 408.24 36.9361C408.375 36.9361 408.51 36.8467 408.645 36.8914C408.825 36.9361 408.96 37.0703 409.095 37.1597C408.96 37.2939 408.915 37.5622 408.735 37.6069C408.06 37.8305 407.52 38.1883 407.34 38.8591C407.16 39.5298 407.16 40.2453 407.115 40.9608C407.07 41.3633 407.115 41.8105 407.115 42.213C407.115 43.8229 407.07 45.4327 407.115 46.9979C407.16 48.25 407.16 49.5469 407.79 50.7096C408.645 52.2747 409.95 53.1691 411.75 53.2585C413.01 53.348 414.18 53.035 415.26 52.3195C416.475 51.5145 417.06 50.3071 417.285 48.9208C417.78 45.9246 417.51 42.9285 417.51 39.9323C417.51 38.9038 417.015 38.0541 415.665 37.7858C415.26 37.6964 414.855 37.4728 414.45 37.3386C414.45 37.2939 414.45 37.2045 414.495 37.0703Z" fill="#E59623"/>
<path d="M442.62 44.0929C442.62 47.6257 443.655 50.13 445.995 52.0081C447.345 53.0814 448.92 53.3497 450.63 52.9472C451.89 52.6342 453.015 52.0976 453.96 51.2479C454.365 50.8902 454.68 50.443 455.085 50.0852C455.22 49.9511 455.49 49.9511 455.715 49.8616C455.715 50.0852 455.76 50.3535 455.625 50.4877C454.5 52.2765 452.925 53.5733 450.9 54.1994C449.46 54.6913 447.93 54.8702 446.355 54.5571C444.6 54.1994 443.115 53.5286 441.945 52.2765C441 51.2479 440.37 50.0405 440.01 48.6095C439.695 47.2232 439.605 45.8369 439.83 44.4507C440.19 42.17 441.18 40.1576 443.025 38.5925C444.915 36.9826 447.12 36.4012 449.505 36.7143C450.72 36.8484 451.935 37.3851 453.105 37.8323C453.645 38.0558 454.095 38.2347 454.545 37.6981C454.635 37.6087 454.86 37.5192 454.95 37.5639C455.04 37.6534 455.13 37.8323 455.13 37.9664C455.22 39.0844 455.265 40.2024 455.355 41.3203C455.355 41.5886 455.49 41.857 455.49 42.1253C455.49 42.3041 455.4 42.5277 455.355 42.7513C455.175 42.6619 454.905 42.5725 454.815 42.4383C454.185 41.1415 453.33 39.9788 452.205 39.0397C451.35 38.3689 450.45 37.8323 449.325 37.6981C448.83 37.6534 448.38 37.4745 447.93 37.4745C446.22 37.4745 444.915 38.3242 443.97 39.6657C442.98 41.1414 442.53 42.7961 442.62 44.0929Z" fill="#E59623"/>
<path d="M380.115 49.8158C380.115 50.0394 380.16 50.3077 380.07 50.4418C379.08 52.1412 377.64 53.3039 375.84 54.0194C374.58 54.5113 373.275 54.8243 371.88 54.6901C369.045 54.4665 366.345 53.2144 364.95 50.0394C364.23 48.4295 364.14 46.7302 364.275 44.9861C364.455 42.7055 365.355 40.7826 366.885 39.128C367.965 37.9653 369.315 37.1603 370.89 36.8473C371.61 36.7131 372.375 36.6237 373.14 36.6237C374.67 36.579 376.11 37.1156 377.505 37.7417C378.09 38.01 378.585 38.2783 379.08 37.6522C379.17 37.5628 379.35 37.5181 379.485 37.5628C379.575 37.6075 379.62 37.7864 379.62 37.8758C379.71 39.0832 379.8 40.2907 379.845 41.4981C379.845 41.6769 379.98 41.8558 379.935 42.0347C379.935 42.2136 379.845 42.4372 379.8 42.616C379.62 42.5266 379.395 42.4372 379.305 42.303C378.945 41.7664 378.675 41.185 378.315 40.6484C377.325 39.1727 375.975 38.1441 374.31 37.6075C371.655 36.8026 369.36 37.697 367.965 40.3801C366.75 42.7055 366.84 45.0756 367.47 47.5351C367.965 49.4133 368.955 50.9338 370.53 52.0517C371.88 52.9908 373.32 53.2144 374.985 52.8567C376.785 52.4542 378.225 51.4704 379.395 50.0841C379.485 49.9947 379.575 49.9052 379.665 49.8605C379.755 49.8158 379.845 49.7711 379.89 49.7263C379.935 49.8158 380.025 49.8158 380.115 49.8158Z" fill="#E59623"/>
<path d="M510.39 54.2882C508.32 54.2882 506.205 54.2882 504.135 54.2882C503.46 54.2882 502.83 54.3777 502.155 54.3777C501.93 54.3777 501.66 54.1988 501.435 54.1541C501.57 53.9305 501.615 53.6174 501.795 53.528C503.19 52.9467 503.505 51.8287 503.505 50.4424C503.46 47.1332 503.505 43.8687 503.505 40.5595C503.505 39.4416 503.235 38.5025 502.155 37.9658C501.84 37.8317 501.48 37.787 501.165 37.6528C500.985 37.5634 500.895 37.3398 500.76 37.2056C500.985 37.1162 501.165 36.8926 501.39 36.8926C502.74 36.9373 504.045 37.0267 505.395 37.0715C506.115 37.0715 506.835 36.9373 507.6 36.8926C507.825 36.8926 508.14 36.982 508.23 37.1162C508.41 37.3845 508.185 37.5186 507.915 37.6528C506.745 38.1447 506.295 39.0838 506.295 40.3359C506.295 43.9134 506.295 47.491 506.295 51.0685C506.295 51.5157 506.385 52.0523 506.61 52.4548C506.925 53.1255 507.6 53.2597 508.23 53.215C509.04 53.1703 509.85 52.9467 510.66 52.8125C511.74 52.5889 512.685 52.0523 513.405 51.2473C513.675 50.979 513.855 50.6213 514.08 50.3083C514.17 50.1741 514.395 50.1294 514.575 50.1294C514.665 50.1294 514.8 50.4424 514.755 50.5318C514.35 51.784 514.125 53.1703 512.82 53.7963C512.055 54.2435 511.2 54.2435 510.39 54.2882C510.39 54.3777 510.345 54.1988 510.39 54.2882Z" fill="#E59623"/>
<path d="M491.985 45.7917C491.985 47.4463 491.985 49.1009 491.985 50.7555C491.985 51.2921 492.03 51.8734 492.165 52.4101C492.255 52.6784 492.57 52.9467 492.885 53.0808C493.83 53.5727 494.82 53.3044 495.765 53.0808C496.98 52.8125 498.15 52.3206 499.005 51.3368C499.23 51.0685 499.41 50.7555 499.635 50.5319C499.77 50.3977 499.995 50.353 500.175 50.2188C500.22 50.3977 500.31 50.6213 500.265 50.8002C500.085 51.6946 499.815 52.4995 499.23 53.215C498.735 53.8411 498.105 54.2435 497.34 54.2883C495.315 54.333 493.335 54.2883 491.31 54.2883C490.14 54.2883 488.97 54.4224 487.755 54.4224C487.53 54.4224 487.305 54.2435 487.035 54.1541C487.17 53.9752 487.26 53.7516 487.395 53.5728C487.53 53.4386 487.8 53.3939 487.935 53.2597C488.565 52.8125 489.06 52.2312 489.06 51.4262C489.06 47.5357 489.06 43.6899 489.06 39.7993C489.06 38.9497 488.205 38.0106 487.35 37.8764C487.125 37.8317 486.855 37.7423 486.63 37.6528C486.54 37.6081 486.36 37.4292 486.405 37.3398C486.45 37.2056 486.54 37.0715 486.675 36.982C486.765 36.9373 486.945 36.9373 487.08 36.9373C489.15 37.1609 491.22 37.2056 493.29 36.8926C493.425 36.8479 493.65 37.0715 493.83 37.1162C493.74 37.2951 493.65 37.4739 493.515 37.6081C493.155 37.9211 492.75 38.1 492.435 38.4578C491.94 38.9944 491.985 39.7546 491.94 40.4254C491.94 42.2589 491.985 44.0029 491.985 45.7917Z" fill="#E59623"/>
<path d="M477.54 37.6522C477.405 37.0709 477.72 36.9367 478.17 36.9815C480.24 37.2051 482.355 37.2498 484.425 36.9367C484.65 36.892 484.92 37.0709 485.145 37.1603C485.145 37.2498 485.145 37.2945 485.19 37.3839C484.875 37.5628 484.605 37.7417 484.29 37.8758C483.57 38.1442 483.21 38.7255 483.165 39.441C483.12 41.6322 483.075 43.8235 483.03 46.0147C483.03 47.5351 482.985 49.0556 483.03 50.576C483.03 51.0679 483.12 51.6045 483.255 52.0965C483.525 53.0356 484.38 53.3039 485.235 53.5722C485.55 53.6616 485.82 53.7958 486.135 53.9299C485.82 54.4218 485.46 54.4218 485.01 54.4218C482.985 54.4218 481.005 54.4218 478.98 54.4218C478.71 54.4218 478.44 54.243 478.17 54.1535C478.35 53.9299 478.44 53.6616 478.665 53.5722C479.205 53.2592 479.79 52.9908 480.015 52.3648C480.195 51.8729 480.285 51.3362 480.285 50.7996C480.285 47.4457 480.285 44.0471 480.285 40.6931C480.285 40.2459 480.24 39.754 480.195 39.3069C480.105 38.6808 479.34 38.0547 478.665 37.9206C478.26 37.8311 477.9 37.7417 477.54 37.6522Z" fill="#E59623"/>
<path d="M388.8 64.3941C388.8 65.3332 388.8 66.2723 388.8 67.2114C388.8 67.5244 388.98 67.9716 388.485 68.061C387.99 68.1952 387.45 68.2846 387.135 67.748C386.64 67.0325 386.19 66.317 385.74 65.5568C385.425 65.0202 385.11 64.4835 384.75 63.9916C384.615 63.8127 384.39 63.768 384.21 63.6339C384.12 63.8575 383.94 64.0363 383.94 64.2599C383.94 65.2885 383.985 66.317 384.03 67.3902C384.03 67.8822 383.805 68.1505 383.355 68.1058C382.86 68.061 382.725 67.8374 382.77 67.3455C382.815 65.4226 382.815 63.455 382.815 61.5321C382.815 61.1743 382.725 60.8166 383.13 60.6377C383.535 60.4588 384.165 60.6377 384.435 61.0402C385.155 62.2029 385.875 63.4103 386.64 64.6177C386.73 64.7518 386.775 64.886 386.865 64.9307C387.045 65.0649 387.27 65.1096 387.45 65.199C387.54 65.0201 387.63 64.8413 387.675 64.6624C387.675 63.5444 387.675 62.4712 387.675 61.3532C387.675 60.9507 387.72 60.593 388.215 60.593C388.665 60.5483 388.935 60.8613 388.935 61.3532C388.8 62.3817 388.8 63.3655 388.8 64.3941Z" fill="#606060"/>
<path d="M404.1 68.3738C402.93 68.3738 402.03 67.9713 401.4 67.0322C401.31 66.898 401.22 66.7192 401.175 66.585C401.085 66.272 400.905 65.9142 401.445 65.8248C401.85 65.7353 402.21 65.6459 402.435 66.1825C403.02 67.4347 404.505 67.5688 405.36 66.8086C405.945 66.272 405.765 65.467 405 65.1987C404.1 64.8857 403.245 64.6174 402.345 64.3043C401.58 64.036 401.31 63.3652 401.265 62.605C401.265 61.8448 401.625 61.2187 402.345 60.9057C403.425 60.4585 404.55 60.4585 405.675 60.9057C406.26 61.1293 406.575 61.6659 406.8 62.2473C406.845 62.3367 406.665 62.605 406.575 62.6945C406.08 62.8733 405.675 62.8733 405.315 62.3814C404.685 61.5318 403.65 61.3976 402.93 61.979C402.48 62.3367 402.48 62.8286 402.975 63.0969C403.605 63.41 404.28 63.5888 404.955 63.8124C405.855 64.0807 406.62 64.4385 406.98 65.4223C407.34 66.4956 406.755 67.7924 405.675 68.1502C405.18 68.1949 404.64 68.2843 404.1 68.3738Z" fill="#606060"/>
<path d="M469.53 63.5438C469.53 64.2593 469.53 64.9301 469.53 65.6456C469.53 66.5399 470.25 67.2107 471.195 67.2107C472.095 67.2107 472.77 66.5847 472.77 65.6903C472.77 64.2593 472.77 62.8283 472.77 61.3973C472.77 60.9054 472.905 60.5923 473.445 60.637C473.985 60.637 474.075 60.9501 474.075 61.3973C474.03 63.0519 473.985 64.7065 473.985 66.3611C473.985 66.9871 473.67 67.4343 473.22 67.7921C472.23 68.5523 470.115 68.5523 469.125 67.7921C468.675 67.4343 468.315 66.9871 468.315 66.3163C468.315 64.7065 468.225 63.0966 468.18 61.4867C468.18 60.9054 468.36 60.6818 468.9 60.6818C469.305 60.6818 469.53 60.8606 469.53 61.3078C469.53 62.0233 469.53 62.7836 469.53 63.5438Z" fill="#606060"/>
<path d="M504.315 64.3951C504.315 63.3665 504.315 62.338 504.315 61.3542C504.315 60.8175 504.495 60.6387 505.035 60.6387C506.43 60.6387 507.825 60.6387 509.22 60.6387C509.625 60.6387 509.76 60.8175 509.76 61.22C509.76 61.5778 509.625 61.7566 509.265 61.7566C508.32 61.7566 507.42 61.7566 506.475 61.7119C505.89 61.7119 505.575 62.025 505.53 62.6957C505.53 63.4112 505.8 63.769 506.43 63.769C507.24 63.769 508.005 63.769 508.815 63.7243C509.22 63.7243 509.535 63.769 509.535 64.2609C509.535 64.7528 509.22 64.7528 508.86 64.7528C508.005 64.7528 507.195 64.7528 506.34 64.7528C505.8 64.7528 505.575 65.0658 505.53 65.513C505.485 65.7813 505.485 66.0944 505.53 66.3627C505.575 66.8099 505.8 67.1229 506.34 67.1229C507.33 67.0782 508.275 67.1229 509.265 67.1229C509.67 67.1229 509.94 67.2571 509.94 67.6595C509.94 68.062 509.625 68.2409 509.22 68.1962C507.825 68.1962 506.43 68.1962 505.035 68.1962C504.54 68.1962 504.27 68.1067 504.27 67.5254C504.315 66.4521 504.315 65.4236 504.315 64.3951Z" fill="#606060"/>
<path d="M346.23 52.4096C346.23 52.0071 346.275 51.6046 346.23 51.2022C346.185 50.7103 346.41 50.4867 346.86 50.4867C347.805 50.442 348.795 50.4867 349.785 50.4867C350.145 50.4867 350.325 50.6655 350.325 51.068C350.325 52.0071 350.325 52.9462 350.325 53.8853C350.325 54.2878 350.145 54.4667 349.74 54.4667C348.75 54.4667 347.805 54.4667 346.815 54.4667C346.41 54.4667 346.185 54.2878 346.185 53.8406C346.23 53.3487 346.23 52.8568 346.23 52.4096Z" fill="#606060"/>
<path d="M421.155 64.9762C421.155 64.1713 421.155 63.411 421.155 62.6061C421.155 61.8459 420.975 61.667 420.21 61.667C419.94 61.667 419.715 61.667 419.445 61.667C419.085 61.667 418.86 61.5776 418.86 61.1304C418.905 60.7279 419.085 60.5938 419.49 60.5938C421.02 60.5938 422.505 60.5938 424.035 60.5938C424.485 60.5938 424.755 60.6832 424.8 61.1751C424.8 61.667 424.485 61.667 424.125 61.667C423.945 61.667 423.765 61.667 423.585 61.667C422.775 61.6223 422.55 61.8459 422.55 62.6508C422.55 64.216 422.55 65.7811 422.55 67.391C422.55 68.0171 422.37 68.1512 421.74 68.1512C421.2 68.1512 421.065 67.7935 421.11 67.3463C421.155 66.5861 421.11 65.7811 421.155 64.9762Z" fill="#606060"/>
<path d="M452.475 64.9762C452.475 64.1713 452.475 63.3663 452.475 62.5614C452.475 61.8012 452.295 61.667 451.53 61.667C451.26 61.667 451.035 61.667 450.765 61.667C450.36 61.7117 450.18 61.5776 450.18 61.1304C450.18 60.7279 450.36 60.5938 450.81 60.5938C452.34 60.6385 453.825 60.5938 455.355 60.5938C455.535 60.5938 455.805 60.5938 455.895 60.7279C456.03 60.8621 456.12 61.1304 456.12 61.3093C456.12 61.4434 455.895 61.6223 455.715 61.6223C455.4 61.667 455.04 61.6223 454.725 61.6223C454.05 61.6223 453.78 61.8459 453.78 62.5167C453.78 64.1265 453.78 65.7364 453.825 67.3463C453.825 67.8829 453.6 68.1065 453.105 68.1065C452.655 68.1065 452.385 67.9277 452.43 67.4357C452.475 66.6308 452.43 65.8259 452.475 64.9762Z" fill="#606060"/>
<path d="M489.915 65.02C489.915 65.8697 489.915 66.7193 489.915 67.569C489.915 68.0162 489.69 68.1503 489.285 68.1951C488.835 68.1951 488.61 68.0162 488.61 67.569C488.61 65.9591 488.61 64.394 488.655 62.7841C488.655 62.0238 488.385 61.6661 487.575 61.7108C487.35 61.7108 487.08 61.8003 486.9 61.7108C486.675 61.6214 486.315 61.4425 486.315 61.2636C486.27 60.9506 486.495 60.6376 486.9 60.6376C488.205 60.6376 489.51 60.6823 490.815 60.6823C491.085 60.6823 491.31 60.6823 491.58 60.6376C491.985 60.5928 492.165 60.7717 492.165 61.1742C492.21 61.5767 492.03 61.7108 491.625 61.7108C489.915 61.7555 489.915 61.7555 489.915 63.4101C489.915 63.9468 489.915 64.4834 489.915 65.02Z" fill="#606060"/>
<path d="M438.21 64.4398C438.21 65.4683 438.165 66.4968 438.21 67.5701C438.21 68.1067 437.94 68.1962 437.535 68.1962C437.085 68.1962 436.86 67.9726 436.86 67.5254C436.86 66.0497 436.905 64.6187 436.905 63.1429C436.905 62.5616 436.86 61.9802 436.86 61.3989C436.86 60.9517 437.04 60.6834 437.535 60.6387C438.03 60.6387 438.21 60.8175 438.21 61.3095C438.165 62.338 438.21 63.3665 438.21 64.4398Z" fill="#606060"/>
<path d="M370.17 64.3949C370.17 65.4681 370.125 66.4966 370.17 67.5699C370.17 68.0618 369.945 68.196 369.54 68.1512C369.135 68.1512 368.865 67.9724 368.865 67.4805C368.91 65.6917 368.865 63.9029 368.91 62.1142C368.91 61.8459 368.91 61.6223 368.91 61.354C368.91 60.8173 369.09 60.5938 369.585 60.5938C370.08 60.5938 370.17 60.9068 370.17 61.3093C370.17 62.3378 370.17 63.3663 370.17 64.3949Z" fill="#606060"/>
<path d="M49.5901 62.5154C49.5901 60.8161 49.0051 59.5639 47.7901 58.6248C46.6201 57.7304 44.4601 56.7914 41.3551 55.8523C38.2501 54.9132 35.8201 53.8846 33.9751 52.7666C30.4651 50.5754 28.7101 47.7134 28.7101 44.2253C28.7101 41.1397 29.9701 38.6355 32.4901 36.6231C35.0101 34.6108 38.2951 33.627 42.3001 33.627C44.9551 33.627 47.3401 34.1189 49.4551 35.1027C51.5251 36.0865 53.1901 37.4728 54.4051 39.2615C55.6201 41.0503 56.2051 43.0626 56.2051 45.2986H49.5451C49.5451 43.2862 48.9151 41.7658 47.6551 40.6031C46.3951 39.4851 44.5951 38.9038 42.2551 38.9038C40.0951 38.9038 38.3851 39.351 37.1701 40.2901C35.9551 41.2292 35.3701 42.526 35.3701 44.1806C35.3701 45.5669 36.0001 46.7296 37.3051 47.6687C38.6101 48.6078 40.7701 49.5022 43.7401 50.3965C46.7101 51.2909 49.1401 52.2747 50.9401 53.3927C52.7401 54.5107 54.0901 55.8075 54.9451 57.2833C55.8001 58.759 56.2051 60.4583 56.2051 62.4259C56.2051 65.601 54.9901 68.15 52.5151 70.0281C50.0401 71.9063 46.7551 72.8454 42.5251 72.8454C39.7351 72.8454 37.1701 72.3535 34.8751 71.325C32.5351 70.2965 30.7351 68.9102 29.4301 67.0767C28.1251 65.2879 27.4951 63.1862 27.4951 60.7713H34.1551C34.1551 62.9178 34.8751 64.6172 36.3151 65.8246C37.7551 67.032 39.8251 67.6133 42.5251 67.6133C44.8651 67.6133 46.5751 67.1661 47.7451 66.227C49.0051 65.3327 49.5901 64.0805 49.5901 62.5154Z" fill="#606060"/>
<path d="M67.8152 37.1152V44.0019H72.8552V48.7422H67.8152V64.5726C67.8152 65.6459 68.0402 66.4508 68.4452 66.898C68.8952 67.3899 69.6602 67.6135 70.7402 67.6135C71.4602 67.6135 72.2252 67.5241 72.9902 67.3452V72.2643C71.5502 72.6668 70.1102 72.8456 68.7602 72.8456C63.8552 72.8456 61.3802 70.1625 61.3802 64.7515V48.7422H56.7002V44.0019H61.3802V37.1152H67.8152Z" fill="#606060"/>
<path d="M91.5752 69.5812C89.6852 71.7724 87.0302 72.8904 83.5652 72.8904C80.4602 72.8904 78.1202 71.996 76.5452 70.2072C74.9702 68.4185 74.1602 65.8248 74.1602 62.3814V44.002H80.5502V62.292C80.5502 65.9142 82.0352 67.703 85.0502 67.703C88.1552 67.703 90.2702 66.585 91.3502 64.3938V44.002H97.7402V72.3537H91.7102L91.5752 69.5812Z" fill="#606060"/>
<path d="M100.17 57.9997C100.17 53.6172 101.205 50.1291 103.23 47.4907C105.255 44.8523 108 43.5107 111.42 43.5107C114.435 43.5107 116.91 44.5393 118.755 46.6411V32.1074H125.145V72.3544H119.34L119.025 69.403C117.09 71.7284 114.57 72.8463 111.33 72.8463C108 72.8463 105.3 71.5048 103.23 68.8216C101.16 66.2279 100.17 62.561 100.17 57.9997ZM106.56 58.5363C106.56 61.3983 107.1 63.679 108.225 65.2889C109.35 66.8987 110.925 67.7037 112.995 67.7037C115.605 67.7037 117.54 66.541 118.755 64.2156V52.0968C117.585 49.8161 115.695 48.6981 113.04 48.6981C110.97 48.6981 109.35 49.5031 108.225 51.1577C107.1 52.7676 106.56 55.2271 106.56 58.5363Z" fill="#606060"/>
<path d="M141.21 72.8918C137.16 72.8918 133.875 71.6397 131.31 69.0907C128.79 66.5418 127.53 63.1431 127.53 58.9395V58.1346C127.53 55.3173 128.07 52.7683 129.195 50.5324C130.275 48.2964 131.85 46.5524 133.83 45.345C135.81 44.0929 138.015 43.4668 140.49 43.4668C144.36 43.4668 147.375 44.7189 149.49 47.1785C151.605 49.638 152.685 53.1261 152.685 57.6427V60.1917H134.055C134.235 62.5171 135.045 64.3952 136.395 65.7368C137.79 67.0784 139.5 67.7939 141.615 67.7939C144.54 67.7939 146.925 66.6312 148.77 64.2611L152.235 67.5256C151.11 69.2249 149.58 70.5217 147.645 71.4608C145.71 72.4447 143.595 72.8918 141.21 72.8918ZM140.445 48.6095C138.69 48.6095 137.25 49.2355 136.17 50.4429C135.09 51.6504 134.415 53.3497 134.1 55.5409H146.295V55.049C146.16 52.9025 145.575 51.2926 144.585 50.2194C143.595 49.1461 142.2 48.6095 140.445 48.6095Z" fill="#606060"/>
<path d="M160.83 44.0034L161.01 47.2679C163.125 44.7189 165.87 43.4668 169.335 43.4668C175.275 43.4668 178.29 46.8654 178.425 53.618V72.3552H172.035V53.9757C172.035 52.187 171.63 50.8454 170.865 49.9958C170.1 49.1461 168.795 48.6989 167.04 48.6989C164.475 48.6989 162.54 49.8616 161.28 52.187V72.3552H154.8V44.0034H160.83Z" fill="#606060"/>
<path d="M189.99 37.1152V44.0019H195.03V48.7422H189.99V64.5726C189.99 65.6459 190.215 66.4508 190.62 66.898C191.07 67.3899 191.835 67.6135 192.915 67.6135C193.635 67.6135 194.4 67.5241 195.165 67.3452V72.2643C193.725 72.6668 192.285 72.8456 190.935 72.8456C186.03 72.8456 183.555 70.1625 183.555 64.7515V48.7422H178.875V44.0019H183.555V37.1152H189.99Z" fill="#606060"/>
<path d="M227.925 72.3542H221.265V55.4505H204.075V72.3989H197.415V34.209H204.075V50.0842H221.265V34.209H227.925V72.3542Z" fill="#E59623"/>
<path d="M249.525 69.5812C247.635 71.7724 244.98 72.8904 241.515 72.8904C238.41 72.8904 236.07 71.996 234.495 70.2072C232.92 68.4185 232.11 65.8248 232.11 62.3814V44.002H238.5V62.292C238.5 65.9142 239.985 67.703 243 67.703C246.105 67.703 248.22 66.585 249.3 64.3938V44.002H255.69V72.3537H249.66L249.525 69.5812Z" fill="#E59623"/>
<path d="M284.355 58.4918C284.355 62.8742 283.365 66.407 281.385 69.0007C279.405 71.5944 276.705 72.8913 273.24 72.8913C269.91 72.8913 267.3 71.6839 265.41 69.3138L265.095 72.3994H259.29V32.1523H265.68V46.7754C267.525 44.6289 270 43.5109 273.15 43.5109C276.615 43.5109 279.36 44.8078 281.34 47.3568C283.32 49.9058 284.31 53.528 284.31 58.134V58.4918H284.355ZM277.92 57.9104C277.92 54.8248 277.38 52.5442 276.3 50.979C275.22 49.4586 273.645 48.6536 271.53 48.6536C268.74 48.6536 266.805 49.861 265.68 52.2759V63.9475C266.805 66.407 268.785 67.6592 271.575 67.6592C273.6 67.6592 275.13 66.8989 276.21 65.4232C277.29 63.9475 277.875 61.7115 277.92 58.6707V57.9104Z" fill="#E59623"/>
<path d="M298.485 29.0664H296.685V75.9318H298.485V29.0664Z" fill="#606060"/>
</svg>
