<svg xmlns="http://www.w3.org/2000/svg" version="1.1" xmlns:xlink="http://www.w3.org/1999/xlink" width="512" height="512" x="0" y="0" viewBox="0 0 64 64" style="enable-background:new 0 0 512 512" xml:space="preserve" class=""><g><path fill="#e59623" d="M21 22v16h11v-7h2v-9zM39 19H15v-6h24z" opacity="1" data-original="#f0bc5e"></path><path d="M31 45h-8c-1.103 0-2 .897-2 2 0 2.206 1.794 4 4 4h4c2.206 0 4-1.794 4-4 0-1.103-.897-2-2-2zm-2 4h-4c-1.103 0-2-.897-2-2h8c0 1.103-.897 2-2 2z" fill="#2c2b4b" opacity="1" data-original="#000000" class=""></path><circle cx="42" cy="6" r="1" fill="#2c2b4b" opacity="1" data-original="#000000" class=""></circle><circle cx="38" cy="6" r="1" fill="#2c2b4b" opacity="1" data-original="#000000" class=""></circle><path d="M23 5h8v2h-8z" fill="#2c2b4b" opacity="1" data-original="#000000" class=""></path><path d="m59.093 19.32 2.578-2.578A4.504 4.504 0 0 0 63 13.535 4.54 4.54 0 0 0 58.464 9a4.506 4.506 0 0 0-3.207 1.328L50.586 15h-3.101c-.163 0-.324.013-.485.024V6c0-2.757-2.243-5-5-5H12C9.243 1 7 3.243 7 6v23.586l-2.76 2.761A10.983 10.983 0 0 0 1 40.167c0 .606.051 1.218.15 1.818l1.556 9.332a18.284 18.284 0 0 0 1.061 3.792L5 58.193V63h14v-4.807l.69-1.725c.193-.483.357-.974.508-1.468H42c2.757 0 5-2.243 5-5V31.414l.405-.405.918.551a10.106 10.106 0 0 0 8.395.92L61.162 31H63V21h-1.667zm-2.422-7.578A2.523 2.523 0 0 1 58.464 11 2.54 2.54 0 0 1 61 13.535c0 .677-.264 1.313-.743 1.793l-9.331 9.332-2.391-1.913a7.934 7.934 0 0 0-1.792-1.076zM48.586 17l-4.066 4.066a7.983 7.983 0 0 0-.966-.066A3.558 3.558 0 0 0 40 24.554c0 .311.042.617.121.912l-1.251 1.251a1.823 1.823 0 0 1-.87-1.546c0-.481.195-.952.536-1.293l5.414-5.414A4.966 4.966 0 0 1 47.485 17zM9 6c0-1.654 1.346-3 3-3h30c1.654 0 3 1.346 3 3v9.459a6.93 6.93 0 0 0-2 1.169V11c0-1.103-.897-2-2-2H13c-1.103 0-2 .897-2 2v30c0 .8.476 1.488 1.157 1.807a29.237 29.237 0 0 1-1.539 3.72A.855.855 0 0 1 9 46.146zm8 55H7v-2h10zm.833-5.274L17.323 57H6.677l-1.054-2.634a16.364 16.364 0 0 1-.945-3.377l-1.556-9.332A9.311 9.311 0 0 1 3 40.167c0-2.42.942-4.694 2.654-6.406L7 32.414v13.731A2.857 2.857 0 0 0 9.854 49a2.838 2.838 0 0 0 2.553-1.578 31.379 31.379 0 0 0 2.37-6.406l.75-2.998A1.34 1.34 0 0 1 16.83 37a1.35 1.35 0 0 1 1.34 1.241l.783 10.172a16.263 16.263 0 0 1-1.12 7.313zM16.83 35a3.34 3.34 0 0 0-3.244 2.533L13 39.877V11h28v7.586l-3.878 3.878A3.797 3.797 0 0 0 36 25.171c0 1.187.556 2.265 1.439 2.976l-2.292 2.292-1.956 4.889a2.68 2.68 0 0 0 3.48 3.481L41 37.077V41H20.388l-.224-2.912A3.36 3.36 0 0 0 16.83 35zm19.535-2.221 2.855 2.855-3.291 1.317c-.434.174-.929-.169-.929-.628 0-.087.016-.171.049-.252zM45 50c0 1.654-1.346 3-3 3H20.689a18.28 18.28 0 0 0 .257-4.74L20.542 43H41c1.103 0 2-.897 2-2v-5.586l2-2zm-4-15.414L37.414 31l3.791-3.79c.162.144.332.279.521.392l3.912 2.347zM61 29h-.162l-4.752 1.584a8.168 8.168 0 0 1-6.733-.739l-6.597-3.958A1.561 1.561 0 0 1 42 24.554c0-.857.697-1.554 1.554-1.554a5.99 5.99 0 0 1 3.731 1.31L50.649 27H56v-2h-2.586l4.251-4.251L60.667 23H61z" fill="#2c2b4b" opacity="1" data-original="#000000" class=""></path><path d="M21 21h13v2H21zM32 25h2v2h-2zM21 25h9v2h-9zM21 29h13v2H21zM21 33h11v2H21zM21 37h11v2H21z" fill="#2c2b4b" opacity="1" data-original="#000000" class=""></path></g></svg>