<svg xmlns="http://www.w3.org/2000/svg" version="1.1" xmlns:xlink="http://www.w3.org/1999/xlink" width="512" height="512" x="0" y="0" viewBox="0 0 496 496" style="enable-background:new 0 0 512 512" xml:space="preserve" class=""><g><path d="M464 112V96h-92.031v16H448v304H256v-72h-16v72H48V112h76.031V96H32v16H0v352h208.809c3.71 18.23 19.879 32 39.191 32s35.48-13.77 39.191-32H496V112zm16 336H272v8c0 13.23-10.77 24-24 24s-24-10.77-24-24v-8H16V128h16v304h432V128h16zm0 0" fill="#2c2b4b" opacity="1" data-original="#000000"></path><path d="M432 240H309.969v16H416v96H288v-92.063h-16V368h160zM64 384h160v16H64zM64 352h160v16H64zM272 384h160v16H272zm0 0" fill="#2c2b4b" opacity="1" data-original="#000000"></path><path fill="#e59623" d="m248 329.887-30.695-61.399C156.055 254.36 112 199.266 112 136 112 61.008 173.008 0 248 0s136 61.008 136 136c0 63.266-44.055 118.36-105.305 132.496zm0 0" opacity="1" data-original="#f0bc5e" class=""></path><path d="M248 80c-13.23 0-24-10.77-24-24s10.77-24 24-24 24 10.77 24 24-10.77 24-24 24zm0-32c-4.406 0-8 3.586-8 8s3.594 8 8 8 8-3.586 8-8-3.594-8-8-8zM288 240h-80v-48h16v-48h-16V96h64v96h16zm-64-16h48v-16h-16v-96h-32v16h16v80h-16zM64 320h160v16H64zM64 288h144v16H64zm0 0" fill="#2c2b4b" opacity="1" data-original="#000000"></path></g></svg>