<svg xmlns="http://www.w3.org/2000/svg" version="1.1" xmlns:xlink="http://www.w3.org/1999/xlink" width="512" height="512" x="0" y="0" viewBox="0 0 62 62" style="enable-background:new 0 0 512 512" xml:space="preserve" class=""><g><path fill="#e59623" d="M49 14c-2.757 0-5-2.243-5-5s2.243-5 5-5 5 2.243 5 5-2.243 5-5 5zM48.869 37h-.007a1.398 1.398 0 0 1-.277.414l-9.127 9.127a1.562 1.562 0 0 1-1.107.459h-3.785a1.566 1.566 0 0 1-1.343-2.372L37.8 37h-9.564a2 2 0 0 1-1.789-1.106L25 33h-3a1 1 0 0 1-1-1v-2a1 1 0 0 1 1-1v-5a1 1 0 0 1 1-1h1.586c.265 0 .52.105.707.293L32 27h17.57C47.732 18.429 40.12 12 31 12c-10.493 0-19 8.507-19 19s8.507 19 19 19c8.394 0 15.504-5.45 18.018-13z" opacity="1" data-original="#f0bc5e"></path><path d="m61.917 34.545-1.189-4.757A4.994 4.994 0 0 0 55.877 26h-2.441a22.795 22.795 0 0 0-1.975-5.476l4.567-5.708A9.033 9.033 0 0 0 58 9.193V9c0-4.963-4.037-9-9-9s-9 4.037-9 9v.193c0 .221.012.44.028.659A23.097 23.097 0 0 0 31 8C18.317 8 8 18.317 8 31s10.317 23 23 23c9.99 0 18.874-6.546 21.895-16h6.324a2.785 2.785 0 0 0 2.698-3.455zm-3.129-4.273L59.22 32H55a1 1 0 0 1-1-1v-3h1.877c1.379 0 2.576.935 2.911 2.272zM51.388 26h-9.831a29.891 29.891 0 0 0-1.663-6h6.226L49 23.601l1.086-1.358A20.747 20.747 0 0 1 51.388 26zM38.752 45.834a.574.574 0 0 1-.4.166h-3.785a.567.567 0 0 1-.486-.857l5.364-8.941a.417.417 0 0 1 .356-.202h7.785a.415.415 0 0 1 .293.707zM31 51.586l-.808-.808A28.063 28.063 0 0 1 25.193 44h7.241l-.067.112c-.24.399-.367.856-.367 1.322 0 1.308.988 2.379 2.255 2.535a28.208 28.208 0 0 1-2.447 2.81zM33.634 42h-9.391a27.776 27.776 0 0 1-2.081-8h2.219l1.171 2.342A2.987 2.987 0 0 0 28.236 38h7.798zm-11.61-10c-.011-.333-.024-.665-.024-1s.013-.667.024-1H26l.002 2zm2.22-12h13.473a28.02 28.02 0 0 1 1.809 6h-7.268l-6.38-3.526A2.013 2.013 0 0 0 24.586 22H23.48a27.26 27.26 0 0 1 .764-2zM31 10.414l.808.808A27.956 27.956 0 0 1 36.765 18H25.194a28.063 28.063 0 0 1 4.999-6.778zM42 9c0-3.859 3.141-7 7-7s7 3.141 7 7v.193a7.027 7.027 0 0 1-1.534 4.373L49 20.399l-5.466-6.833A7.027 7.027 0 0 1 42 9.193zm-.028 5.816L44.519 18h-5.51a30.018 30.018 0 0 0-5.466-7.844 21.005 21.005 0 0 1 7.021 2.152 8.995 8.995 0 0 0 1.408 2.508zm-13.543-4.642A29.97 29.97 0 0 0 22.953 18h-8.414c3.347-4.228 8.276-7.136 13.89-7.826zM13.146 20h8.937a29.866 29.866 0 0 0-2.051 9.683A1.957 1.957 0 0 0 20 30v2c0 .108.015.213.032.317A29.84 29.84 0 0 0 22.083 42h-8.937C11.164 38.796 10 35.036 10 31s1.164-7.796 3.146-11zm1.393 24h8.414a29.97 29.97 0 0 0 5.476 7.826c-5.614-.69-10.543-3.598-13.89-7.826zm19.034 7.823A30.013 30.013 0 0 0 36.701 48h1.65c.686 0 1.33-.267 1.814-.752L43.414 44h4.058a21.11 21.11 0 0 1-13.899 7.823zM48.87 42h-3.456l3.879-3.879c.037-.037.065-.082.099-.121h1.4a20.707 20.707 0 0 1-1.922 4zm10.349-6h-9.261a2.413 2.413 0 0 0-2.372-2h-7.785c-.843 0-1.636.449-2.07 1.172l-.497.828h-8.997a.994.994 0 0 1-.895-.553l-.77-1.541A1.994 1.994 0 0 0 28 32v-2c0-1.103-.897-2-2-2h-3v-4h1.586l7.156 4H52v3c0 1.654 1.346 3 3 3h4.72l.257 1.028a.783.783 0 0 1-.758.972z" fill="#2c2b4b" opacity="1" data-original="#000000" class=""></path><path d="M38 30h2v2h-2zM42 30h2v2h-2zM46 30h2v2h-2z" fill="#2c2b4b" opacity="1" data-original="#000000" class=""></path><path d="m55.138 46.849-1.203 1.64C48.648 55.697 40.156 60 31.219 60h-1.05C14.637 60 2 47.363 2 31.831a28.236 28.236 0 0 1 9.135-20.765l2.541-2.329-1.352-1.475-2.541 2.33A30.24 30.24 0 0 0 0 31.831C0 48.466 13.534 62 30.169 62h1.05c9.572 0 18.667-4.608 24.329-12.328l1.312-1.79L60 49.767v-9.533L52.057 45zM58 43.767v2.467L55.943 45zM16 4h2v2h-2zM20 2h2v2h-2z" fill="#2c2b4b" opacity="1" data-original="#000000" class=""></path></g></svg>