<svg xmlns="http://www.w3.org/2000/svg" version="1.1" xmlns:xlink="http://www.w3.org/1999/xlink" width="512" height="512" x="0" y="0" viewBox="0 0 64 64" style="enable-background:new 0 0 512 512" xml:space="preserve" class=""><g><path fill="#e59623" d="M21.586 27a2.398 2.398 0 0 1-1.707-.707L16.586 23H4c-1.654 0-3-1.346-3-3V4c0-1.654 1.346-3 3-3h28c1.654 0 3 1.346 3 3v16c0 1.654-1.346 3-3 3h-8v1.586A2.417 2.417 0 0 1 21.586 27z" opacity="1" data-original="#f0bc5e"></path><circle cx="44" cy="16" r="1" fill="#2c2b4b" opacity="1" data-original="#000000" class=""></circle><circle cx="52" cy="16" r="1" fill="#2c2b4b" opacity="1" data-original="#000000" class=""></circle><path d="M45.345 25H49c2.206 0 4-1.794 4-4h-2c0 1.103-.897 2-2 2h-3.655z" fill="#2c2b4b" opacity="1" data-original="#000000" class=""></path><path d="M56.92 23H57c3.309 0 6-2.691 6-6a5.977 5.977 0 0 0-2.008-4.466C60.91 6.161 55.707 1 49.315 1h-2.631C40.31 1 35.12 6.133 35.01 12.531A5.982 5.982 0 0 0 33 17c0 1.771.776 3.36 2 4.46V32c0 2.757 2.243 5 5 5h.381a16.315 16.315 0 0 0-2.695 5.263l-10.611 13.06C24.709 56.127 23 58.365 23 61H11v-4h2c1.103 0 2-.897 2-2V27c0-1.103-.897-2-2-2H9c-1.103 0-2 .897-2 2v17.279l-2.582.861A4.993 4.993 0 0 0 1 49.883V63h58V47.871c1.28-2.046 2-4.448 2-6.971 0-4.871-3.539-8.922-8.179-9.74l-.629-2.516A7.01 7.01 0 0 0 56.92 23zM55 22c0 2.757-2.243 5-5 5h-4c-2.757 0-5-2.243-5-5v-8.117c0-1.293.824-2.437 2.051-2.846l1.347-.449a5.336 5.336 0 0 0 3.505 1.74L55 12.92zM42 35c-.551 0-1-.449-1-1s.449-1 1-1h2c.551 0 1 .449 1 1s-.449 1-1 1zm15-14v-8c2.206 0 4 1.794 4 4s-1.794 4-4 4zM46.685 3h2.631c4.857 0 8.878 3.597 9.569 8.307A6 6 0 0 0 57 11h-.96l-.842-.07-.147-.098A4.597 4.597 0 0 1 53 7h-2c0 1.332.404 2.602 1.122 3.673l-1.433-.12A4.614 4.614 0 0 1 49 7h-2a6.6 6.6 0 0 0 .902 3.305C46.263 10.083 45 8.669 45 7h-2c0 .642.117 1.261.33 1.836l-.912.304A4.988 4.988 0 0 0 39.917 11H39c-.661 0-1.296.112-1.891.31C37.78 6.62 41.812 3 46.685 3zM39 13.883V21c-2.206 0-4-1.794-4-4s1.794-4 4-4h.084a5.053 5.053 0 0 0-.084.883zM39 34c0 .303.045.595.129.871A3.004 3.004 0 0 1 37 32v-9.35a5.95 5.95 0 0 0 2 .35h.08a7.013 7.013 0 0 0 4.729 5.644L43.219 31H42c-1.654 0-3 1.346-3 3zm-2 17.009-5.528 3.04a4.744 4.744 0 0 0-1.199.951h-.36l7.124-8.767c-.012.25-.037.497-.037.749zM9 27h4l.001 28H9zM3 49.883c0-1.293.824-2.437 2.051-2.846L7 46.388V55c0 1.103.897 2 2 2v4H3zM29 57h.164A4.749 4.749 0 0 0 29 58.229c0 1.035.34 1.988.903 2.771H25c0-2.206 1.794-4 4-4zm4.771 4a2.772 2.772 0 0 1-1.335-5.199l15.025-8.264a17.13 17.13 0 0 0 2.23-1.493l4.66 3.883c-.316.224-.634.445-.976.637L35.37 60.646a2.77 2.77 0 0 1-1.354.354zm5.061 0 15.52-8.691A12.96 12.96 0 0 0 57 50.339V61zM59 40.966c0 2.893-1.151 5.618-3.109 7.642l-4.678-3.899a17.045 17.045 0 0 0 1.655-1.867L53.8 41.6l-1.6-1.2-.932 1.242a14.92 14.92 0 0 1-4.771 4.144L39 49.909v-2.926a14.39 14.39 0 0 1 4.001-9.982H44a3 3 0 0 0 2.996-2.965c.169-.085.332-.177.505-.256a8.63 8.63 0 0 1 3.6-.78C55.457 33 59 36.543 59 40.966zm-8.276-9.946a10.62 10.62 0 0 0-4.051.939c-.117.054-.228.118-.343.174a2.998 2.998 0 0 0-1.114-.87l.568-2.273c.072.001.143.01.216.01h4c.073 0 .144-.009.216-.011z" fill="#2c2b4b" opacity="1" data-original="#000000" class=""></path><path d="M28 15c1.654 0 3-1.346 3-3s-1.346-3-3-3-3 1.346-3 3 1.346 3 3 3zm0-4c.551 0 1 .449 1 1s-.449 1-1 1-1-.449-1-1 .449-1 1-1zM18 15c1.654 0 3-1.346 3-3s-1.346-3-3-3-3 1.346-3 3 1.346 3 3 3zm0-4c.551 0 1 .449 1 1s-.449 1-1 1-1-.449-1-1 .449-1 1-1zM8 15c1.654 0 3-1.346 3-3S9.654 9 8 9s-3 1.346-3 3 1.346 3 3 3zm0-4c.551 0 1 .449 1 1s-.449 1-1 1-1-.449-1-1 .449-1 1-1z" fill="#2c2b4b" opacity="1" data-original="#000000" class=""></path></g></svg>