<svg xmlns="http://www.w3.org/2000/svg" version="1.1" xmlns:xlink="http://www.w3.org/1999/xlink" width="512" height="512" x="0" y="0" viewBox="0 0 62 62" style="enable-background:new 0 0 512 512" xml:space="preserve" class=""><g><path fill="#e59623" d="M45.832 17.444C45.367 16.747 45 16.196 45 15v-2c0-7.168-5.832-13-13-13h-2c-7.168 0-13 5.832-13 13v2c0 1.196-.367 1.747-.832 2.444-.521.781-1.168 1.751-1.168 3.553 0 1.803.647 2.774 1.168 3.556.465.697.832 1.248.832 2.521a6.95 6.95 0 0 0 1.052 3.788l.232.37C19.826 28.698 22.606 27 25.789 27H30a8 8 0 0 1-8-8.001V12a5.607 5.607 0 0 0 4.664-2.496L27 9c3.272 1.963 7.016 3 10.831 3H38a2 2 0 0 0 2-2v9a8 8 0 0 1-8 8h4.212c3.184 0 5.963 1.698 7.505 4.233l.232-.37c.707-1.129 1.07-2.438 1.052-3.863 0-1.198.367-1.749.832-2.446.52-.783 1.167-1.754 1.167-3.557 0-1.802-.647-2.772-1.168-3.553z" opacity="1" data-original="#f0bc5e" class=""></path><path d="M43 48.171V44h-1c-2.42 0-4.736.79-6.641 2.236l-1.972-2.959C32.853 42.478 31.961 42 31 42s-1.853.478-2.387 1.277l-1.972 2.959A10.952 10.952 0 0 0 20 44h-1v4.171A13.092 13.092 0 0 0 17 48h-4v1c0 7.168 5.832 13 13 13h10c7.168 0 13-5.832 13-13v-1h-4c-.673 0-1.34.069-2 .171zm-2-2.116v3.283c0 2.101-.761 4.108-2.062 5.698.037-.31.062-.624.062-.944a7.886 7.886 0 0 0-1.328-4.387l-1.201-1.802A8.941 8.941 0 0 1 41 46.055zm-20 0a8.943 8.943 0 0 1 4.529 1.849l-1.201 1.802A7.878 7.878 0 0 0 23 54.092c0 .32.025.634.062.945C21.761 53.446 21 51.439 21 49.338zM15.045 50H17c.696 0 1.382.086 2.058.215.286 3.507 2.241 6.731 5.282 8.556l.377.226c.283.356.596.684.935.986-5.57-.175-10.111-4.499-10.607-9.983zM31 60h-.092A5.914 5.914 0 0 1 25 54.092c0-1.17.343-2.304.992-3.277l4.285-6.428c.323-.484 1.122-.484 1.445 0l4.285 6.428c.65.973.993 2.107.993 3.277A5.914 5.914 0 0 1 31.092 60zm5.349-.017c.339-.302.652-.631.935-.987l.376-.226c3.041-1.825 4.997-5.049 5.282-8.556A11.054 11.054 0 0 1 45 50h1.955c-.496 5.484-5.037 9.808-10.606 9.983z" fill="#2c2b4b" opacity="1" data-original="#000000" class=""></path><path d="M22.211 42a6.198 6.198 0 0 0 5.168-2.766L31 33.803l3.621 5.432A6.201 6.201 0 0 0 39.789 42 6.218 6.218 0 0 0 46 35.789c0-4.955-3.704-9.051-8.486-9.692C39.63 24.449 41 21.884 41 19v-9c0-1.654-1.346-3-3-3h-1v2h1a1.001 1.001 0 0 1 0 2h-.169c-3.633 0-7.201-.988-10.316-2.857l-.818-.49-.865 1.297A4.599 4.599 0 0 1 22 11h-1v7.999c0 2.884 1.369 5.45 3.486 7.098-4.782.641-8.486 4.738-8.486 9.692A6.218 6.218 0 0 0 22.211 42zM44 35.789A4.216 4.216 0 0 1 39.789 40a4.204 4.204 0 0 1-3.504-1.875L32 31.697v-1.869A1.83 1.83 0 0 1 33.829 28h.343a1.83 1.83 0 0 1 1.291 3.122l-.959.962 4.999 3.999-1.21 1.21 1.414 1.414L42 36.414v-5.821a7.75 7.75 0 0 1 2 5.196zm-4-6.798v4.928l-2.58-2.064c.377-.602.58-1.299.58-2.027a3.81 3.81 0 0 0-.401-1.704 7.724 7.724 0 0 1 2.401.867zm-17-9.992v-6.074a6.594 6.594 0 0 0 4.308-2.598A22.058 22.058 0 0 0 37.831 13H38c.351 0 .687-.061 1-.171V19c0 3.859-3.141 7-7 7h-2c-3.86 0-7-3.141-7-7.001zm1.579 12.856L22 33.919v-4.928a7.724 7.724 0 0 1 2.401-.867A3.81 3.81 0 0 0 24 29.828a3.8 3.8 0 0 0 .579 2.027zM20 30.593v5.821l2.293 2.293 1.414-1.414-1.21-1.21 4.999-3.999-.961-.963A1.83 1.83 0 0 1 27.829 28h.343A1.83 1.83 0 0 1 30 29.828v1.869l-4.285 6.428A4.204 4.204 0 0 1 22.211 40 4.216 4.216 0 0 1 18 35.789a7.75 7.75 0 0 1 2-5.196z" fill="#2c2b4b" opacity="1" data-original="#000000" class=""></path><path d="M27 16c.551 0 1 .448 1 1h2c0-1.654-1.346-3-3-3s-3 1.346-3 3h2c0-.552.449-1 1-1zM35 16c.551 0 1 .448 1 1h2c0-1.654-1.346-3-3-3s-3 1.346-3 3h2c0-.552.449-1 1-1zM29 20h-2c0 2.206 1.794 4 4 4s4-1.794 4-4h-2c0 1.103-.897 2-2 2s-2-.897-2-2zM5 31h2v3H5zM1.044 33.465l1.414-1.415 2.121 2.122-1.414 1.414zM0 36h3v2H0zM1.05 40.528l2.12-2.121 1.415 1.414-2.121 2.12zM5 40h2v3H5zM7.407 39.83l1.414-1.415 2.12 2.121-1.413 1.414zM9 36h3v2H9zM7.41 34.17l2.12-2.122 1.414 1.414-2.12 2.121zM55 20h2v3h-2zM51.042 22.468l1.414-1.414 2.121 2.12-1.414 1.414zM50 25h3v2h-3zM51.041 29.538l2.121-2.121 1.414 1.414-2.12 2.12zM55 29h2v3h-2zM57.408 28.839l1.414-1.414 2.12 2.12-1.413 1.414zM59 25h3v2h-3zM57.405 23.175l2.121-2.12 1.414 1.413-2.12 2.121zM6 49h2v2H6zM6 53h2v2H6zM8 51h2v2H8zM4 51h2v2H4zM50 38h2v2h-2zM50 42h2v2h-2zM52 40h2v2h-2zM48 40h2v2h-2zM55 53h2v2h-2zM55 57h2v2h-2zM57 55h2v2h-2zM53 55h2v2h-2zM6 21h2v2H6zM6 25h2v2H6zM8 23h2v2H8zM4 23h2v2H4zM11 9h2v2h-2zM11 13h2v2h-2zM13 11h2v2h-2zM9 11h2v2H9zM4 2h2v2H4zM4 6h2v2H4zM6 4h2v2H6zM2 4h2v2H2zM49 9h2v2h-2zM49 13h2v2h-2zM47 11h2v2h-2zM51 11h2v2h-2zM56 2h2v2h-2zM56 6h2v2h-2zM54 4h2v2h-2zM58 4h2v2h-2z" fill="#2c2b4b" opacity="1" data-original="#000000" class=""></path></g></svg>