<svg xmlns="http://www.w3.org/2000/svg" version="1.1" xmlns:xlink="http://www.w3.org/1999/xlink" width="512" height="512" x="0" y="0" viewBox="0 0 64 64" style="enable-background:new 0 0 512 512" xml:space="preserve" class=""><g><path fill="#e59623" d="M21.927 42.806a27.395 27.395 0 0 1 4.681-2.284l.351-.132a2.003 2.003 0 0 0 1.259-1.48l.337-1.688h.021A7.992 7.992 0 0 1 24 30v-4a4 4 0 0 1 4-4h8a4 4 0 0 1 4 4v4a7.992 7.992 0 0 1-4.577 7.222h.021l.337 1.688a2 2 0 0 0 1.259 1.48l.351.132a27.47 27.47 0 0 1 4.681 2.284A8.271 8.271 0 0 0 45 36.528V26c0-7.168-5.832-13-13-13s-13 5.832-13 13v10.528a8.274 8.274 0 0 0 2.927 6.278z" opacity="1" data-original="#f0bc5e"></path><circle cx="28" cy="28" r="1" fill="#2c2b4b" opacity="1" data-original="#000000" class=""></circle><circle cx="36" cy="28" r="1" fill="#2c2b4b" opacity="1" data-original="#000000" class=""></circle><path d="M33 33h-4v2h4c2.206 0 4-1.794 4-4h-2c0 1.103-.897 2-2 2zM30.089 20.445l1.788-.894 1.998 3.998-1.788.894zM34.087 20.446l1.788-.894 1.998 3.998-1.788.894z" fill="#2c2b4b" opacity="1" data-original="#000000" class=""></path><path d="M51 52.16c0-1.389-.447-2.728-1.228-3.864 4.098-3.595 7.044-8.38 8.382-13.639C60.962 33.747 63 31.108 63 28s-2.038-5.747-4.847-6.658C55.115 9.339 44.457 1 32 1a27.072 27.072 0 0 0-19.144 7.97A6.97 6.97 0 0 0 8 7c-3.86 0-7 3.141-7 7 0 3.171 2.121 5.852 5.018 6.71A26.952 26.952 0 0 0 5 28c0 7.828 3.353 15.17 9.22 20.307-.776 1.134-1.22 2.469-1.22 3.853 0 1.889.77 3.601 2.012 4.84H1v6h62v-6H48.988A6.818 6.818 0 0 0 51 52.16zM44.16 57h-9.716c.344-.591.556-1.268.556-2s-.212-1.409-.556-2H47v-2h-2v-2h-2v2h-6v-2a2 2 0 0 0-1.652-1.965 10.767 10.767 0 0 0 3.198-4.957 26.522 26.522 0 0 1 9.289 6.933A4.845 4.845 0 0 1 49 52.16 4.845 4.845 0 0 1 44.16 57zM29.199 39.106l.104-.521a8.975 8.975 0 0 0 5.394.001l.104.521a2.983 2.983 0 0 0 1.874 2.213 8.748 8.748 0 0 1-4.489 5.47l-.186.092-.186-.093a8.746 8.746 0 0 1-4.489-5.469 2.984 2.984 0 0 0 1.874-2.214zM35 49v2h-6v-2zm-4 4c1.103 0 2 .897 2 2s-.897 2-2 2h-2v-4zm17.489-6.237-.018-.019 2.403-12.018a6.42 6.42 0 0 0 .095-1.87 6.974 6.974 0 0 0 5.018 2.143 25.109 25.109 0 0 1-7.498 11.764zM61 28c0 2.757-2.243 5-5 5s-5-2.243-5-5 2.243-5 5-5 5 2.243 5 5zm-8.966-15H41.803c-2.153-4.685-4.926-7.926-6.878-9.812 6.944.801 13.076 4.403 17.109 9.812zM29.085 3.178C27.132 5.062 24.354 8.306 22.197 13H14.92a6.94 6.94 0 0 0-.827-2.433 25.077 25.077 0 0 1 14.992-7.389zM14.92 15h6.439a35.063 35.063 0 0 0-2.073 8.296h.001a12.985 12.985 0 0 1 3.571-6.526c.213-.608.436-1.201.673-1.77h1.573c2.002-1.26 4.362-2 6.896-2h-7.559C27.144 7.588 30.652 4.37 32 3.268c1.348 1.102 4.856 4.32 7.559 9.732H32c2.535 0 4.895.74 6.896 2h1.573c.237.569.46 1.162.673 1.77a12.985 12.985 0 0 1 3.571 6.526h.001A34.967 34.967 0 0 0 42.641 15h10.727a25.083 25.083 0 0 1 2.619 6.001C52.133 21.008 49 24.145 49 28c0 .288.023.57.057.849A6.44 6.44 0 0 0 45 27.023v2.023c2.241.234 4 2.111 4 4.413 0 .293-.029.588-.086.875l-2.147 10.734a28.544 28.544 0 0 0-9.026-5.484l-.349-.13a.994.994 0 0 1-.63-.74l-.195-.973C39.215 36.173 41 33.294 41 30v-7h-2v7c0 3.859-3.14 7-7 7s-7-3.141-7-7v-4c0-1.654 1.346-3 3-3h1v-2h-1c-2.757 0-5 2.243-5 5v4c0 3.294 1.785 6.173 4.432 7.741l-.195.973a.992.992 0 0 1-.628.739l-.353.132a28.518 28.518 0 0 0-9.024 5.483l-2.147-10.733a4.603 4.603 0 0 1-.085-.876c0-2.302 1.759-4.179 4-4.413V27H7.039c.081-2.043.406-4.053.974-6.001 3.513-.006 6.42-2.617 6.907-5.999zM3 14c0-2.757 2.243-5 5-5s5 2.243 5 5-2.243 5-5 5-5-2.243-5-5zm4.028 15h7.77a6.431 6.431 0 0 0-1.673 5.727l2.403 12.017-.025.028A24.894 24.894 0 0 1 7.028 29zM15 52.16c0-1.154.414-2.272 1.165-3.149a26.507 26.507 0 0 1 9.289-6.933 10.764 10.764 0 0 0 3.199 4.957A2 2 0 0 0 27 49v2h-6v-2h-2v2h-2v2h10v4h-7.16A4.845 4.845 0 0 1 15 52.16zM61 59v2H3v-2z" fill="#2c2b4b" opacity="1" data-original="#000000" class=""></path><path d="M11 14c0-1.654-1.346-3-3-3s-3 1.346-3 3 1.346 3 3 3 3-1.346 3-3zm-4 0a1.001 1.001 0 1 1 1 1c-.551 0-1-.448-1-1zM56 31c1.654 0 3-1.346 3-3s-1.346-3-3-3-3 1.346-3 3 1.346 3 3 3zm0-4a1.001 1.001 0 1 1-1 1c0-.552.449-1 1-1z" fill="#2c2b4b" opacity="1" data-original="#000000" class=""></path></g></svg>