<svg xmlns="http://www.w3.org/2000/svg" version="1.1" xmlns:xlink="http://www.w3.org/1999/xlink" width="512" height="512" x="0" y="0" viewBox="0 0 64 64" style="enable-background:new 0 0 512 512" xml:space="preserve" class=""><g><path fill="#e59623" d="M59 51H43V41h16zM11 14h22v5H11zM5 45h14v5H5z" opacity="1" data-original="#f0bc5e"></path><path d="M60 1H10C8.346 1 7 2.346 7 4v9H6c-2.757 0-5 2.243-5 5v40c0 2.757 2.243 5 5 5h30c2.757 0 5-2.243 5-5v-3h19c1.654 0 3-1.346 3-3V4c0-1.654-1.346-3-3-3zM10 3h50c.551 0 1 .448 1 1v5H9V4c0-.552.449-1 1-1zM6 15h1v6H6c-1.654 0-3-1.346-3-3s1.346-3 3-3zm33 43c0 1.654-1.346 3-3 3H6c-1.654 0-3-1.346-3-3V21.998A4.973 4.973 0 0 0 6 23h24c1.654 0 3 1.346 3 3v12.469l4.92 4.101A2.988 2.988 0 0 1 39 44.873zm21-5H41v-8.127a4.988 4.988 0 0 0-1.799-3.841L35 37.531V26c0-2.757-2.243-5-5-5H9V11h52v41c0 .552-.449 1-1 1z" fill="#2c2b4b" opacity="1" data-original="#000000" class=""></path><path d="M11 5h2v2h-2zM19 5h2v2h-2zM15 5h2v2h-2zM53.377 27.663A4.972 4.972 0 0 0 55 24c0-2.757-2.243-5-5-5s-5 2.243-5 5c0 1.451.632 2.749 1.623 3.663C43.33 29.002 41 32.232 41 36v3h18v-3c0-3.768-2.33-6.998-5.623-8.337zM47 24c0-1.654 1.346-3 3-3s3 1.346 3 3-1.346 3-3 3-3-1.346-3-3zm10 13H43v-1c0-3.859 3.14-7 7-7s7 3.141 7 7zM11 13h22v2H11zM11 17h2v2h-2zM15 17h18v2H15zM49 13h2v2h-2zM53 13h2v2h-2zM57 13h2v2h-2zM9 53H7c-1.103 0-2 .897-2 2v2c0 1.103.897 2 2 2h2c1.103 0 2-.897 2-2v-2c0-1.103-.897-2-2-2zm-2 4v-2h2l.001 2zM17 53h-2c-1.103 0-2 .897-2 2v2c0 1.103.897 2 2 2h2c1.103 0 2-.897 2-2v-2c0-1.103-.897-2-2-2zm-2 4v-2h2l.001 2zM5 49h14v2H5zM17 45h2v2h-2zM5 45h10v2H5zM29 33h2v2h-2zM29 29h2v2h-2zM29 25h2v2h-2z" fill="#2c2b4b" opacity="1" data-original="#000000" class=""></path></g></svg>