<svg xmlns="http://www.w3.org/2000/svg" version="1.1" xmlns:xlink="http://www.w3.org/1999/xlink" width="512" height="512" x="0" y="0" viewBox="0 0 64 64" style="enable-background:new 0 0 512 512" xml:space="preserve" class=""><g><g fill="#f0bc5e"><path d="M58 19v35H6V19H1v40h26.101c.464 2.279 2.485 4 4.899 4s4.435-1.721 4.899-4H63V19z" fill="#e59623" opacity="1" data-original="#f0bc5e"></path><path d="M9 38h20v9H9zM45 47c-5.514 0-10-4.486-10-10s4.486-10 10-10 10 4.486 10 10-4.486 10-10 10zM35 13h20v9H35z" fill="#e59623" opacity="1" data-original="#f0bc5e"></path></g><path d="M38 9a7.003 7.003 0 0 0-6 3.397A7.003 7.003 0 0 0 26 9h-2.059c-.285-3.072-1.854-5.935-4.341-7.8L19 .75l-.6.45c-2.486 1.865-4.056 4.728-4.341 7.8H5v46h54V9zm-7 7v9.764l-1.239-2.479a6.088 6.088 0 0 0-3.187-2.932A4.075 4.075 0 0 1 24 16.551V11h2c2.757 0 5 2.243 5 5zM14.414 27l-2-2H9.618l.411-.821a4.093 4.093 0 0 1 2.141-1.97A6.064 6.064 0 0 0 16 16.551V10c0-.549.061-1.091.16-1.623.891.399 1.849.623 2.84.623s1.949-.224 2.84-.623c.099.532.16 1.074.16 1.623v6.551a6.065 6.065 0 0 0 3.831 5.658 4.093 4.093 0 0 1 2.141 1.97l.41.821h-2.796l-2 2zm6.553 2A5.722 5.722 0 0 1 19 32.748 5.72 5.72 0 0 1 17.033 29zM19 3.292a9.056 9.056 0 0 1 2.259 3.158 5.081 5.081 0 0 1-4.517 0A9.04 9.04 0 0 1 19 3.292zM14 11v5.551a4.073 4.073 0 0 1-2.574 3.801 6.088 6.088 0 0 0-3.187 2.932L7 25.764V11zM7 27h4.586l2 2h1.452a7.708 7.708 0 0 0 3.408 5.832l.554.37.555-.37A7.71 7.71 0 0 0 22.963 29h1.452l2-2H31v26H7zm50 26H33V16c0-2.757 2.243-5 5-5h19z" fill="#2c2b4b" opacity="1" data-original="#000000" class=""></path><path d="M9 37h20v2H9zM27 41h2v2h-2zM9 41h16v2H9zM9 45h20v2H9zM35 21h20v2H35zM35 17h16v2H35zM53 17h2v2h-2zM35 13h20v2H35zM47 38c-1.654 0-3 1.346-3 3s1.346 3 3 3v-2c-.551 0-1-.449-1-1s.449-1 1-1 1 .449 1 1h2c0-1.654-1.346-3-3-3zM41 34v2c.551 0 1 .449 1 1s-.449 1-1 1-1-.449-1-1h-2c0 1.654 1.346 3 3 3s3-1.346 3-3-1.346-3-3-3zM47 34c-.551 0-1-.449-1-1s.449-1 1-1v-2c-1.654 0-3 1.346-3 3s1.346 3 3 3 3-1.346 3-3h-2c0 .551-.449 1-1 1zM18 11h2v2h-2zM18 15h2v2h-2zM18 19h2v2h-2z" fill="#2c2b4b" opacity="1" data-original="#000000" class=""></path></g></svg>