<svg xmlns="http://www.w3.org/2000/svg" version="1.1" xmlns:xlink="http://www.w3.org/1999/xlink" width="512" height="512" x="0" y="0" viewBox="0 0 496 496" style="enable-background:new 0 0 512 512" xml:space="preserve" class=""><g><path fill="#e59623" d="M280 456c0-17.672 14.328-32 32-32h24v-80h-17.695l-45.047 20.016c-10.793 4.793-19.45 12.816-25.258 22.57-5.816-9.754-14.465-17.777-25.258-22.57L177.695 344H160v80h24c17.672 0 32 14.328 32 32 0 11.574-6.2 21.625-15.406 27.238C215.922 486.336 231.762 488 248 488s32.078-1.664 47.406-4.762C286.2 477.625 280 467.574 280 456zm0 0" opacity="1" data-original="#f0bc5e"></path><path d="M248 240c-8.824 0-16-7.176-16-16h-16c0 17.648 14.352 32 32 32s32-14.352 32-32h-16c0 8.824-7.176 16-16 16zm0 0" fill="#2c2b4b" opacity="1" data-original="#000000" class=""></path><path d="m461.785 122.23-.113.067c-2.473-8.871-6.969-18.93-13.672-23.617V56c0-22.055-17.945-40-40-40h-16v16h16c13.23 0 24 10.77 24 24v42.68c-10.945 7.648-16 29.672-16 37.32 0 13.23 10.77 24 24 24 7.559 0 14.23-3.586 18.633-9.055C472.586 181.23 480 214.335 480 248c0 61.871-24.39 118.113-64 159.754v-43.547c0-24.871-16.703-47.008-40.617-53.84L304 289.97v-14.137a88 88 0 0 0 30.574-52.496C353.496 220.176 368 203.8 368 184V98.586c6.39-1.64 10.016-2.824 10.527-2.992L384 93.77V40h-16v42c-14.586 3.984-57.527 14-120 14S142.586 85.984 128 82V40h-11.207l-1.121-1.777c-.902.57-1.742 1.203-2.633 1.777H112v.703C41.824 86.793 0 163.903 0 248c0 136.742 111.258 248 248 248s248-111.258 248-248c0-44.313-11.832-87.8-34.215-125.77zM440 144c-4.406 0-8-3.594-8-8 0-6.61 4.566-19.488 8-23.328 3.434 3.832 8 16.719 8 23.328 0 4.406-3.594 8-8 8zM288 456c0-13.23 10.77-24 24-24h77.07c-26.656 20.48-57.847 35.313-91.804 42.68-5.7-4.512-9.266-11.305-9.266-18.68zm0-163.742-40 33.328-40-33.328v-5.969c12.016 6.16 25.594 9.711 40 9.711s27.984-3.55 40-9.71zM248 280c-39.695 0-72-32.305-72-72h48c8.824 0 16-7.176 16-16h16c0 8.824 7.176 16 16 16h48c0 39.695-32.305 72-72 72zm-104-96c0-10.414 6.71-19.215 16-22.527v45.047c-9.29-3.305-16-12.106-16-22.52zm176 8h-48v-24h48zm0-40h-48c-8.824 0-16 7.176-16 16v8h-16v-8c0-8.824-7.176-16-16-16h-48v-6.703c0-10.52 6.04-19.953 15.336-24.418A176.495 176.495 0 0 0 278.648 144H320zm-144 16h48v24h-48zm-15.96-23.191c-5.962 1.207-11.352 3.855-16.04 7.398v-49.969c9.91 2.028 22.434 4.176 37.39 5.946-12.894 7.535-21.175 21.273-21.35 36.625zM336 206.527V161.48c9.29 3.313 16 12.114 16 22.528 0 10.418-6.71 19.207-16 22.52zm16-104.289v49.969c-4.672-3.535-10.055-6.184-16-7.39V112h-16v16h-41.352c-25.359 0-50.32-6.023-72.832-17.496 12.84.93 26.926 1.496 42.184 1.496 46.246 0 81.742-5.207 104-9.762zM16 248c0-75.121 35.625-144.344 96-187.984V93.77l5.473 1.824c.52.168 4.144 1.351 10.527 2.992V184c0 19.703 14.352 36.023 33.426 39.305A87.98 87.98 0 0 0 192 275.825v14.136l-71.383 20.398C96.703 317.191 80 339.336 80 364.207v43.547C40.39 366.114 16 309.87 16 248zm168 184c13.23 0 24 10.77 24 24 0 7.375-3.566 14.168-9.266 18.68-33.957-7.368-65.16-22.2-91.804-42.68zm33.344 45.91c4.222-6.43 6.656-14 6.656-21.91 0-22.055-17.945-40-40-40h-40v-64h-16v64H96v-51.793c0-17.766 11.93-33.582 29.008-38.465l73.12-20.887L248 346.415l49.871-41.56 73.121 20.887c17.078 4.883 29.008 20.7 29.008 38.465V416h-32v-64h-16v64h-40c-22.055 0-40 17.945-40 40 0 7.91 2.434 15.48 6.656 21.91C268.617 479.238 258.398 480 248 480s-20.617-.762-30.656-2.09zm0 0" fill="#2c2b4b" opacity="1" data-original="#000000" class=""></path><path fill="#e59623" d="M384 48H112c-8.824 0-16-7.176-16-16V16c0-8.824 7.176-16 16-16h272c8.824 0 16 7.176 16 16v16c0 8.824-7.176 16-16 16zm0 0" opacity="1" data-original="#f0bc5e"></path></g></svg>